<svg width="20" height="20" viewBox="0 0 20 20" fill="none" xmlns="http://www.w3.org/2000/svg">
<path d="M7.99653 3.82986C8.52788 3.29851 9.24855 3 10 3C10.7514 3 11.4721 3.29851 12.0035 3.82986C12.5348 4.36122 12.8333 5.08189 12.8333 5.83333C12.8333 6.58478 12.5348 7.30545 12.0035 7.8368C11.4721 8.36816 10.7514 8.66667 10 8.66667C9.24855 8.66667 8.52788 8.36816 7.99653 7.8368C7.46518 7.30545 7.16667 6.58478 7.16667 5.83333C7.16667 5.08189 7.46518 4.36122 7.99653 3.82986ZM10.5 15C10.5 12.5261 12.5261 10.5 15 10.5C17.4739 10.5 19.5 12.5261 19.5 15C19.5 17.4739 17.4739 19.5 15 19.5C12.5261 19.5 10.5 17.4739 10.5 15ZM3 15.4167C3 15.0179 3.17677 14.6364 3.53692 14.265C3.90157 13.8889 4.43326 13.5473 5.07557 13.2525C6.0748 12.7938 7.27622 12.478 8.35959 12.3108C8.02135 13.1406 7.83333 14.0475 7.83333 15C7.83333 15.6952 7.93465 16.3658 8.12028 17H3V15.4167ZM16.3333 13.3333C16.3333 12.5972 15.7361 12 15 12C14.2639 12 13.6667 12.5972 13.6667 13.3333V13.6667H13.3333C12.5972 13.6667 12 14.2639 12 15C12 15.7361 12.5972 16.3333 13.3333 16.3333H13.6667V16.6667C13.6667 17.4028 14.2639 18 15 18C15.7361 18 16.3333 17.4028 16.3333 16.6667V16.3333H16.6667C17.4028 16.3333 18 15.7361 18 15C18 14.2639 17.4028 13.6667 16.6667 13.6667H16.3333V13.3333Z" stroke="#285EA7"/>
</svg>
