<svg width="20" height="20" viewBox="0 0 20 20" fill="none" xmlns="http://www.w3.org/2000/svg">
<path d="M4.16667 2.5C3.24583 2.5 2.5 3.24583 2.5 4.16667V15.8333C2.5 16.7542 3.24583 17.5 4.16667 17.5H8.82324C8.50991 16.7275 8.33333 15.885 8.33333 15C8.33333 13.4225 8.88397 11.975 9.7998 10.8333L9.81608 10.7959C9.44858 10.7101 9.16667 10.3933 9.16667 10C9.16667 9.54 9.54 9.16667 10 9.16667H11.7757C12.7315 8.63667 13.83 8.33333 15 8.33333C15.885 8.33333 16.7275 8.50991 17.5 8.82324V4.16667C17.5 3.24583 16.7542 2.5 15.8333 2.5H4.16667ZM6.25 5.83333H7.08333C7.31333 5.83333 7.5 6.02 7.5 6.25V7.08333C7.5 7.31333 7.31333 7.5 7.08333 7.5H6.25C6.02 7.5 5.83333 7.31333 5.83333 7.08333V6.25C5.83333 6.02 6.02 5.83333 6.25 5.83333ZM10 5.83333H13.3333C13.7933 5.83333 14.1667 6.20667 14.1667 6.66667C14.1667 7.12667 13.7933 7.5 13.3333 7.5H10C9.54 7.5 9.16667 7.12667 9.16667 6.66667C9.16667 6.20667 9.54 5.83333 10 5.83333ZM6.25 9.16667H7.08333C7.31333 9.16667 7.5 9.35333 7.5 9.58333V10.4167C7.5 10.6467 7.31333 10.8333 7.08333 10.8333H6.25C6.02 10.8333 5.83333 10.6467 5.83333 10.4167V9.58333C5.83333 9.35333 6.02 9.16667 6.25 9.16667ZM15 10C12.25 10 10 12.25 10 15C10 17.75 12.25 20 15 20C17.75 20 20 17.75 20 15C20 12.25 17.75 10 15 10ZM15 11.6667C15.46 11.6667 15.8333 12.04 15.8333 12.5V14.1667H17.5C17.96 14.1667 18.3333 14.54 18.3333 15C18.3333 15.46 17.96 15.8333 17.5 15.8333H15.8333V17.5C15.8333 17.96 15.46 18.3333 15 18.3333C14.54 18.3333 14.1667 17.96 14.1667 17.5V15.8333H12.5C12.04 15.8333 11.6667 15.46 11.6667 15C11.6667 14.54 12.04 14.1667 12.5 14.1667H14.1667V12.5C14.1667 12.04 14.54 11.6667 15 11.6667ZM6.25 12.5H7.08333C7.31333 12.5 7.5 12.6867 7.5 12.9167V13.75C7.5 13.98 7.31333 14.1667 7.08333 14.1667H6.25C6.02 14.1667 5.83333 13.98 5.83333 13.75V12.9167C5.83333 12.6867 6.02 12.5 6.25 12.5Z" fill="#285EA7"/>
</svg>
