<svg width="20" height="20" viewBox="0 0 20 20" fill="none" xmlns="http://www.w3.org/2000/svg">
<path d="M3 4.16667C3 3.52198 3.52198 3 4.16667 3H15.8333C16.478 3 17 3.52198 17 4.16667V8.12028C16.3658 7.93465 15.6952 7.83333 15 7.83333C14.5446 7.83333 14.0992 7.87611 13.6675 7.95774C14.242 7.80935 14.6667 7.28741 14.6667 6.66667C14.6667 5.93052 14.0695 5.33333 13.3333 5.33333H10C9.26386 5.33333 8.66667 5.93052 8.66667 6.66667C8.66667 7.40281 9.26386 8 10 8H13.3333C13.3978 8 13.4612 7.99542 13.5232 7.98657C12.8602 8.1262 12.2308 8.35775 11.6488 8.66667H10C9.26386 8.66667 8.66667 9.26386 8.66667 10C8.66667 10.3864 8.83182 10.7208 9.08645 10.956C8.57539 11.7014 8.20061 12.5481 8 13.4601V12.9167C8 12.4105 7.58948 12 7.08333 12H6.25C5.74386 12 5.33333 12.4105 5.33333 12.9167V13.75C5.33333 14.2561 5.74386 14.6667 6.25 14.6667H7.08333C7.42207 14.6667 7.71799 14.4828 7.87667 14.2094C7.84804 14.469 7.83333 14.7328 7.83333 15C7.83333 15.6952 7.93465 16.3658 8.12028 17H4.16667C3.52198 17 3 16.478 3 15.8333V4.16667ZM7.08333 5.33333H6.25C5.74386 5.33333 5.33333 5.74386 5.33333 6.25V7.08333C5.33333 7.58948 5.74386 8 6.25 8H7.08333C7.58948 8 8 7.58948 8 7.08333V6.25C8 5.74386 7.58948 5.33333 7.08333 5.33333ZM7.08333 8.66667H6.25C5.74386 8.66667 5.33333 9.07719 5.33333 9.58333V10.4167C5.33333 10.9228 5.74386 11.3333 6.25 11.3333H7.08333C7.58948 11.3333 8 10.9228 8 10.4167V9.58333C8 9.07719 7.58948 8.66667 7.08333 8.66667ZM10.5 15C10.5 12.5261 12.5261 10.5 15 10.5C17.4739 10.5 19.5 12.5261 19.5 15C19.5 17.4739 17.4739 19.5 15 19.5C12.5261 19.5 10.5 17.4739 10.5 15ZM16.3333 12.5C16.3333 11.7639 15.7361 11.1667 15 11.1667C14.2639 11.1667 13.6667 11.7639 13.6667 12.5V13.6667H12.5C11.7639 13.6667 11.1667 14.2639 11.1667 15C11.1667 15.7361 11.7639 16.3333 12.5 16.3333H13.6667V17.5C13.6667 18.2361 14.2639 18.8333 15 18.8333C15.7361 18.8333 16.3333 18.2361 16.3333 17.5V16.3333H17.5C18.2361 16.3333 18.8333 15.7361 18.8333 15C18.8333 14.2639 18.2361 13.6667 17.5 13.6667H16.3333V12.5Z" stroke="#285EA7"/>
</svg>
