<svg width="20" height="20" viewBox="0 0 20 20" fill="none" xmlns="http://www.w3.org/2000/svg">
<path d="M11.7888 16.0816L8.00008 12.2929V11.3333H8.95964L12.7484 15.122L11.7888 16.0816ZM2.16675 7.49998C2.16675 6.85529 2.68872 6.33331 3.33341 6.33331H16.6667C17.3114 6.33331 17.8334 6.85529 17.8334 7.49998V12.5C17.8334 13.1447 17.3114 13.6666 16.6667 13.6666H15.064L10.4555 9.05818C10.4553 9.05799 10.4551 9.05781 10.4549 9.05762C10.2044 8.80603 9.86412 8.66665 9.5118 8.66665H6.66675C5.93061 8.66665 5.33341 9.26384 5.33341 9.99998V12.845C5.33341 13.1442 5.43385 13.4331 5.61672 13.6666H3.33341C2.68872 13.6666 2.16675 13.1447 2.16675 12.5V7.49998ZM13.0851 17.3779L14.0447 16.4183L14.3015 16.6751C14.5662 16.9399 14.5662 17.37 14.3015 17.6347C14.0367 17.8994 13.6067 17.8994 13.3419 17.6347L13.0851 17.3779Z" stroke="#285EA7"/>
</svg>
