<svg width="20" height="20" viewBox="0 0 20 20" fill="none" xmlns="http://www.w3.org/2000/svg">
<path d="M3.33341 5.83331C2.41258 5.83331 1.66675 6.57915 1.66675 7.49998V12.5C1.66675 13.4208 2.41258 14.1666 3.33341 14.1666H6.80998L6.07756 13.4342C5.92089 13.2776 5.83341 13.0659 5.83341 12.845V9.99998C5.83341 9.53998 6.20675 9.16665 6.66675 9.16665H9.5118C9.73263 9.16665 9.94516 9.25412 10.101 9.41079L14.8569 14.1666H16.6667C17.5876 14.1666 18.3334 13.4208 18.3334 12.5V7.49998C18.3334 6.57915 17.5876 5.83331 16.6667 5.83331H3.33341ZM7.91675 10.8333C7.68675 10.8333 7.50008 11.02 7.50008 11.25V12.3275C7.50008 12.4383 7.54382 12.5445 7.62215 12.622L11.7888 16.7887L13.4555 15.122L9.28882 10.9554C9.21048 10.8779 9.10506 10.8333 8.99422 10.8333H7.91675ZM14.0447 15.7112L12.378 17.3779L12.9884 17.9883C13.4484 18.4483 14.195 18.4483 14.655 17.9883C15.115 17.5283 15.115 16.7816 14.655 16.3216L14.0447 15.7112Z" fill="#285EA7"/>
</svg>
