<svg width="20" height="20" viewBox="0 0 20 20" fill="none" xmlns="http://www.w3.org/2000/svg">
<path d="M9.58179 1.67157C8.89262 1.67157 8.33179 2.2324 8.33179 2.92157V5.04885C6.25012 5.26135 3.33179 6.28907 3.33179 9.17157V10.0049V16.6716C3.33179 17.5825 4.08757 18.3382 4.99845 18.3382H14.9985C15.9093 18.3382 16.6651 17.5825 16.6651 16.6716V10.0049V9.17157C16.6651 8.2049 16.3319 7.45065 15.8171 6.862C16.3324 6.4026 16.6651 5.7422 16.6651 5.0049C16.6651 3.63409 15.5359 2.5049 14.1651 2.5049C12.7943 2.5049 11.6651 3.63409 11.6651 5.0049C11.6651 5.01975 11.6681 5.03405 11.6684 5.04885C11.6674 5.04874 11.6661 5.04895 11.6651 5.04885V5.0049V2.92157C11.6651 2.2324 11.1043 1.67157 10.4151 1.67157H9.58179ZM14.1651 4.17157C14.636 4.17157 14.9985 4.53404 14.9985 5.0049C14.9985 5.40237 14.7339 5.709 14.3702 5.79917C14.0693 5.65128 13.7605 5.52166 13.4425 5.41994C13.3715 5.29724 13.3318 5.15866 13.3318 5.0049C13.3318 4.53404 13.6943 4.17157 14.1651 4.17157ZM4.99845 10.0049H14.9985V16.6716H4.99845V10.0049ZM7.9021 11.0645L7.09318 12.277L8.68335 13.3366L7.09318 14.3978L7.9021 15.6104L9.99683 14.2139L12.0932 15.6104L12.9021 14.3978L11.3119 13.3366L12.9021 12.277L12.0932 11.0645L9.99683 12.461L7.9021 11.0645Z" fill="#EF4444"/>
</svg>
