<?xml version="1.0" encoding="UTF-8"?>
<svg id="Layer_1" data-name="Layer 1" xmlns="http://www.w3.org/2000/svg" xmlns:xlink="http://www.w3.org/1999/xlink" viewBox="0 0 950 950">
  <defs>
    <style>
      .cls-1 {
        stroke-width: .03px;
      }

      .cls-1, .cls-2 {
        stroke: #231916;
      }

      .cls-1, .cls-2, .cls-3, .cls-4, .cls-5, .cls-6, .cls-7, .cls-8, .cls-9, .cls-10 {
        fill-rule: evenodd;
      }

      .cls-1, .cls-2, .cls-4 {
        stroke-miterlimit: 2.61;
      }

      .cls-11, .cls-5 {
        fill: #fff;
      }

      .cls-2 {
        stroke-width: .03px;
      }

      .cls-3 {
        fill: url(#GradientFill_2);
      }

      .cls-4 {
        stroke: #000;
        stroke-width: .14px;
      }

      .cls-4, .cls-6 {
        fill: #fff000;
      }

      .cls-7 {
        fill: #009844;
      }

      .cls-8 {
        fill: #00a0e8;
      }

      .cls-12 {
        fill: #e50013;
      }

      .cls-13 {
        fill: #9ed8f5;
      }

      .cls-14 {
        fill: url(#GradientFill_1);
      }

      .cls-10 {
        fill: #231916;
      }
    </style>
    <linearGradient id="GradientFill_1" data-name="GradientFill 1" x1="475.8" y1="144.97" x2="475.8" y2="648.34" gradientUnits="userSpaceOnUse">
      <stop offset="0" stop-color="#d2ecfa"/>
      <stop offset="1" stop-color="#fff"/>
    </linearGradient>
    <linearGradient id="GradientFill_2" data-name="GradientFill 2" x1="473.41" y1="914.21" x2="475.38" y2="635.41" gradientUnits="userSpaceOnUse">
      <stop offset="0" stop-color="#009844"/>
      <stop offset="1" stop-color="#aacc05"/>
    </linearGradient>
  </defs>
  <polygon class="cls-9" points="836.47 703.46 472.54 935.51 470.19 937 467.87 935.49 113.79 705.32 111.8 704.03 111.8 701.62 111.8 18.05 111.8 13.64 116.15 13.64 834.16 13.64 838.52 13.64 838.52 18.05 838.52 699.74 838.52 702.16 836.47 703.46"/>
  <polygon class="cls-5" points="470.25 926.58 829.79 697.33 829.79 22.46 120.49 22.46 120.49 699.22 470.25 926.58"/>
  <rect class="cls-14" x="266.01" y="144.97" width="419.56" height="503.37"/>
  <polygon class="cls-7" points="266.01 494.82 410.65 494.82 475.8 492.95 531.37 494.82 685.58 494.82 685.58 563.42 266.01 563.42 266.01 494.82"/>
  <path class="cls-8" d="m266.01,503.71c2.47,1.74,5.85,3.49,12.53,3.49,10.09-4.37,16.02-7.87,26.82-7.87,5.84,0,9.64,4.64,12.88,7.87,8.34-3.06,14.39-6.08,22.88-6.08,3.16,0,4.17,1.3,7.15,2.5,4.8,1.94,10.96,2.15,16.09,2.15,5.58-2.4,9.61-5.06,15.38-4.65,3.7.27,4.29,3.67,6.79,4.29,7.74-2.66,15.08-7.02,23.24-6.08,2.3.26,8.49,3.12,10.37,4.65,2.32,1.89,5.64,1.43,8.94,1.43,2.76-1.71,8.04-6.08,11.8-6.08,2.98,0,5.92,3.59,9.48,4.72-.29.36-.56.69-.81,1,1.41,0,2.79-.26,4.16-.56,2.85.05,5.69-.49,7.91-1.22,4.6-1.17,9.4-2.56,14.17-3.24,4.77.68,9.57,2.07,14.17,3.24,2.22.74,5.05,1.28,7.9,1.22,1.37.3,2.75.56,4.17.56-.26-.31-.52-.64-.81-1,3.56-1.13,6.5-4.72,9.48-4.72,3.76,0,9.04,4.37,11.8,6.08,3.3,0,6.62.45,8.94-1.43,1.88-1.53,8.07-4.38,10.37-4.65,8.16-.94,15.5,3.41,23.24,6.08,2.5-.63,3.1-4.03,6.79-4.29,5.77-.41,9.8,2.25,15.38,4.65,5.13,0,11.29-.2,16.09-2.15,2.98-1.21,3.99-2.5,7.15-2.5,8.5,0,14.54,3.02,22.88,6.08,3.23-3.23,7.04-7.87,12.88-7.87,10.79,0,16.73,3.49,26.82,7.87,6.68,0,10.05-1.75,12.52-3.49v-24.85c-22-8.38-41.32-23.2-60.8-37.46-1.05-3.14-15.17-10.8-19.31-9.66-1.44.4-4.72,2.3-5.72,1.07-3.09-3.8-7,.65-10.01,2.86-.23-.68-2.39-.48-3.22-.72-1.87-.52-2.63-1.43-4.65-1.43-2.95,0-1.44-.17-5.36,2.86-.47-1.42-5.76-2.36-7.87-2.14-2.04.21-8.52,4.99-10.37,6.43-5.45,4.26-11.58,8.59-17.52,12.52-5.5,0-16.33,12.37-26.46,13.23-7.27.62-16.09,9.28-22.89,12.52-5.01,2.38-10.29,2.86-15.6,4.02-5.31-1.16-10.59-1.64-15.6-4.02-6.8-3.24-15.61-11.89-22.89-12.52-10.13-.87-20.96-13.23-26.46-13.23-5.94-3.93-12.07-8.26-17.52-12.52-1.85-1.45-8.34-6.23-10.37-6.43-2.1-.22-7.39.73-7.87,2.14-3.92-3.04-2.41-2.86-5.36-2.86-2.02,0-2.78.91-4.65,1.43-.83.23-2.99.04-3.22.72-3.01-2.21-6.93-6.66-10.01-2.86-1,1.23-4.28-.67-5.72-1.07-4.14-1.15-18.26,6.52-19.31,9.66-19.48,14.26-38.8,29.09-60.8,37.47v24.84Z"/>
  <path class="cls-10" d="m266.01,502.04c2.37,1.76,5.46,3.75,12.26,3.8,1.3-.57,2.65-1.17,3.94-1.75,7.87-3.53,13.66-6.12,23.14-6.12,5.77,0,9.58,3.91,12.77,7.19l.45.46c1.32-.49,2.37-.89,3.38-1.28,6.47-2.49,11.92-4.58,19.15-4.58,2.48,0,3.77.68,5.41,1.53.64.33,1.35.71,2.25,1.07,2.27.92,4.89,1.43,7.55,1.71,2.6.27,5.29.33,7.76.33,1-.44,1.97-.89,2.91-1.33,4.23-1.97,7.88-3.67,12.84-3.32,2.65.19,3.94,1.57,5.14,2.86.52.56,1.01,1.09,1.56,1.35,1.77-.62,3.5-1.32,5.21-2.01,5.89-2.37,11.72-4.72,18.19-3.98,1.25.14,3.44.93,5.56,1.88,2.23,1,4.45,2.21,5.51,3.06,1.55,1.26,3.96,1.21,6.44,1.15.45,0,.91-.02,1.25-.02.49-.32,1.08-.73,1.72-1.17,3.02-2.09,7.11-4.92,10.47-4.92,2.07,0,3.89,1.23,5.81,2.53l3.23,1.94,9.28-.17c1.61,0,3.11-1.01,4.51-1.95,1.42-.96,2.75-1.86,4.34-1.98,2.56-.2,5.15-.04,7.74.32,2.59-.36,5.18-.52,7.74-.32,1.59.12,2.92,1.02,4.34,1.98,1.39.94,2.89,1.95,4.5,1.95,4.1,0,8.24,1.13,12.51-1.76,1.92-1.3,3.74-2.53,5.81-2.53,3.37,0,7.46,2.83,10.47,4.92.64.44,1.23.85,1.72,1.17.34,0,.8.02,1.25.02,2.49.06,4.89.11,6.45-1.15,1.06-.85,3.28-2.06,5.51-3.06,2.12-.95,4.31-1.74,5.56-1.88,6.47-.74,12.3,1.61,18.19,3.98,1.71.69,3.43,1.39,5.21,2.01.55-.26,1.04-.79,1.56-1.35,1.2-1.29,2.49-2.67,5.14-2.86,4.96-.35,8.61,1.35,12.84,3.32.94.44,1.92.89,2.91,1.33,2.47,0,5.16-.06,7.75-.33,2.67-.28,5.29-.79,7.56-1.71.9-.36,1.61-.73,2.25-1.07,1.63-.86,2.92-1.53,5.41-1.53,7.24,0,12.69,2.09,19.15,4.58,1.01.39,2.06.79,3.38,1.28l.45-.46c3.19-3.28,7-7.19,12.77-7.19,9.48,0,15.26,2.59,23.14,6.12,1.29.58,2.64,1.18,3.94,1.75,6.8-.05,9.89-2.04,12.26-3.8v3.3c-2.56,1.67-6.1,3.2-12.52,3.2l-.53-.12c-1.6-.69-2.95-1.3-4.25-1.88-7.56-3.38-13.12-5.87-22.04-5.87-4.64,0-8.01,3.46-10.84,6.36-.47.48-.94.96-1.08,1.11l-.61.61-.81-.3c-1.21-.44-2.74-1.03-4.23-1.6-6.2-2.39-11.42-4.39-18.19-4.39-1.84,0-2.86.53-4.16,1.21-.71.37-1.5.79-2.49,1.19-2.53,1.02-5.39,1.59-8.29,1.89-2.87.3-5.72.36-8.31.36l-.53-.11c-1.16-.5-2.22-.99-3.24-1.47-3.89-1.81-7.25-3.38-11.51-3.08-1.59.11-2.5,1.09-3.35,2-.9.97-1.76,1.89-3.21,2.25l-.77-.03c-1.91-.66-3.85-1.44-5.77-2.21-5.56-2.25-11.08-4.47-16.88-3.8-.98.11-2.87.81-4.77,1.66-2.03.91-4.02,1.98-4.9,2.69-2.33,1.89-5.21,1.82-8.21,1.76-.42,0-.83-.02-1.59-.02l-.71-.21c-.64-.4-1.36-.89-2.15-1.44-2.72-1.88-6.41-4.43-8.94-4.43-1.25,0-2.73,1-4.3,2.06-6.07,4.11-8.73,4.46-16.77,1.82-.62-.16-1.69-.44-2.78-.72-3.64-.95-7.37-1.92-11.06-2.46-3.69.54-7.42,1.52-11.06,2.46-1.08.28-2.16.56-2.78.72-1.55.51-3.37.93-5.28,1.13-.92.1-1.87.15-2.82.14-7.93,1.72-6.9-5.16-12.96-5.16-2.53,0-6.22,2.55-8.94,4.43-.79.55-1.51,1.04-2.15,1.44l-.71.21c-.76,0-1.17.01-1.59.02-2.99.07-5.87.13-8.2-1.76-.88-.71-2.87-1.78-4.9-2.69-1.9-.85-3.79-1.55-4.77-1.66-5.8-.66-11.31,1.56-16.88,3.8-1.93.77-3.86,1.56-5.77,2.21l-.77.03c-1.46-.36-2.31-1.28-3.22-2.25-.85-.91-1.76-1.89-3.34-2-4.26-.3-7.61,1.26-11.51,3.08-1.02.48-2.08.97-3.24,1.47l-.53.11c-2.59,0-5.44-.05-8.31-.36-2.9-.31-5.76-.87-8.29-1.89-.99-.4-1.78-.81-2.49-1.19-1.29-.68-2.32-1.21-4.16-1.21-6.77,0-11.99,2.01-18.19,4.39-1.49.57-3.02,1.16-4.23,1.6l-.81.3-.61-.61c-.14-.14-.61-.62-1.08-1.11-2.83-2.9-6.2-6.36-10.84-6.36-8.92,0-14.48,2.49-22.04,5.87-1.3.58-2.65,1.19-4.25,1.88l-.53.12c-6.42,0-9.96-1.53-12.53-3.2v-3.3h0Zm419.56-21.72c-20.69-7.78-38.97-21.21-57.21-34.61-1.46-1.07-2.93-2.15-4.39-3.22l-.48-.67c-.44-1.31-4.31-3.9-8.46-5.98-3.74-1.87-7.59-3.25-9.21-2.79-.29.08-.74.26-1.23.46-1.98.81-4.52,1.85-5.89.16-1.72-2.12-4.33,0-6.57,1.83-.56.45-1.09.89-1.6,1.27l-1.49,1.09-.58-1.76c-.14-.42-.39.38-.86.35-.53-.04-1.02-.07-1.45-.19-.8-.22-1.4-.5-1.97-.76h0c-.71-.33-1.35-.62-2.32-.62h0s-.45,0-.45,0c-.72,0-1,0-1.07.03-.08.04-.27.21-.57.49-.48.43-1.18,1.08-2.45,2.06l-1.5,1.16-.6-1.81c-.04-.13-.83-.39-1.84-.67-1.62-.44-3.57-.66-4.61-.56-.55.05-1.79.73-3.21,1.61-2.5,1.55-5.35,3.67-6.47,4.54-2.65,2.07-5.46,4.16-8.31,6.19-3.08,2.2-6.22,4.35-9.3,6.38l-.75.22c-2.01,0-5.3,2.29-9.09,4.92-5.19,3.6-11.24,7.8-17.26,8.31-4.25.36-9.32,3.87-14.12,7.2-2.9,2.01-5.71,3.96-8.3,5.19-6.68,1.96-9.96,3.25-16.18,4.18-5.72-.86-10.43-1.45-16.18-4.18-2.59-1.23-5.4-3.18-8.3-5.19-4.8-3.32-9.87-6.84-14.12-7.2-6.03-.52-12.08-4.72-17.26-8.31-3.79-2.63-7.08-4.92-9.09-4.92l-.75-.22c-3.08-2.03-6.22-4.18-9.3-6.38-2.85-2.04-5.65-4.12-8.31-6.19-1.12-.88-3.96-2.99-6.46-4.54-1.42-.88-2.66-1.56-3.21-1.61-1.04-.11-2.99.12-4.61.56-1.01.27-1.8.53-1.84.67l-.6,1.81-1.5-1.16c-1.26-.98-1.97-1.63-2.45-2.06-.31-.28-.5-.45-.57-.49-.06-.03-.35-.03-1.07-.03h-.45c-.97,0-1.61.3-2.32.63h0c-.56.26-1.16.53-1.97.76-.42.12-.92.15-1.45.19-.47.03-.72-.76-.85-.35l-.59,1.76-1.49-1.09c-.51-.37-1.05-.81-1.6-1.27-2.24-1.83-4.84-3.95-6.56-1.83-1.37,1.7-3.91.66-5.89-.16-.5-.2-.94-.38-1.24-.46-1.61-.45-5.46.93-9.21,2.79-4.16,2.08-8.02,4.67-8.46,5.98l-.48.67c-1.46,1.07-2.93,2.15-4.39,3.22-18.24,13.4-36.52,26.83-57.21,34.61v-2.9c20.01-7.72,37.83-20.82,55.62-33.88,1.37-1.01,2.74-2.02,4.12-3.03,1.12-1.99,5.26-4.9,9.6-7.07,4.25-2.13,8.82-3.63,11.13-2.99.44.12.96.34,1.54.57,1.17.48,2.66,1.09,2.77.95,3.43-4.22,7.15-1.18,10.36,1.44.26.22.51.42.76.62.58-.18,1.25-.23,1.89-.27.39-.02.77-.05.91-.09.6-.16,1.09-.39,1.56-.61h0c1-.46,1.9-.88,3.45-.88h0s.45,0,.45,0c1.2,0,1.67,0,2.33.34.4.21.67.46,1.12.88.32.29.75.68,1.37,1.19.67-.44,1.55-.79,2.5-1.05,1.91-.52,4.29-.78,5.6-.64,1.01.11,2.64.93,4.36,2,2.57,1.6,5.53,3.8,6.7,4.71,2.6,2.03,5.37,4.09,8.22,6.12,2.93,2.09,5.93,4.15,8.91,6.12,2.77.23,6.24,2.64,10.19,5.38,4.92,3.41,10.64,7.38,15.96,7.84,4.96.42,10.35,4.15,15.43,7.67,2.81,1.95,5.52,3.83,7.92,4.97,3.56,1.69,7.34,2.4,11.15,3.11,1.29.24,2.58.48,3.87.76,1.29-.28,2.58-.52,3.87-.76,3.82-.71,7.59-1.42,11.15-3.11,2.39-1.14,5.11-3.02,7.92-4.97,5.08-3.52,10.47-7.25,15.43-7.67,5.31-.45,11.04-4.43,15.95-7.84,3.95-2.74,7.42-5.15,10.19-5.38,2.97-1.97,5.98-4.03,8.91-6.12,2.84-2.03,5.62-4.09,8.22-6.12,1.17-.91,4.13-3.12,6.7-4.71,1.72-1.07,3.35-1.9,4.36-2,1.31-.13,3.68.12,5.6.64.95.26,1.83.61,2.5,1.05.62-.51,1.05-.9,1.37-1.19.45-.41.73-.67,1.12-.88.66-.35,1.14-.35,2.33-.34h.45c1.55,0,2.45.41,3.45.87h0c.47.21.96.44,1.56.61.14.04.51.07.91.09.64.04,1.31.09,1.89.27.25-.2.51-.41.76-.62,3.21-2.62,6.93-5.66,10.36-1.44.11.14,1.61-.47,2.77-.95.58-.24,1.11-.45,1.55-.57,2.3-.64,6.88.86,11.13,2.99,4.34,2.17,8.48,5.08,9.6,7.07,1.37,1.01,2.75,2.02,4.12,3.03,17.78,13.06,35.6,26.16,55.61,33.88v2.9Z"/>
  <path class="cls-5" d="m395.53,442.39c-.75-.57-1.48-1.13-2.2-1.7-1.85-1.45-8.34-6.23-10.37-6.43-2.1-.22-7.39-4.07-7.87-2.65-3.92-3.03-3.21-2.06-6.16-2.06-2.02,0-2.25,1.98-4.12,2.5-5.19,1.44-10.28-7.57-14.03-2.94-1,1.23-5.86,3.13-7.31,2.73-3.84-1.07-13.64,5.39-16.24,8.85,1.33,5.49,1.77,6.37,2.26,10.12.12.91,4.57-2.59,5.33-2.93,1.36-.61,2.29-.39,2.66,1.07.2.78,2.28,2.86,2.93,3.73.79-.61,6.15-6.49,8.26-4,.82.97,1.7,1.56,2.13,2.66.17.43.62.92,1.07,1.07.44-.29,10.82-7.08,12.26-5.86,1.68,1.41,2.21,4.8,4.8,4.8,3.01-2.15,5.98-4.12,8.8-6.4,1.47-1.19,1.5.5,2.93,1.07,1.46.57,3.2,1.6,4.8,1.6,1.3-.71,3.74-2,4.8-2.66.46-.29,1.37-.06,2.13-.53.88-.55,2.04-1.21,3.13-2Z"/>
  <path class="cls-10" d="m395.24,440.46h0l1.11.85,1.45,1.11-1.48,1.06c-.92.66-1.83,1.21-2.61,1.69l-.6.37h0c-.69.43-1.34.49-1.89.54h0c-.15.01-.16-.06-.23-.02-.91.57-2.75,1.56-4.11,2.3l-.76.41-.64.16c-1.47,0-2.89-.64-4.19-1.22-.36-.16-.72-.32-1.1-.47-.82-.32-1.27-.8-1.65-1.22-2.05,1.65-4.21,3.16-6.41,4.7h0c-.84.59-1.69,1.19-2.4,1.69l-.78.25c-2.42,0-3.43-1.71-4.44-3.41-.4-.68-.8-1.35-1.23-1.72,0,0-1.01.5-2.38,1.15-3.43,1.64-7.98,4.62-8.26,4.81l-.55.36-.62-.21c-.43-.14-.82-.41-1.14-.73h0c-.32-.32-.59-.73-.75-1.12-.2-.51-.62-.93-1.07-1.4-.27-.28-.55-.56-.83-.89-.58-.68-2.47.72-3.96,1.97-.67.57-1.27,1.13-1.7,1.54-.33.32-.58.55-.76.69l-1.08.83-.82-1.09c-.18-.24-.53-.64-.92-1.07-.92-1.05-2.02-2.29-2.24-3.13-.07-.25-.1-.37-.11-.37-.1-.03-.34.04-.7.2-.11.05-.64.41-1.26.84-1.38.96-3.21,2.21-4.18,2.34-1,.13-1.64-.25-1.78-1.31-.33-2.53-.64-3.72-1.24-6.02-.27-1.02-.59-2.26-1-3.96l-.15-.62.38-.51c1.53-2.03,5.35-5.01,9.11-7.07,3.2-1.74,6.47-2.85,8.57-2.26.42.12,1.62-.2,2.89-.68,1.36-.51,2.65-1.16,3.01-1.6,2.81-3.47,5.77-1.59,8.95.44,1.94,1.24,4,2.55,5.77,2.06.48-.13.86-.53,1.22-.91h0c.8-.84,1.56-1.64,3.25-1.64.64,0,1.08-.05,1.42-.09,1.6-.17,2.06-.22,4.8,1.85.49-.08,1.08.01,1.74.24.88.29,1.92.81,2.96,1.34,1.3.65,2.62,1.32,3.25,1.39,1.01.11,2.64.93,4.36,2,2.57,1.6,5.53,3.8,6.7,4.71.31.24.68.52,1.09.84h0Zm-2.03,1.84l-.72-.56c-1.12-.88-3.96-2.99-6.46-4.54-1.42-.88-2.67-1.56-3.21-1.61-1.13-.12-2.67-.9-4.19-1.66-.93-.47-1.86-.94-2.51-1.17l-.35,1.07-1.51-1.16c-2.57-2-2.77-1.97-3.62-1.88-.44.05-.98.11-1.71.11-.53,0-.91.39-1.3.8-.62.65-1.26,1.32-2.46,1.65-2.91.81-5.5-.84-7.93-2.39-2.13-1.36-4.11-2.61-5.41-1.01-.66.81-2.42,1.77-4.17,2.43-1.72.64-3.56,1.02-4.55.75-1.34-.37-3.9.59-6.56,2.03-3.16,1.72-6.31,4.1-7.85,5.85.33,1.33.6,2.38.83,3.26.49,1.89.79,3.06,1.07,4.78.59-.38,1.34-.9,1.97-1.34.73-.51,1.35-.93,1.69-1.09,1-.44,1.9-.57,2.7-.28.89.32,1.51,1.04,1.82,2.24.05.21.92,1.2,1.65,2.02l.09.11c.4-.38.89-.82,1.41-1.27,2.41-2.05,5.7-4.09,7.77-1.65.23.27.47.51.69.75.63.64,1.21,1.22,1.61,2.16,1.58-1.01,4.95-3.1,7.71-4.42,2.27-1.08,4.3-1.62,5.29-.78.78.66,1.3,1.53,1.81,2.4.53.89,1.06,1.79,1.76,2.02.72-.51,1.35-.95,1.97-1.39h0c2.15-1.51,4.27-2.99,6.32-4.65,1.9-1.53,2.62-.76,3.61.31.19.21.42.46.66.55.36.14.78.33,1.21.52.93.42,1.93.87,2.79.96l.43-.23c1.32-.71,3.12-1.68,3.96-2.21.47-.29.91-.33,1.4-.38h0c.27-.03.57-.06.73-.16h0s.6-.37.6-.37c.29-.18.6-.36.91-.56Z"/>
  <path class="cls-5" d="m556.06,442.39c.75-.57,1.48-1.13,2.2-1.7,1.85-1.45,8.34-6.23,10.37-6.43,2.1-.22,7.39-4.07,7.87-2.65,3.92-3.03,3.21-2.06,6.16-2.06,2.02,0,2.25,1.98,4.12,2.5,5.19,1.44,10.28-7.57,14.03-2.94,1,1.23,5.86,3.13,7.31,2.73,3.84-1.07,13.64,5.39,16.24,8.85-1.34,5.49-1.77,6.37-2.26,10.12-.12.91-4.57-2.59-5.33-2.93-1.36-.61-2.29-.39-2.67,1.07-.2.78-2.28,2.86-2.93,3.73-.79-.61-6.15-6.49-8.26-4-.82.97-1.7,1.56-2.13,2.66-.17.43-.62.92-1.07,1.07-.44-.29-10.82-7.08-12.26-5.86-1.67,1.41-2.21,4.8-4.8,4.8-3.01-2.15-5.98-4.12-8.8-6.4-1.47-1.19-1.5.5-2.93,1.07-1.46.57-3.2,1.6-4.8,1.6-1.3-.71-3.74-2-4.8-2.66-.46-.29-1.37-.06-2.13-.53-.88-.55-2.04-1.21-3.13-2Z"/>
  <path class="cls-10" d="m556.35,440.46h0l-1.11.85-1.45,1.11,1.48,1.06c.92.66,1.83,1.21,2.61,1.69l.6.37h0c.69.43,1.34.49,1.89.54h0c.15.01.16-.06.23-.02.91.57,2.75,1.56,4.11,2.3l.76.41.64.16c1.47,0,2.89-.64,4.2-1.22.36-.16.72-.32,1.09-.47.82-.32,1.27-.8,1.65-1.22,2.05,1.65,4.21,3.16,6.4,4.7h0c.84.59,1.69,1.19,2.4,1.69l.78.25c2.42,0,3.43-1.71,4.44-3.41.4-.68.8-1.35,1.23-1.72,0,0,1.01.5,2.38,1.15,3.42,1.64,7.98,4.62,8.26,4.81l.55.36.62-.21c.43-.14.82-.41,1.14-.73h0c.32-.32.59-.73.75-1.12.2-.51.62-.93,1.07-1.4.27-.28.55-.56.83-.89.58-.68,2.47.72,3.96,1.97.67.57,1.27,1.13,1.7,1.54.33.32.58.55.76.69l1.08.83.82-1.09c.18-.24.53-.64.92-1.07.92-1.05,2.02-2.29,2.24-3.13.07-.25.1-.37.11-.37.1-.03.34.04.7.2.11.05.64.41,1.26.84,1.38.96,3.21,2.21,4.18,2.34,1,.13,1.64-.25,1.78-1.31.33-2.53.64-3.72,1.23-6.02.27-1.02.59-2.26,1-3.96l.15-.62-.38-.51c-1.53-2.03-5.35-5.01-9.11-7.07-3.2-1.74-6.47-2.85-8.56-2.26-.42.12-1.63-.2-2.89-.68-1.36-.51-2.65-1.16-3.01-1.6-2.82-3.47-5.77-1.59-8.95.44-1.94,1.24-4,2.55-5.77,2.06-.48-.13-.86-.53-1.22-.91h0c-.8-.84-1.56-1.64-3.25-1.64-.64,0-1.08-.05-1.42-.09-1.6-.17-2.06-.22-4.8,1.85-.49-.08-1.08.01-1.74.24-.88.29-1.92.81-2.96,1.34-1.3.65-2.62,1.32-3.25,1.39-1.01.11-2.64.93-4.36,2-2.57,1.6-5.53,3.8-6.7,4.71-.31.24-.68.52-1.09.84h0Zm2.03,1.84l.71-.56c1.12-.88,3.97-2.99,6.47-4.54,1.42-.88,2.66-1.56,3.21-1.61,1.13-.12,2.67-.9,4.18-1.66.94-.47,1.86-.94,2.51-1.17l.35,1.07,1.51-1.16c2.57-2,2.76-1.97,3.62-1.88.44.05.98.11,1.71.11.53,0,.91.39,1.3.8.62.65,1.26,1.32,2.46,1.65,2.91.81,5.5-.84,7.93-2.39,2.13-1.36,4.11-2.61,5.41-1.01.66.81,2.42,1.77,4.17,2.43,1.72.64,3.56,1.02,4.55.75,1.34-.37,3.9.59,6.56,2.03,3.16,1.72,6.31,4.1,7.85,5.85-.33,1.33-.6,2.38-.83,3.26-.49,1.89-.79,3.06-1.07,4.78-.59-.38-1.34-.9-1.97-1.34-.73-.51-1.35-.93-1.69-1.09-1-.44-1.9-.57-2.7-.28-.89.32-1.51,1.04-1.82,2.24-.06.21-.92,1.2-1.65,2.02l-.09.11c-.4-.38-.89-.82-1.41-1.27-2.41-2.05-5.7-4.09-7.77-1.65-.23.27-.47.51-.69.75-.63.64-1.21,1.22-1.61,2.16-1.58-1.01-4.95-3.1-7.71-4.42-2.27-1.08-4.3-1.62-5.29-.78-.78.66-1.3,1.53-1.81,2.4-.53.89-1.06,1.79-1.76,2.02-.72-.51-1.35-.95-1.97-1.39h0c-2.15-1.51-4.27-2.99-6.32-4.65-1.9-1.53-2.62-.76-3.61.31-.19.21-.42.46-.66.55-.36.14-.78.33-1.21.52-.93.42-1.93.87-2.79.96l-.43-.23c-1.32-.71-3.12-1.68-3.96-2.21-.47-.29-.91-.33-1.4-.38h0c-.27-.03-.57-.06-.73-.16h0s-.6-.37-.6-.37c-.29-.18-.6-.36-.91-.56Z"/>
  <polygon class="cls-3" points="135.88 643.86 203.2 644 468.45 764 746.26 644 814.42 643.86 814.42 691.66 470.36 908.11 135.88 691.66 135.88 643.86"/>
  <polygon class="cls-4" points="200.92 643.89 468.45 764 749.58 645.22 200.92 643.89"/>
  <rect class="cls-13" x="266.01" y="554.52" width="419.56" height="85.13"/>
  <rect class="cls-12" x="684.29" y="143.39" width="130.14" height="501.78"/>
  <rect class="cls-12" x="135.88" y="143.39" width="130.13" height="501.78"/>
  <path class="cls-9" d="m810.06,147.79h-121.4v491.67h121.4V147.79h0Zm-53.3,501.77H140.24v39.69l330.15,213.65,339.67-213.68v-39.65h-53.3Zm-616.52-10.11h121.4V147.79h-121.4v491.67h0Zm130.13,0h409.55V147.79h-409.55v491.67h0Zm548.41,10.11v44.53l-2.06,1.3-344.06,216.45-2.33,1.46-2.32-1.5-334.48-216.45-2.01-1.3V33.57h687.26v616Z"/>
  <path class="cls-5" d="m184.06,121.08h-13.36l-6.86-20.48-4.11,7.98v12.5h-11.49v-54.17h11.49v22.38l10.96-22.38h10.94l-10.04,19.8,12.45,34.36h0Zm25.17,0l-2.24-10.67h-10.64l-2.38,10.67h-9.89l12.27-54.17h12.89l12.42,54.17h-12.42Zm-10.82-22.5h6.45l-3.22-15.71-3.23,15.71h0Zm26.91,22.5v-54.17h20.15c4.19,0,7.24,1.44,9.17,4.32,1.91,2.89,2.88,6.18,2.88,9.89,0,2.7-.56,5.13-1.68,7.32-1.11,2.18-2.77,3.69-4.98,4.51,5.13,1.69,7.71,5.89,7.71,12.61,0,4.02-.91,7.61-2.72,10.78-1.81,3.16-5.68,4.74-11.62,4.74h-18.9Zm11.23-33.42h5.64c1.41,0,2.41-.49,3-1.47.58-.97.87-2.03.87-3.14,0-3.01-1.36-4.52-4.08-4.52h-5.43v9.13h0Zm0,21.35h5.92c1.48,0,2.55-.49,3.25-1.48.68-1,1.03-2.11,1.03-3.36s-.34-2.39-1-3.43c-.68-1.05-1.9-1.57-3.69-1.57h-5.52v9.83h0Zm59.25-42.1v35.87c0,6.8-1.48,11.69-4.44,14.67-2.96,2.98-6.81,4.47-11.57,4.47-4.99,0-9.01-1.44-12.05-4.29-3.04-2.86-4.55-7.52-4.55-13.97v-36.75h12.39v34.8c0,2.6.4,4.48,1.2,5.67.8,1.19,2.09,1.79,3.85,1.79,1.48,0,2.68-.43,3.62-1.29.94-.87,1.51-1.83,1.69-2.91.19-1.1.28-3.21.28-6.35v-31.71h9.57Zm18.87,34.49v19.68h-12.36v-54.17h16.96c4.22,0,7.44.66,9.64,1.98,2.21,1.33,3.94,3.36,5.23,6.08,1.29,2.72,1.94,5.77,1.94,9.15,0,5.16-1.32,9.33-3.95,12.51-2.64,3.18-6.17,4.77-10.57,4.77h-6.89Zm-.18-11.64h4.07c3.59,0,5.38-1.79,5.38-5.39,0-3.38-1.66-5.08-4.98-5.08h-4.48v10.47h0Zm45.47,31.32h12.42l-12.42-54.17h-12.89l-12.27,54.17h9.89l2.38-10.67h10.64l2.25,10.67h0Zm-10.82-22.5l3.22-15.71,3.23,15.71h-6.45Zm40.95-18.69v41.19h-11.55v-41.19h-8.23v-12.98h28.01v12.98h-8.23Zm41.57,28.26v12.93h-29.87v-54.17h29.87v12.51h-17.91v7.86h14.49v12.03h-14.49v8.84h17.91Zm38.79,12.93h-9.92l-10.88-23.94c-1.4-3.06-2.8-6.8-4.22-11.19.65,3.5.96,6.46.96,8.88v26.24h-9.89v-54.17h11.52l9.24,19.84c1.85,3.94,3.25,7.41,4.19,10.39-.61-4.62-.92-9.36-.92-14.2v-16.04h9.92v54.17h0Zm17.71-15.67l11.31-2.78c.95,4.36,3.4,6.54,7.33,6.54,3.07,0,4.6-1.11,4.6-3.33,0-1.17-.34-2.08-1.06-2.72-.71-.65-1.97-1.22-3.79-1.72-6.96-1.83-11.43-4.21-13.41-7.14-1.99-2.94-2.97-6.39-2.97-10.36,0-5.1,1.42-9.36,4.26-12.74,2.84-3.39,6.93-5.08,12.27-5.08,8.08,0,13.42,4.44,16.03,13.31l-10.1,4.17c-1.04-3.63-3.17-5.45-6.36-5.45-2.66,0-3.99,1.13-3.99,3.37,0,1,.31,1.79.9,2.35.6.55,1.77,1.08,3.49,1.58,4.75,1.39,8.13,2.6,10.12,3.66,2.01,1.06,3.68,2.86,5.01,5.42,1.34,2.55,2,5.55,2,9.02,0,5.47-1.63,9.91-4.89,13.31-3.26,3.4-7.54,5.11-12.83,5.11-9.67,0-15.65-5.51-17.91-16.51h0Zm70.17,2.74v12.93h-29.87v-54.17h29.87v12.51h-17.91v7.86h14.49v12.03h-14.49v8.84h17.91Zm48-41.23v54.17h-11.31v-38.73l-7.37,38.73h-7.74l-7.62-38.73v38.73h-9.14v-54.17h15.91l5.76,28.77,5.5-28.77h16Zm28.83,54.17l-2.24-10.67h-10.64l-2.38,10.67h-9.89l12.27-54.17h12.89l12.42,54.17h-12.42Zm-10.82-22.5h6.45l-3.22-15.71-3.23,15.71h0Zm62.25,22.5h-13.52l-5.79-20.71h-3.84v20.71h-12.18v-54.17h20.75c4.57,0,8.12,1.46,10.65,4.39,2.53,2.93,3.8,6.77,3.8,11.57,0,3.12-.46,5.88-1.4,8.28-.93,2.38-2.81,4.49-5.64,6.33l7.18,23.61h0Zm-23.16-32.31h5.21c1.53,0,2.76-.43,3.69-1.3.92-.88,1.39-2.17,1.39-3.86,0-3.46-1.56-5.19-4.67-5.19h-5.62v10.35h0Zm50.83,32.31l-2.24-10.67h-10.64l-2.38,10.67h-9.89l12.27-54.17h12.89l12.43,54.17h-12.43Zm-10.82-22.5h6.45l-3.22-15.71-3.23,15.71h0Zm60.86,22.5h-9.92l-10.88-23.94c-1.4-3.06-2.8-6.8-4.22-11.19.65,3.5.96,6.46.96,8.88v26.24h-9.89v-54.17h11.52l9.24,19.84c1.85,3.94,3.25,7.41,4.19,10.39-.62-4.62-.92-9.36-.92-14.2v-16.04h9.92v54.17h0Zm41.22-30.36v30.36h-5.97c-.49-2.25-1.01-4.14-1.6-5.67-2.46,4.33-6.1,6.51-10.94,6.51-5.11,0-9.32-2.45-12.62-7.33-3.3-4.87-4.95-11.48-4.95-19.82s1.6-14.9,4.79-20.43c3.19-5.51,7.94-8.28,14.24-8.28,4.74,0,8.54,1.65,11.43,4.93,2.89,3.28,4.77,7.94,5.62,13.96l-11.82,1.59c-.57-5.64-2.39-8.46-5.44-8.46-3.99,0-5.99,5.19-5.99,15.57,0,6.26.64,10.4,1.92,12.39,1.28,2,2.83,2.99,4.66,2.99,1.47,0,2.73-.61,3.76-1.81,1.04-1.22,1.57-2.88,1.59-5.01h-6.57v-11.5h17.89Z"/>
  <path class="cls-9" d="m266.01,530.17c1.55-1.44,3.29-3.92,6.72-7.62,2.56-2.75,10.1,15.41,17.87,8.59,12.6-11.04,20.84,8.59,39.2-.51,6.22-3.08,12.72,2.58,16.14.51,22.05-13.33,7.29-17.63,29.41,11.12,9.93,12.91,27.13,12.54,39.5,4.03,10.91-7.5,16.56-19.92,25.65-20.2l35.17-1.1,35.17,1.1c9.09.28,14.74,12.7,25.65,20.2,12.37,8.51,29.57,8.87,39.5-4.03,22.12-28.74,7.35-24.44,29.4-11.12,3.43,2.07,9.92-3.59,16.14-.51,18.36,9.1,26.61-10.54,39.21.51,7.78,6.82,15.32-11.35,17.87-8.59,3.61,3.89,5.35,6.44,6.95,7.83v24.13h-419.56v-24.34Z"/>
  <path class="cls-1" d="m279.28,563.67h8.15c1.64,0,2.99,1.47,2.99,3.26h0c0,1.8-1.35,3.27-2.99,3.27h-8.15c-1.65,0-2.99-1.47-2.99-3.27h0c0-1.8,1.35-3.26,2.99-3.26Z"/>
  <path class="cls-1" d="m298.52,563.67h8.16c1.64,0,2.99,1.47,2.99,3.26h0c0,1.8-1.35,3.27-2.99,3.27h-8.16c-1.64,0-2.99-1.47-2.99-3.27h0c0-1.8,1.35-3.26,2.99-3.26Z"/>
  <path class="cls-1" d="m317.77,563.67h8.15c1.65,0,2.99,1.47,2.99,3.26h0c0,1.8-1.35,3.27-2.99,3.27h-8.15c-1.64,0-2.99-1.47-2.99-3.27h0c0-1.8,1.35-3.26,2.99-3.26Z"/>
  <path class="cls-1" d="m337.01,563.67h8.15c1.64,0,2.99,1.47,2.99,3.26h0c0,1.8-1.35,3.27-2.99,3.27h-8.15c-1.64,0-2.99-1.47-2.99-3.27h0c0-1.8,1.35-3.26,2.99-3.26Z"/>
  <path class="cls-1" d="m433.23,563.67h8.15c1.64,0,2.99,1.47,2.99,3.26h0c0,1.8-1.35,3.27-2.99,3.27h-8.15c-1.64,0-2.99-1.47-2.99-3.27h0c0-1.8,1.35-3.26,2.99-3.26Z"/>
  <path class="cls-1" d="m452.48,563.67h8.15c1.64,0,2.99,1.47,2.99,3.26h0c0,1.8-1.35,3.27-2.99,3.27h-8.15c-1.64,0-2.99-1.47-2.99-3.27h0c0-1.8,1.35-3.26,2.99-3.26Z"/>
  <path class="cls-2" d="m471.72,563.67h8.16c1.64,0,2.99,1.47,2.99,3.26h0c0,1.8-1.35,3.27-2.99,3.27h-8.16c-1.65,0-2.99-1.47-2.99-3.27h0c0-1.8,1.34-3.26,2.99-3.26Z"/>
  <path class="cls-1" d="m490.96,563.67h8.15c1.65,0,2.99,1.47,2.99,3.26h0c0,1.8-1.35,3.27-2.99,3.27h-8.15c-1.64,0-2.99-1.47-2.99-3.27h0c0-1.8,1.35-3.26,2.99-3.26Z"/>
  <path class="cls-1" d="m510.21,563.67h8.15c1.64,0,2.99,1.47,2.99,3.26h0c0,1.8-1.35,3.27-2.99,3.27h-8.15c-1.65,0-2.99-1.47-2.99-3.27h0c0-1.8,1.35-3.26,2.99-3.26Z"/>
  <path class="cls-1" d="m606.43,563.67h8.15c1.65,0,2.99,1.47,2.99,3.26h0c0,1.8-1.35,3.27-2.99,3.27h-8.15c-1.64,0-2.99-1.47-2.99-3.27h0c0-1.8,1.35-3.26,2.99-3.26Z"/>
  <path class="cls-1" d="m625.67,563.67h8.15c1.64,0,2.99,1.47,2.99,3.26h0c0,1.8-1.35,3.27-2.99,3.27h-8.15c-1.65,0-2.99-1.47-2.99-3.27h0c0-1.8,1.35-3.26,2.99-3.26Z"/>
  <path class="cls-1" d="m644.91,563.67h8.15c1.65,0,2.99,1.47,2.99,3.26h0c0,1.8-1.35,3.27-2.99,3.27h-8.15c-1.64,0-2.99-1.47-2.99-3.27h0c0-1.8,1.34-3.26,2.99-3.26Z"/>
  <path class="cls-1" d="m664.16,563.67h8.15c1.64,0,2.99,1.47,2.99,3.26h0c0,1.8-1.34,3.27-2.99,3.27h-8.15c-1.64,0-2.99-1.47-2.99-3.27h0c0-1.8,1.35-3.26,2.99-3.26Z"/>
  <path class="cls-1" d="m279.28,579.18h8.15c1.64,0,2.99,1.47,2.99,3.26h0c0,1.8-1.35,3.26-2.99,3.26h-8.15c-1.65,0-2.99-1.47-2.99-3.26h0c0-1.8,1.35-3.26,2.99-3.26Z"/>
  <path class="cls-1" d="m298.52,579.52h8.16c1.64,0,2.99,1.47,2.99,3.27h0c0,1.8-1.35,3.26-2.99,3.26h-8.16c-1.64,0-2.99-1.47-2.99-3.26h0c0-1.8,1.35-3.27,2.99-3.27Z"/>
  <path class="cls-1" d="m644.91,579.22h8.15c1.65,0,2.99,1.47,2.99,3.26h0c0,1.8-1.35,3.27-2.99,3.27h-8.15c-1.64,0-2.99-1.47-2.99-3.27h0c0-1.79,1.34-3.26,2.99-3.26Z"/>
  <path class="cls-1" d="m664.16,579.55h8.15c1.64,0,2.99,1.47,2.99,3.26h0c0,1.79-1.34,3.26-2.99,3.26h-8.15c-1.64,0-2.99-1.47-2.99-3.26h0c0-1.8,1.35-3.26,2.99-3.26Z"/>
  <path class="cls-1" d="m279.28,594.24h21.75c1.64,0,2.99,1.47,2.99,3.26h0c0,1.8-1.35,3.27-2.99,3.27h-21.75c-1.64,0-2.99-1.47-2.99-3.27h0c0-1.79,1.35-3.26,2.99-3.26Z"/>
  <path class="cls-1" d="m650.56,594.7h21.75c1.64,0,2.99,1.47,2.99,3.27h0c0,1.8-1.35,3.26-2.99,3.26h-21.75c-1.64,0-2.99-1.47-2.99-3.26h0c0-1.8,1.35-3.27,2.99-3.27Z"/>
  <path class="cls-9" d="m393.89,405.92h6.78l-3.37-1.89-3.42,1.89h0Zm163.81,0h-6.78l3.37-1.89,3.42,1.89h0Zm-13.62-30.44c-5.79,68.04-11.69,137.51-17.03,200.25l-.19,2.27h61.07l-.28-2.36c-8.54-70.83-16.07-133.2-24.15-200.25l-.22-1.79h-19.04l-.16,1.88h0Zm-13.15,197.1l1.81-21.37,19.96,10.14-21.77,11.23h0Zm2.36-27.8l2.74-32.26,37.97,10.76-40.71,21.5h0Zm3.2-37.66l1.92-22.64,31.62,11.69-33.54,10.95h0Zm2.44-28.65l2.22-26.12,26.52,12.13-28.74,13.99h0Zm2.77-32.54l1.85-21.82,20.59,9.16-22.45,12.65h0Zm2.4-28.21l.65-7.64h13.03l-13.68,7.64h0Zm1.12-13.21l.44-5.22,4.47,2.46-4.91,2.76h0Zm.89-10.44l1.39-16.32h12.64l1.97,16.32h-16Zm16.62,5.22l.63,5.18-4.97-2.74,4.34-2.44h0Zm1.42,11.82l2.26,18.75-19.93-8.87,17.66-9.88h0Zm3.03,25.06l3.02,25.02-26.17-11.97,23.16-13.05h0Zm3.77,31.21l3.13,25.95-32.07-11.86,28.94-14.09h0Zm3.8,31.56l2.53,21.01-35.81-10.15,33.28-10.87h0Zm3.23,26.8l2.45,20.35h-41.01l38.55-20.35h0Zm3.08,25.52l2.56,21.27-22.07-11.21,19.51-10.06h0Zm-3.75,22.59h-40.06l19.87-10.25,20.18,10.25h0Zm-20.89-175.63l-2.18,1.23-2.21-1.23h4.39Zm.71,160.85l-17.39-8.83h34.51l-17.12,8.83h0Zm-149.63-183.59c5.78,68.04,11.69,137.51,17.03,200.25l.19,2.27h-61.07l.28-2.36c8.54-70.83,16.07-133.2,24.15-200.25l.22-1.79h19.04l.16,1.88h0Zm13.15,197.1l-1.81-21.37-19.96,10.14,21.77,11.23h0Zm-2.36-27.8l-2.74-32.26-37.97,10.76,40.71,21.5h0Zm-3.2-37.66l-1.92-22.64-31.62,11.69,33.54,10.95h0Zm-2.44-28.65l-2.22-26.12-26.52,12.13,28.74,13.99h0Zm-2.77-32.54l-1.85-21.82-20.59,9.16,22.45,12.65h0Zm-2.4-28.21l-.65-7.64h-13.03l13.68,7.64h0Zm-1.12-13.21l-.44-5.22-4.47,2.46,4.91,2.76h0Zm-.89-10.44l-1.39-16.32h-12.64l-1.97,16.32h16Zm-16.62,5.22l-.63,5.18,4.97-2.74-4.34-2.44h0Zm-1.43,11.82l-2.26,18.75,19.93-8.87-17.67-9.88h0Zm-3.02,25.06l-3.02,25.02,26.17-11.97-23.16-13.05h0Zm-3.77,31.21l-3.13,25.95,32.07-11.86-28.94-14.09h0Zm-3.81,31.56l-2.53,21.01,35.81-10.15-33.28-10.87h0Zm-3.23,26.8l-2.45,20.35h41.01l-38.55-20.35h0Zm-3.08,25.52l-2.57,21.27,22.07-11.21-19.51-10.06h0Zm3.75,22.59h40.06l-19.87-10.25-20.18,10.25h0Zm20.89-175.63l2.18,1.23,2.21-1.23h-4.39Zm-.71,160.85l17.39-8.83h-34.51l17.12,8.83Z"/>
  <path class="cls-9" d="m547.99,373.6l-.19,1.98-1.73,20.49-.16,1.87h-1.64c-46.51-.04-91.58-.09-137.98-.13l-.19-1.83-2.01-19.76-.23-2.62c48.04-.21,95.96.2,144.13,0h0Zm-139.05,4.44l9.81,14.89,7.33-14.97-17.14.07h0Zm22.15-.09l6.54,14.66,7.82-14.72-14.36.06h0Zm19.68-.08l7.59,14.61,5.85-14.66-13.44.06h0Zm18.28-.08l7.05,14.8,7.08-14.86-14.13.06h0Zm18.9-.08l5.89,14.77,7.7-14.82-13.59.06h0Zm18.66-.08l7.96,14.98,6.71-15.05-14.68.06h0Zm19.3-.08l7.54,15.39,10.19-15.47-17.73.08h0Zm17.69,5.13l-7.33,11.13h6.39s.94-11.13.94-11.13h0Zm-12.83,11.12l-7.17-14.63-6.52,14.62h13.69Zm-18.74,0l-7.95-14.96-7.77,14.95h15.72Zm-20.64,0l-5.82-14.6-6.94,14.58,12.76.02h0Zm-17.81-.02l-6.94-14.58-5.81,14.57h12.75Zm-17.7,0l-7.75-14.91-7.91,14.9h15.67Zm-20.78,0l-6.49-14.54-7.12,14.53h13.61Zm-19.23,0l-7.51-11.4,1.16,11.39h6.35Z"/>
  <polygon class="cls-6" points="467.68 579.33 482.6 579.33 480.53 216.96 471.16 216.96 467.68 579.33"/>
  <path class="cls-9" d="m469.04,577.89h12.21l-2.06-359.49h-6.69l-3.46,359.49h0Zm13.56,2.88h-16.29l.02-1.45,3.49-362.37.02-1.43h12.04v1.44s2.08,362.37,2.08,362.37v1.45s-1.35,0-1.35,0Z"/>
  <path class="cls-10" d="m467.98,547.23h14.44l.02,3.84h-14.49l.04-3.84h0Zm14.33-18.71l-.02-3.85h-14.09l-.04,3.85h14.15Zm-.13-22.56l-.02-3.84h-13.75l-.04,3.84h13.8Zm-.13-22.56l-.02-3.84h-13.4l-.04,3.84h13.45Zm-.13-22.56l-.02-3.84h-13.05l-.04,3.84h13.11Zm-.13-22.56l-.02-3.84h-12.71l-.04,3.84h12.76Zm-.13-22.55l-.02-3.85h-12.36l-.04,3.85h12.42Zm-.13-22.56l-.02-3.84h-12.01l-.04,3.84h12.07Zm-.13-22.56l-.02-3.84h-11.67l-.04,3.84h11.73Zm-.13-22.56l-.02-3.84h-11.32l-.04,3.84h11.38Zm-.13-22.56l-.02-3.84h-10.97l-.04,3.84h11.03Zm-.13-22.55l-.02-3.85h-10.63l-.04,3.85h10.69Zm-.13-22.56l-.02-3.84h-10.28l-.04,3.84h10.34Zm-.13-22.56l-.02-3.84h-9.94l-.04,3.84h9.99Zm-.13-22.56l-.02-3.84h-9.59l-.04,3.84h9.65Z"/>
  <rect class="cls-11" x="270.35" y="606.52" width="85.24" height="33.12"/>
  <rect x="274.5" y="611.12" width="76.93" height="23.91"/>
  <rect class="cls-11" x="351.43" y="606.52" width="85.24" height="33.12"/>
  <rect x="355.59" y="611.12" width="76.93" height="23.91"/>
  <rect class="cls-11" x="432.52" y="606.52" width="85.24" height="33.12"/>
  <rect x="436.67" y="611.12" width="76.93" height="23.91"/>
  <rect class="cls-11" x="513.6" y="606.52" width="85.24" height="33.12"/>
  <rect x="517.76" y="611.12" width="76.93" height="23.91"/>
  <rect class="cls-11" x="594.69" y="606.52" width="85.24" height="33.12"/>
  <rect x="598.84" y="611.12" width="76.93" height="23.91"/>
  <rect class="cls-11" x="310.89" y="577.97" width="85.24" height="33.12"/>
  <rect x="315.05" y="582.57" width="76.93" height="23.91"/>
  <rect class="cls-11" x="391.98" y="577.97" width="85.24" height="33.12"/>
  <rect x="396.13" y="582.57" width="76.93" height="23.91"/>
  <rect class="cls-11" x="473.06" y="577.97" width="85.24" height="33.12"/>
  <rect x="477.22" y="582.57" width="76.93" height="23.91"/>
  <rect class="cls-11" x="554.14" y="577.97" width="85.24" height="33.12"/>
  <rect x="558.3" y="582.57" width="76.93" height="23.91"/>
  <path class="cls-5" d="m492.81,635.48h12.2v8.74h12.81v14.45h14.64v16.13h22.56v23.29h-4.98v1.97l-3.81,3.49v42.3l3.81,3.49v2.45h4.98v17.36h-161.46v-17.36h4.98v-2.45l3.8-3.49v-42.3l-3.8-3.49v-1.97h-4.98v-23.29h22.57v-16.13h14.64v-14.45h12.81v-8.74h12.2v-8.4h37.04v8.4h0Zm-69.05,110.95l.61-.56v-42.3l-.61-.56-.61.56v42.3l.61.56h0Zm22.03,0l.61-.56v-42.3l-.61-.56-.61.56v42.3l.61.56h0Zm25.22,5.37h6.56v-2.45l3.81-3.49v-42.3l-3.81-3.49v-1.97h-6.56v1.97l-3.8,3.49v42.3l3.8,3.49v2.45h0Zm31.78-5.37l.62-.56v-42.3l-.62-.56-.61.56v42.3l.61.56h0Zm22.03,0l.61-.56v-42.3l-.61-.56-.61.56v42.3l.61.56Z"/>
  <path class="cls-9" d="m489.23,639.06v-8.4h-29.88v8.4h-12.2v8.74h-12.81v14.45h-14.64v16.13h-22.56v16.13h4.98v3.98l2.52,2.32h1.28v47.8h-1.28l-2.52,2.32v3.98l.05.47h-5.03v10.19h154.3v-10.19h-5.03l.05-.47v-3.98l-2.53-2.32h-1.28v-47.8h1.28l2.53-2.32v-3.98h4.98v-16.13h-22.56v-16.13h-14.64v-14.45h-12.81v-8.74h-12.2Zm-65.91,116.32l.05-.47v-3.98l-2.52-2.32h-1.28v-47.8h1.28l2.52-2.32v-3.98h.78v3.98l2.52,2.32h1.28v47.8h-1.28l-2.52,2.32v3.98l.05.47h-.89Zm22.03,0l.05-.47v-3.98l-2.52-2.32h-1.28v-47.8h1.28l2.52-2.32v-3.98h.78v3.98l2.52,2.32h1.28v47.8h-1.28l-2.52,2.32v3.98l.05.47h-.89Zm22.03,0l.05-.47v-3.98l-2.52-2.32h-1.28v-47.8h1.28l2.52-2.32v-3.98h13.72v3.98l2.53,2.32h1.28v47.8h-1.28l-2.53,2.32v3.98l.05.47h-13.83Zm34.97,0l.05-.47v-3.98l-2.53-2.32h-1.28v-47.8h1.28l2.53-2.32v-3.98h.78v3.98l2.53,2.32h1.28v47.8h-1.28l-2.53,2.32v3.98l.05.47h-.89Zm22.03,0l.05-.47v-3.98l-2.53-2.32h-1.28v-47.8h1.28l2.53-2.32v-3.98h.78v3.98l2.53,2.32h1.28v47.8h-1.28l-2.53,2.32v3.98l.05.47h-.89Z"/>
  <path class="cls-9" d="m755.97,615.6l.19,25.9h-13.16l.15-25.62c-4.69-8.49-13.31-11.46-19.19-18.79-13.17-16.41-6.47-31.66-7.32-50.19l-.34-7.4,4.09,6.17c2.63,3.97,5.49,7.6,8.57,11.22,2.41,2.82,4.92,5.62,7.01,8.69,2.16,3.17,3.69,6.42,4.76,10.11,1.21,4.2,1.92,8.69,2.59,13.06l.15-25.6c-5.2-7.71-13.28-13.07-19.43-19.99-4.78-5.38-7.45-11.2-8.15-18.37-.88-8.92,1.23-18.06.77-27.12l-.35-6.82,4.04,5.51c2.72,3.71,5.66,7.05,8.82,10.39,2.48,2.62,5.05,5.22,7.17,8.14,1.95,2.69,3.37,5.5,4.39,8.66,1.4,4.36,2.13,9.11,2.9,13.62l.16-28.6c-5.22-7.39-13.45-12.36-19.69-18.85-4.82-5.01-7.57-10.51-8.24-17.45-.79-8.16,1.26-16.48.8-24.77l-.36-6.42,4,5.04c2.8,3.53,5.81,6.68,9.03,9.82,2.53,2.47,5.16,4.94,7.3,7.77,1.78,2.35,3.11,4.83,4.08,7.62,1.4,4.03,2.14,8.46,2.91,12.65.1.53.2,1.08.3,1.64l.17-29.77c-5.2-7.62-13.64-12.68-20-19.29-4.82-5.01-7.57-10.51-8.24-17.45-.79-8.16,1.26-16.48.8-24.77l-.36-6.42,4,5.04c2.8,3.53,5.81,6.67,9.03,9.82,2.53,2.47,5.16,4.94,7.3,7.77,1.78,2.35,3.11,4.83,4.08,7.62,1.4,4.03,2.14,8.46,2.91,12.65.19,1,.38,2.09.6,3.22l.15-26.74c-5.17-7.85-13.82-12.98-20.28-19.71-4.82-5.01-7.57-10.51-8.24-17.45-.79-8.16,1.26-16.47.8-24.77l-.36-6.42,4,5.04c2.8,3.53,5.81,6.68,9.03,9.82,2.53,2.47,5.16,4.94,7.3,7.77,1.78,2.35,3.11,4.83,4.08,7.62,1.4,4.03,2.14,8.46,2.91,12.65.26,1.39.54,2.97.87,4.61l.16-27.4c-5.13-8.09-13.98-13.3-20.55-20.14-4.82-5.01-7.57-10.51-8.24-17.45-.79-8.17,1.26-16.48.8-24.77l-.36-6.43,4,5.04c2.8,3.53,5.81,6.67,9.03,9.81,2.53,2.47,5.16,4.94,7.3,7.77,1.78,2.35,3.11,4.83,4.08,7.62,1.4,4.03,2.14,8.46,2.91,12.65.32,1.72.68,3.78,1.15,5.89l.16-26.76c-5.09-8.34-14.14-13.61-20.83-20.57-4.82-5.01-7.57-10.51-8.24-17.45-.79-8.16,1.26-16.48.8-24.77l-.36-6.43,4,5.04c2.8,3.53,5.81,6.67,9.03,9.82,2.53,2.47,5.16,4.93,7.3,7.77,1.78,2.35,3.11,4.83,4.08,7.62,1.4,4.03,2.14,8.46,2.91,12.65.37,2,.81,4.51,1.41,7.04l.17-29.42c-1.15-1.97-2.53-3.78-4.05-5.48-5.14-5.71-11.71-10-17.05-15.56-4.82-5.02-7.57-10.51-8.24-17.45-.79-8.16,1.26-16.47.8-24.77l-.36-6.43,4,5.04c2.8,3.53,5.81,6.67,9.03,9.81,2.53,2.47,5.16,4.94,7.3,7.77,1.78,2.35,3.11,4.83,4.08,7.62,1.4,4.03,2.14,8.46,2.91,12.65.42,2.25.93,5.23,1.69,8.14l.13-22.81c-3.29-7.99-9.98-17.31-10.38-25.91-.04-.79-.03-1.58.02-2.36.34-5.57,2.74-10.93,5.09-15.91,2.75-5.83,5.53-11.41,7.38-17.62l2.61-8.76,1.37,9.05c1.08,7.11,3.6,13.66,6.29,20.28,1.86,4.59,4.77,11.1,4.6,16.08-.19,5.67-1.73,9.59-4.37,14.48-2.8,5.19-4.58,8.68-4.87,14.76l.03,3.98.11,15.3c.84-3.08,1.39-6.3,1.82-8.67.77-4.19,1.52-8.62,2.91-12.65.97-2.78,2.3-5.27,4.08-7.62,2.14-2.83,4.77-5.3,7.3-7.76,3.22-3.14,6.23-6.29,9.03-9.82l4-5.04-.36,6.43c-.46,8.29,1.59,16.61.8,24.77-.67,6.94-3.43,12.44-8.24,17.45-6.86,7.14-16.21,12.5-21.22,21.23l.21,29.52c.64-2.63,1.1-5.27,1.48-7.34.77-4.19,1.52-8.62,2.91-12.65.97-2.78,2.3-5.27,4.08-7.62,2.14-2.83,4.77-5.29,7.3-7.77,3.22-3.14,6.23-6.28,9.03-9.82l4-5.04-.36,6.43c-.46,8.29,1.59,16.61.8,24.77-.67,6.94-3.43,12.44-8.24,17.45-6.71,6.98-15.79,12.26-20.87,20.64l.19,26.7c.47-2.12.83-4.19,1.15-5.91.77-4.19,1.52-8.62,2.91-12.65.96-2.79,2.3-5.27,4.08-7.62,2.14-2.83,4.77-5.29,7.3-7.77,3.22-3.14,6.23-6.28,9.03-9.81l4-5.04-.36,6.43c-.46,8.29,1.59,16.61.8,24.77-.67,6.93-3.43,12.43-8.24,17.45-6.56,6.83-15.4,12.04-20.53,20.1l.2,27.14c.31-1.53.57-3,.81-4.31.77-4.19,1.52-8.62,2.91-12.65.96-2.78,2.3-5.27,4.08-7.62,2.14-2.83,4.77-5.3,7.3-7.77,3.22-3.14,6.23-6.28,9.03-9.82l4-5.04-.36,6.42c-.46,8.3,1.59,16.61.8,24.77-.67,6.94-3.43,12.43-8.24,17.45-6.42,6.69-15.01,11.79-20.18,19.56l.19,26.21c.17-.89.32-1.75.47-2.55.77-4.19,1.52-8.62,2.91-12.65.97-2.78,2.3-5.27,4.08-7.62,2.14-2.83,4.77-5.29,7.3-7.77,3.22-3.14,6.23-6.28,9.03-9.82l4-5.04-.36,6.42c-.46,8.29,1.59,16.61.8,24.77-.67,6.94-3.43,12.44-8.24,17.45-6.29,6.55-14.62,11.56-19.83,19.05l.21,28.92c.04-.19.07-.37.1-.55.77-4.19,1.52-8.62,2.91-12.65.96-2.78,2.3-5.27,4.08-7.62,2.14-2.83,4.77-5.3,7.3-7.77,3.22-3.14,6.23-6.28,9.03-9.82l4-5.04-.36,6.42c-.46,8.3,1.59,16.61.8,24.77-.67,6.94-3.43,12.43-8.24,17.45-6.15,6.41-14.22,11.31-19.45,18.52l.2,27.33c.68-4.02,1.4-8.17,2.63-12.02,1.01-3.16,2.44-5.97,4.39-8.66,2.12-2.92,4.69-5.52,7.16-8.14,3.16-3.34,6.1-6.68,8.82-10.39l4.04-5.51-.35,6.82c-.46,9.06,1.65,18.2.77,27.12-.71,7.16-3.37,12.99-8.15,18.37-6.03,6.79-13.91,12.06-19.11,19.53l.17,23.85c.58-3.66,1.23-7.35,2.25-10.84,1.07-3.68,2.6-6.94,4.76-10.11,2.09-3.07,4.6-5.87,7.01-8.69,3.08-3.62,5.94-7.25,8.57-11.22l4.09-6.17-.34,7.4c-.85,18.53,5.85,33.77-7.32,50.19-5.89,7.34-13.95,9.93-18.8,18.51Z"/>
  <path class="cls-6" d="m780.05,546.81c-.84,18.29,5.72,33.29-6.87,49-6.06,7.56-13.98,9.47-19.25,19.27l.17,24.38h-9.04l.14-24.08c-5.03-9.6-13.59-12.01-19.65-19.56-12.6-15.7-6.03-30.71-6.87-49,9.37,14.14,16.64,17.59,20.07,29.46,2.69,9.3,3.23,22.99,6.49,31.52l.26-45.25c-5.37-8.28-13.56-13.55-19.95-20.74-12.6-14.18-6.03-27.73-6.87-44.24,9.37,12.76,16.64,15.89,20.07,26.6,2.77,8.66,3.26,21.53,6.8,29.18l.26-45.41c-5.37-7.92-13.75-12.85-20.27-19.64-12.6-13.11-6.03-25.64-6.87-40.91,9.37,11.8,16.64,14.69,20.07,24.6,2.85,8.23,3.29,20.59,7.12,27.57l.25-44.35c-5.35-8.19-13.93-13.18-20.57-20.09-12.6-13.11-6.03-25.64-6.87-40.91,9.37,11.8,16.64,14.69,20.07,24.6,2.93,8.44,3.31,21.23,7.42,28.1l.23-40.24c-5.33-8.45-14.09-13.5-20.85-20.53-12.6-13.11-6.03-25.64-6.87-40.91,9.37,11.8,16.64,14.69,20.07,24.6,2.99,8.63,3.33,21.8,7.7,28.55l.23-39.95c-5.29-8.72-14.25-13.82-21.13-20.98-12.6-13.11-6.03-25.64-6.87-40.91,9.37,11.8,16.64,14.69,20.07,24.6,3.05,8.81,3.34,22.35,7.98,28.96l.22-38.41c-5.25-9-14.4-14.15-21.4-21.43-12.6-13.11-6.03-25.65-6.87-40.91,9.37,11.8,16.64,14.69,20.07,24.6,3.11,8.98,3.35,22.87,8.25,29.33l.23-40.27c-1.3-2.33-2.86-4.4-4.58-6.31-5.16-5.74-11.76-10.05-17.1-15.61-12.6-13.11-6.03-25.65-6.87-40.91,9.37,11.8,16.64,14.69,20.07,24.6,3.17,9.15,3.36,23.39,8.53,29.69l.19-32.78c-3-7.49-10.01-17.64-10.38-25.62-.5-10.75,8.05-20.63,12.4-35.21,2.34,15.44,11.14,27.88,10.87,35.98-.44,12.87-8.61,15.68-9.24,29.27l.03,4.07h0s0,0,0,0l.18,24.44c5.3-6.22,5.46-20.62,8.66-29.85,3.43-9.91,10.71-12.79,20.07-24.6-.84,15.26,5.72,27.8-6.87,40.91-7.17,7.46-16.61,12.69-21.79,22.12l.29,40.14c4.95-6.43,5.18-20.39,8.3-29.41,3.43-9.91,10.71-12.79,20.07-24.6-.84,15.26,5.72,27.8-6.87,40.91-7.01,7.3-16.2,12.46-21.44,21.51l.28,38.32c4.63-6.62,4.92-20.15,7.97-28.95,3.43-9.91,10.71-12.79,20.07-24.6-.84,15.27,5.72,27.8-6.87,40.91-6.87,7.15-15.81,12.24-21.11,20.94l.29,39.86c4.3-6.79,4.64-19.85,7.62-28.43,3.43-9.91,10.71-12.79,20.07-24.6-.84,15.27,5.72,27.8-6.87,40.91-6.72,6.99-15.43,12.02-20.76,20.38l.29,40.13c3.97-6.93,4.38-19.51,7.27-27.85,3.43-9.91,10.71-12.79,20.07-24.6-.84,15.27,5.72,27.8-6.87,40.91-6.57,6.84-15.05,11.8-20.41,19.85l.32,44.17c3.62-7.05,4.1-19.08,6.89-27.15,3.43-9.91,10.71-12.8,20.07-24.6-.84,15.27,5.72,27.8-6.87,40.91-6.42,6.69-14.66,11.57-20.03,19.29l.33,45.08c3.27-7.71,3.81-20.09,6.5-28.5,3.43-10.71,10.71-13.83,20.07-26.6-.84,16.51,5.72,30.06-6.87,44.24-6.26,7.05-14.26,12.26-19.63,20.26l.32,44.68c2.93-8.58,3.53-21.55,6.11-30.48,3.43-11.87,10.71-15.32,20.07-29.46Z"/>
  <polygon class="cls-9" points="489.37 207.54 499.04 235.78 475.72 218.12 451.18 236.76 461.29 207.38 440.29 191.77 466.63 191.77 475.49 166.08 484.14 191.77 509.98 191.77 489.37 207.54"/>
  <polygon class="cls-6" points="503.85 193.85 482.65 193.85 475.46 172.53 468.11 193.85 446.57 193.85 463.75 206.62 455.37 230.97 475.72 215.51 494.87 230.01 486.92 206.8 503.85 193.85"/>
  <path class="cls-5" d="m202.06,191.19c10.81,0,19.59-6.62,19.59-14.78s-8.77-14.78-19.59-14.78-19.59,6.62-19.59,14.78,8.77,14.78,19.59,14.78Z"/>
  <path class="cls-9" d="m202.06,190.28c5.21,0,9.91-1.59,13.31-4.14,3.32-2.51,5.38-5.95,5.38-9.73s-2.05-7.22-5.38-9.73c-3.39-2.56-8.1-4.15-13.31-4.15s-9.91,1.59-13.31,4.15c-3.32,2.5-5.38,5.95-5.38,9.73s2.06,7.22,5.38,9.73c3.39,2.56,8.1,4.14,13.31,4.14h0Zm14.39-2.71c-3.69,2.79-8.78,4.52-14.39,4.52s-10.7-1.73-14.4-4.52c-3.77-2.84-6.1-6.79-6.1-11.17s2.33-8.32,6.1-11.17c3.69-2.79,8.79-4.51,14.4-4.51s10.7,1.72,14.39,4.51c3.77,2.84,6.1,6.79,6.1,11.17s-2.33,8.33-6.1,11.17Z"/>
  <path class="cls-7" d="m205.37,174.92c3.14,4.15,3.85,5.02,7.7,10.05,6.58-6.87,8.68-9.25,13.16-13.74-3.81,11.67-1.56,30.72-16.3,34.74-8.35,7.35-11.83,14.96-20.17,22.31-2.52-7.09.96-15.23-1.56-22.31-9.15-12.27-8.86-22.99-10.3-35,7.24,1.73,12.77,9.16,19.16,12.7,1.24-4.41,6.22-5.64,8.32-8.75Z"/>
  <path class="cls-9" d="m206.08,174.38c1.81,2.4,2.88,3.78,4.34,5.68.78,1.02,1.69,2.19,2.71,3.53,2.13-2.23,3.8-3.99,5.23-5.52,2.56-2.71,4.41-4.68,7.21-7.48l1.49.91c-1.02,3.12-1.6,6.79-2.2,10.57-1.65,10.43-3.41,21.55-14.52,24.71-4.04,3.59-6.94,7.24-9.83,10.9-2.99,3.78-5.98,7.56-10.19,11.28l-1,.88-.45-1.26c-1.32-3.72-1.08-7.62-.83-11.51.23-3.67.46-7.33-.69-10.67-7.88-10.63-8.83-20.07-9.83-30.15-.17-1.65-.33-3.33-.55-5.17l-.15-1.28,1.25.3c4.61,1.1,8.46,4.33,12.26,7.51,2.07,1.73,4.12,3.45,6.22,4.75,1.01-2.26,2.92-3.65,4.77-4.98,1.28-.92,2.52-1.82,3.28-2.95l.71-1.04.76,1h0Zm2.92,6.78c-1.17-1.51-2.05-2.66-3.66-4.78-.85.92-1.89,1.67-2.96,2.44-1.87,1.35-3.82,2.76-4.47,5.09l-.31,1.09-1-.55c-2.59-1.43-4.99-3.45-7.42-5.48-3.26-2.73-6.58-5.51-10.26-6.76.14,1.26.27,2.56.4,3.85.98,9.85,1.9,19.08,9.57,29.36l.13.24c1.32,3.72,1.08,7.62.83,11.51-.2,3.23-.41,6.47.33,9.47,3.58-3.33,6.26-6.71,8.93-10.09,2.99-3.78,5.98-7.56,10.2-11.28l.36-.19c10.17-2.77,11.85-13.37,13.42-23.3.41-2.58.81-5.13,1.35-7.49-1.6,1.64-3.02,3.15-4.77,5-1.58,1.67-3.43,3.63-5.97,6.29l-.72.76-.64-.84c-1.65-2.15-2.56-3.34-3.34-4.36Z"/>
  <path class="cls-5" d="m207.47,195.34c4.78,0,8.66,4.85,8.66,10.84s-3.88,10.84-8.66,10.84-8.66-4.86-8.66-10.84,3.88-10.84,8.66-10.84Z"/>
  <path class="cls-9" d="m207.47,194.43c2.68,0,5.09,1.35,6.83,3.52,1.69,2.12,2.73,5.03,2.73,8.23s-1.04,6.11-2.73,8.23c-1.73,2.17-4.15,3.52-6.83,3.52s-5.09-1.35-6.83-3.52c-1.69-2.11-2.73-5.02-2.73-8.23s1.05-6.11,2.73-8.23c1.74-2.17,4.15-3.52,6.83-3.52h0Zm5.42,4.64c-1.4-1.75-3.32-2.84-5.42-2.84s-4.02,1.08-5.42,2.84c-1.44,1.81-2.34,4.32-2.34,7.11s.89,5.3,2.34,7.11c1.4,1.75,3.32,2.84,5.42,2.84s4.02-1.08,5.42-2.84c1.45-1.81,2.34-4.32,2.34-7.11s-.89-5.3-2.34-7.11Z"/>
  <path class="cls-7" d="m214.04,195.73c3.03,26.84-13.08,19.75-16.4,26.91-1.36,2.93,2.86,13.66-1.08,15.69,2.36.12,1.35-6.26,3.72-6.14,3.83-1.26,24.83-16.76,13.77-36.45Z"/>
  <path class="cls-9" d="m215.3,200.83c.35,14.37-6.06,16.69-11.4,18.61-2.41.87-4.56,1.65-5.45,3.56-.42.92-.11,3.15.22,5.57.14,1,.28,2.02.38,3.02.29-.2.64-.31,1.07-.32.25-.09.59-.26,1-.49,2.58-1.45,7.38-5.18,10.91-10.49,3.46-5.21,5.68-11.93,3.27-19.47h0Zm-12,16.92c5.32-1.91,11.84-4.27,9.84-21.93l1.68-.54c.91,1.63,1.62,3.23,2.13,4.8,2.72,8.25.33,15.57-3.42,21.21-3.72,5.59-8.8,9.53-11.53,11.07-.58.32-1.07.55-1.45.68l-.32.04c-.42-.02-.68,1.17-.93,2.36-.42,1.93-.84,3.87-2.78,3.78l-.37-1.7c1.82-.94,1.25-5.05.75-8.7-.37-2.69-.72-5.18-.07-6.57,1.21-2.6,3.7-3.5,6.48-4.5Z"/>
  <path class="cls-7" d="m192.65,194.13c8.34,10.43,19.84,23.28,11.06,36.05-1.86,2.7-.89,12.54,3.05,14.58-2.37.12-7.94-8.21-10.3-8.1-.09-2.22-.17-4.44-.25-6.66-.42-1.68-1.34-2.98-2.41-4.12-7.26-7.63-10.46-17.06-1.14-31.76Z"/>
  <path class="cls-9" d="m193.35,193.57l1.43,1.78c8.33,10.33,18.34,22.74,9.67,35.35-.04.06-.09.14-.13.22-.68,1.32-.81,4.01-.37,6.67.43,2.62,1.4,5.15,2.91,6.19h0c.1.07.21.13.31.18l-.37,1.7c-1.59.08-3.72-2.12-5.84-4.32-1.84-1.91-3.68-3.81-4.46-3.78l-.9.05-.04-.91-.25-6.55c-.19-.71-.48-1.35-.83-1.93-.38-.62-.84-1.18-1.34-1.7-3.75-3.95-6.46-8.38-7.02-13.76-.56-5.34,1-11.57,5.78-19.1l.67-1.06.79.99h0Zm.03,2.9l-.63-.79c-4.02,6.68-5.34,12.18-4.85,16.88.52,4.92,3.04,9.02,6.54,12.7.58.61,1.12,1.27,1.57,2,.46.75.83,1.58,1.06,2.51l.03.19.23,5.96c1.44.55,3.18,2.35,4.92,4.15l.62.64c-.31-.91-.54-1.88-.7-2.85-.49-3.01-.3-6.14.55-7.79.07-.14.16-.29.25-.42,7.91-11.5-1.64-23.35-9.59-33.2Z"/>
  <path class="cls-5" d="m191.5,204.72c7.68,0,13.9,9.34,13.9,20.86s-6.23,20.86-13.9,20.86-13.91-9.34-13.91-20.86,6.23-20.86,13.91-20.86Z"/>
  <path class="cls-9" d="m191.5,203.82c4.16,0,7.9,2.49,10.58,6.51h0c2.61,3.92,4.22,9.31,4.22,15.25s-1.61,11.33-4.22,15.24h0c-2.68,4.03-6.42,6.51-10.58,6.51s-7.9-2.49-10.58-6.51h0c-2.61-3.92-4.23-9.31-4.23-15.25s1.61-11.33,4.23-15.25h0c2.68-4.02,6.42-6.51,10.58-6.51h0Zm9.08,7.51h0c-2.35-3.53-5.56-5.71-9.08-5.71s-6.73,2.19-9.08,5.71h0c-2.42,3.63-3.92,8.67-3.92,14.25s1.5,10.62,3.92,14.25h0c2.35,3.52,5.56,5.71,9.08,5.71s6.73-2.18,9.08-5.71h0c2.42-3.63,3.92-8.67,3.92-14.25s-1.5-10.61-3.92-14.25Z"/>
  <path class="cls-7" d="m225.58,204.62c-18.85,12.62-34.33,25.62-26.33,43.2,2.15,4.72,4.59,21.93-1.73,25.2,3.79.18,2.17-10.05,5.97-9.87,6.15-2.02,29.95-29.34,22.1-58.53Z"/>
  <path class="cls-9" d="m225.01,206.08c-8.93,6.03-16.99,12.16-21.95,18.82-5.03,6.77-6.84,14.12-3,22.55,1.21,2.65,2.51,9.1,2.39,14.94.26-.09.55-.13.87-.14,3.75-1.4,13.76-11.94,19.26-26.5,3.33-8.83,4.95-19.1,2.43-29.66h0Zm-23.4,17.74c5.31-7.13,13.96-13.59,23.46-19.95l1.04-.7.33,1.21c3.07,11.4,1.4,22.52-2.18,31.99-5.75,15.24-16.58,26.33-20.51,27.63l-.32.04c-.49-.02-.85.35-1.14.96-.23,2.18-.71,4.19-1.54,5.78-.56,1.82-1.43,3.21-3.29,3.12l-.37-1.7c.81-.42,1.45-1.12,1.96-2.03.21-.69.38-1.49.56-2.29.26-1.2.52-2.39.92-3.37.02-.22.04-.44.05-.66.41-5.94-.92-12.96-2.16-15.68-4.16-9.14-2.23-17.08,3.19-24.36Z"/>
  <path class="cls-7" d="m178.6,216.24c9.02,19.31,34.32,26.04,25.3,45.83-2.15,4.72-3.56,19.3,2.76,22.57-3.79.19-7.39-11.25-11.19-11.06-.13-3.56-.27-7.13-.41-10.69-.68-2.7-2.14-4.79-3.88-6.61-11.65-12.25-17.24-22.79-12.6-40.04Z"/>
  <path class="cls-9" d="m179.41,215.86c3.36,7.18,9.08,12.65,14.38,17.71,8.98,8.57,16.78,16.03,10.92,28.87-1.2,2.65-2.16,8.56-1.54,13.67.43,3.48,1.58,6.53,3.9,7.73l-.37,1.7c-2.41.12-4.4-2.91-6.39-5.94-1.7-2.59-3.41-5.19-4.8-5.12l-.91.05-.03-.91-.4-10.59c-.31-1.22-.81-2.31-1.42-3.3h0c-.63-1.03-1.39-1.96-2.21-2.83-5.9-6.21-10.28-12-12.6-18.46-2.34-6.5-2.59-13.61-.21-22.43l1.68-.14h0Zm13.14,19.01c-4.87-4.66-10.1-9.65-13.65-16.07-1.64,7.37-1.27,13.45.74,19.02,2.23,6.18,6.47,11.78,12.22,17.83.9.95,1.74,1.98,2.45,3.12h0c.71,1.16,1.29,2.44,1.65,3.89l.03.19.37,9.93c1.99.55,3.71,3.14,5.42,5.75-.16-.71-.29-1.45-.38-2.2-.66-5.42.38-11.76,1.69-14.64,5.33-11.68-2.05-18.72-10.53-26.82Z"/>
  <path class="cls-5" d="m211.39,254.66c8.23,0,14.91,10.84,14.91,24.22s-6.68,24.22-14.91,24.22-14.92-10.84-14.92-24.22,6.68-24.22,14.92-24.22Z"/>
  <path class="cls-9" d="m211.39,253.75c4.45,0,8.45,2.88,11.31,7.53,2.78,4.52,4.51,10.74,4.51,17.6s-1.72,13.08-4.51,17.6c-2.86,4.64-6.86,7.52-11.31,7.52s-8.45-2.88-11.31-7.52c-2.79-4.52-4.51-10.75-4.51-17.6s1.72-13.08,4.51-17.6c2.86-4.65,6.86-7.53,11.31-7.53h0Zm9.78,8.47c-2.53-4.12-5.99-6.66-9.78-6.66s-7.25,2.55-9.78,6.66c-2.61,4.25-4.23,10.14-4.23,16.66s1.62,12.41,4.23,16.65c2.53,4.11,6,6.66,9.78,6.66s7.24-2.55,9.78-6.66c2.61-4.25,4.23-10.13,4.23-16.65s-1.62-12.41-4.23-16.66Z"/>
  <path class="cls-7" d="m222.68,260.79c5.22,46.23-22.53,34.02-28.24,46.33-2.35,5.05,4.92,23.53-1.86,27.03,4.07.2,2.33-10.78,6.4-10.58,6.59-2.17,42.75-28.87,23.7-62.78Z"/>
  <path class="cls-9" d="m224.02,265.5c1.95,27.98-9.53,32.12-19,35.53-4.28,1.54-8.12,2.93-9.76,6.48-.81,1.75-.26,5.68.33,9.95.31,2.2.62,4.49.77,6.68.56-.88,1.33-1.45,2.47-1.46.49-.17,1.14-.49,1.93-.93,4.49-2.53,12.86-9.03,19.01-18.26,6.11-9.18,10-21.07,5.62-34.4-.39-1.18-.84-2.38-1.37-3.58h0Zm-19.6,33.84c9.38-3.38,20.87-7.52,17.37-38.45l1.68-.54c1.56,2.77,2.75,5.5,3.63,8.16,4.6,13.97.55,26.38-5.83,35.96-6.33,9.52-14.98,16.23-19.63,18.85-.96.54-1.78.92-2.38,1.11l-.32.04c-1.27-.06-1.77,2.26-2.28,4.58-.67,3.07-1.33,6.13-4.13,6l-.37-1.7c3.55-1.84,2.53-9.15,1.63-15.66-.63-4.54-1.21-8.73-.18-10.95,1.96-4.23,6.13-5.73,10.79-7.41Z"/>
  <path class="cls-7" d="m185.86,258.04c14.36,17.96,34.17,40.09,19.05,62.09-3.2,4.65-1.54,21.61,5.24,25.11-4.07.2-13.66-14.14-17.74-13.95-.14-3.82-.29-7.64-.44-11.47-.72-2.89-2.3-5.14-4.16-7.08-12.49-13.15-18-29.39-1.96-54.7Z"/>
  <path class="cls-9" d="m186.56,257.48c.5.62,1.48,1.84,2.47,3.07,14.2,17.61,31.27,38.78,16.62,60.1-.09.13-.18.29-.27.45-1.24,2.4-1.47,7.18-.7,11.89.77,4.67,2.53,9.19,5.29,11.09h0c.18.13.38.25.6.36l-.37,1.7c-2.44.12-6-3.57-9.56-7.25-3.27-3.39-6.55-6.78-8.18-6.7l-.91.04-.04-.91-.43-11.36c-.34-1.32-.87-2.49-1.53-3.56-.68-1.11-1.5-2.11-2.39-3.04-6.37-6.7-10.96-14.22-11.92-23.32-.95-9.06,1.72-19.64,9.86-32.48l.68-1.07.79.98h0Zm1.07,4.19c-.51-.62-1-1.24-1.68-2.08-7.38,11.98-9.8,21.85-8.92,30.27.91,8.64,5.32,15.82,11.44,22.26.97,1.02,1.87,2.12,2.62,3.34.76,1.24,1.38,2.61,1.76,4.15l.03.19.41,10.71c2.37.64,5.51,3.89,8.64,7.14,1.15,1.19,2.3,2.38,3.37,3.42-1.15-2.28-1.95-5.01-2.4-7.78-.83-5.05-.53-10.29.88-13,.12-.23.25-.45.39-.65,13.9-20.21-2.72-40.81-16.54-57.95Z"/>
  <path class="cls-5" d="m189.36,306.48c9.24,0,16.73,11.24,16.73,25.09s-7.49,25.09-16.73,25.09-16.73-11.24-16.73-25.09,7.49-25.09,16.73-25.09Z"/>
  <path class="cls-9" d="m189.36,305.58c4.94,0,9.39,2.96,12.58,7.75,3.12,4.68,5.05,11.13,5.05,18.24s-1.93,13.56-5.05,18.24h0c-3.19,4.79-7.64,7.75-12.58,7.75s-9.38-2.96-12.57-7.75h0c-3.12-4.68-5.05-11.13-5.05-18.24s1.93-13.55,5.05-18.24h0c3.2-4.79,7.64-7.75,12.58-7.75h0Zm11.08,8.75c-2.86-4.29-6.78-6.94-11.08-6.94s-8.21,2.66-11.07,6.95h0c-2.93,4.4-4.75,10.49-4.75,17.24s1.82,12.84,4.75,17.24h0c2.86,4.29,6.78,6.95,11.07,6.95s8.22-2.65,11.08-6.94h0c2.93-4.4,4.75-10.49,4.75-17.24s-1.81-12.84-4.75-17.24Z"/>
  <path class="cls-7" d="m230.35,306.36c-22.67,15.18-41.3,30.82-31.67,51.96,2.59,5.68,5.52,26.38-2.09,30.31,4.57.22,2.61-12.09,7.18-11.87,7.4-2.44,36.03-35.29,26.58-70.4Z"/>
  <path class="cls-9" d="m229.79,307.82c-10.84,7.31-20.66,14.74-26.67,22.83-6.09,8.19-8.28,17.09-3.63,27.3,1.46,3.22,3.04,11.1,2.85,18.18.37-.17.79-.26,1.27-.27,4.53-1.65,16.66-14.4,23.31-32,4.05-10.72,6-23.21,2.87-36.05h0Zm-28.11,21.75c6.36-8.55,16.77-16.32,28.17-23.96l1.05-.7.32,1.21c3.68,13.67,1.68,27-2.61,38.37-6.9,18.28-19.86,31.58-24.55,33.12l-.33.04c-.68-.03-1.17.48-1.56,1.3-.28,2.62-.85,5.03-1.85,6.94-.66,2.13-1.66,3.73-3.77,3.62l-.37-1.7c1.01-.52,1.81-1.4,2.44-2.53.26-.84.47-1.81.68-2.79.31-1.44.62-2.88,1.11-4.05.02-.27.05-.55.07-.83.49-7.18-1.12-15.66-2.61-18.94-4.98-10.92-2.66-20.41,3.82-29.12Z"/>
  <path class="cls-7" d="m173.84,320.33c10.85,23.22,41.29,31.32,30.44,55.12-2.59,5.68-4.29,23.22,3.32,27.14-4.57.22-8.89-13.53-13.45-13.3-.16-4.29-.33-8.58-.49-12.86-.81-3.25-2.59-5.76-4.66-7.95-14.01-14.74-20.74-27.42-15.16-48.16Z"/>
  <path class="cls-9" d="m174.66,319.95c4.05,8.67,10.95,15.26,17.33,21.36,10.75,10.26,20.1,19.19,13.11,34.52-1.46,3.21-2.62,10.36-1.87,16.54.52,4.23,1.94,7.96,4.79,9.43l-.37,1.7c-2.79.14-5.16-3.46-7.52-7.06-2.08-3.17-4.16-6.33-5.93-6.24l-.9.04-.04-.91-.48-12.76c-.38-1.49-.98-2.83-1.73-4.04h0c-.77-1.25-1.69-2.38-2.69-3.43-7.08-7.45-12.33-14.4-15.12-22.14-2.8-7.78-3.09-16.31-.25-26.86l1.69-.15h0Zm16.09,22.66c-5.97-5.69-12.36-11.81-16.62-19.71-2.1,9.11-1.68,16.6.79,23.45,2.68,7.46,7.8,14.22,14.73,21.51,1.08,1.14,2.08,2.36,2.92,3.73h0c.85,1.39,1.53,2.91,1.96,4.62l.03.18.46,12.08c2.41.57,4.51,3.77,6.61,6.97l.53.81c-.32-1.16-.56-2.4-.72-3.68-.8-6.49.46-14.08,2.02-17.51,6.46-14.17-2.46-22.68-12.71-32.47Z"/>
  <path class="cls-5" d="m212.68,361.88c9.38,0,16.98,12.35,16.98,27.58s-7.61,27.58-16.98,27.58-16.98-12.35-16.98-27.58,7.6-27.58,16.98-27.58Z"/>
  <path class="cls-9" d="m212.68,360.98c5.02,0,9.54,3.25,12.77,8.51,3.16,5.13,5.11,12.2,5.11,19.98s-1.96,14.84-5.11,19.98c-3.24,5.26-7.75,8.51-12.77,8.51s-9.53-3.25-12.77-8.51c-3.15-5.13-5.11-12.2-5.11-19.98s1.96-14.85,5.11-19.98c3.24-5.26,7.75-8.51,12.77-8.51h0Zm11.24,9.46c-2.91-4.73-6.89-7.65-11.24-7.65s-8.34,2.92-11.24,7.65c-2.99,4.85-4.84,11.58-4.84,19.03s1.85,14.18,4.84,19.03c2.91,4.73,6.89,7.65,11.24,7.65s8.34-2.92,11.24-7.65c2.99-4.85,4.84-11.58,4.84-19.03s-1.85-14.18-4.84-19.03Z"/>
  <path class="cls-7" d="m225.55,368.87c5.95,52.64-25.65,38.74-32.16,52.76-2.67,5.75,5.61,26.8-2.12,30.78,4.64.22,2.65-12.27,7.29-12.05,7.51-2.47,48.68-32.87,26.99-71.49Z"/>
  <path class="cls-9" d="m226.89,373.52c2.46,32.42-10.68,37.16-21.5,41.05-4.9,1.77-9.29,3.35-11.19,7.44-.94,2.02-.32,6.52.36,11.4.37,2.65.75,5.41.91,8,.63-1.18,1.53-1.95,2.93-1.95.56-.2,1.32-.56,2.23-1.08,5.13-2.88,14.68-10.3,21.69-20.84,6.98-10.48,11.42-24.05,6.41-39.27-.52-1.57-1.13-3.15-1.85-4.76h0Zm-22.11,39.36c10.72-3.86,23.85-8.6,19.87-43.91l1.68-.54c1.77,3.15,3.13,6.25,4.13,9.28,5.22,15.86.62,29.96-6.62,40.83-7.2,10.82-17.03,18.45-22.31,21.42-1.09.61-2.01,1.04-2.69,1.26l-.32.04c-1.55-.08-2.14,2.62-2.72,5.31-.74,3.44-1.49,6.89-4.57,6.73l-.37-1.7c4.12-2.13,2.96-10.5,1.93-17.96-.72-5.16-1.37-9.9-.21-12.4,2.21-4.77,6.94-6.48,12.22-8.38Z"/>
  <path class="cls-7" d="m183.61,365.74c16.36,20.45,38.91,45.66,21.69,70.71-3.64,5.3-1.75,24.6,5.97,28.59-4.63.23-15.56-16.1-20.2-15.88-.16-4.36-.33-8.71-.49-13.06-.83-3.29-2.63-5.85-4.73-8.07-14.23-14.96-20.5-33.47-2.24-62.29Z"/>
  <path class="cls-9" d="m184.31,365.18c.63.79,1.71,2.13,2.81,3.49,16.15,20.02,35.55,44.09,18.92,68.29-.11.16-.21.33-.32.53-1.42,2.75-1.7,8.23-.81,13.62.88,5.35,2.9,10.54,6.07,12.72h0c.22.15.45.29.7.41l-.37,1.7c-2.73.13-6.76-4.04-10.79-8.22-3.75-3.88-7.5-7.76-9.41-7.67l-.91.04-.03-.91-.49-12.95c-.39-1.52-1-2.87-1.76-4.11h0c-.78-1.27-1.72-2.42-2.73-3.49-7.24-7.62-12.46-16.15-13.55-26.48-1.08-10.29,1.95-22.32,11.2-36.91l.67-1.06.79.98h0Zm1.41,4.62c-.61-.76-1.23-1.52-2.02-2.51-8.49,13.74-11.28,25.04-10.27,34.69,1.04,9.87,6.07,18.07,13.06,25.42,1.1,1.15,2.11,2.39,2.96,3.78h0c.86,1.4,1.56,2.95,1.99,4.69l.03.18.47,12.29c2.67.65,6.27,4.38,9.88,8.11,1.5,1.56,3.01,3.12,4.39,4.41-1.49-2.7-2.51-6.07-3.08-9.49-.94-5.73-.6-11.66.99-14.73.13-.26.28-.5.43-.73,15.88-23.09-3.07-46.59-18.84-66.14Z"/>
  <path class="cls-5" d="m188.92,424.54c9.56,0,17.31,11.62,17.31,25.96s-7.75,25.96-17.31,25.96-17.3-11.63-17.3-25.96,7.75-25.96,17.3-25.96Z"/>
  <path class="cls-9" d="m188.92,423.64c5.1,0,9.69,3.06,12.99,8.01h0c3.23,4.84,5.22,11.51,5.22,18.85s-2,14.02-5.22,18.86c-3.3,4.95-7.89,8-12.99,8s-9.68-3.06-12.98-8h0c-3.23-4.84-5.22-11.51-5.22-18.86s2-14.01,5.22-18.85h0c3.3-4.95,7.88-8.01,12.98-8.01h0Zm11.49,9.01h0c-2.97-4.45-7.03-7.2-11.49-7.2s-8.52,2.75-11.48,7.2h0c-3.04,4.56-4.92,10.86-4.92,17.85s1.88,13.3,4.92,17.86h0c2.97,4.45,7.03,7.2,11.49,7.2s8.52-2.75,11.49-7.2c3.04-4.56,4.92-10.87,4.92-17.86s-1.88-13.3-4.92-17.85Z"/>
  <path class="cls-7" d="m231.33,424.42c-23.45,15.71-42.73,31.89-32.77,53.76,2.68,5.88,5.71,27.3-2.16,31.37,4.73.23,2.7-12.51,7.43-12.28,7.65-2.51,37.28-36.52,27.5-72.85Z"/>
  <path class="cls-9" d="m230.77,425.88c-11.24,7.58-21.4,15.27-27.64,23.65-6.31,8.48-8.58,17.7-3.76,28.28,1.52,3.34,3.15,11.52,2.94,18.85.39-.19.84-.29,1.35-.29,4.68-1.7,17.26-14.91,24.13-33.13,4.19-11.11,6.22-24.06,2.96-37.36h0Zm-29.08,22.57c6.58-8.84,17.34-16.88,29.14-24.78l1.05-.7.33,1.21c3.81,14.14,1.73,27.93-2.7,39.68-7.14,18.91-20.53,32.66-25.39,34.26l-.32.04c-.72-.04-1.24.51-1.65,1.37-.28,2.71-.88,5.2-1.91,7.18-.68,2.19-1.71,3.83-3.87,3.73l-.37-1.7c1.05-.54,1.89-1.46,2.54-2.64.27-.87.49-1.88.71-2.89.32-1.49.64-2.97,1.15-4.18.03-.29.05-.58.07-.87.51-7.43-1.16-16.21-2.7-19.61-5.14-11.29-2.75-21.1,3.95-30.1Z"/>
  <path class="cls-7" d="m172.86,438.88c11.23,24.03,42.72,32.41,31.49,57.04-2.68,5.87-4.43,24.02,3.44,28.09-4.73.23-9.2-14-13.92-13.77-.17-4.44-.34-8.87-.51-13.31-.84-3.35-2.68-5.96-4.82-8.22-14.5-15.25-21.46-28.37-15.68-49.83Z"/>
  <path class="cls-9" d="m173.68,438.5c4.2,8.98,11.34,15.79,17.94,22.11,11.11,10.61,20.78,19.84,13.55,35.68-1.51,3.32-2.72,10.74-1.94,17.13.54,4.39,2.01,8.26,4.97,9.78l-.37,1.7c-2.88.14-5.32-3.58-7.75-7.29-2.16-3.28-4.31-6.56-6.16-6.47l-.91.04-.03-.91-.51-13.2c-.4-1.55-1.02-2.93-1.79-4.19-.8-1.3-1.76-2.47-2.79-3.55-7.33-7.71-12.75-14.89-15.64-22.9-2.89-8.04-3.2-16.86-.26-27.78l1.68-.15h0Zm16.71,23.41c-6.19-5.91-12.83-12.25-17.23-20.46-2.2,9.47-1.76,17.25.8,24.37,2.78,7.73,8.08,14.73,15.25,22.27,1.12,1.18,2.16,2.44,3.02,3.85.88,1.43,1.58,3,2.02,4.78l.03.19.48,12.52c2.49.57,4.66,3.89,6.84,7.2l.66,1c-.37-1.26-.63-2.6-.8-3.99-.82-6.71.47-14.55,2.09-18.1,6.69-14.68-2.54-23.49-13.16-33.63Z"/>
  <path class="cls-5" d="m212.89,487.97c9.55,0,17.3,12.58,17.3,28.1s-7.75,28.1-17.3,28.1-17.31-12.59-17.31-28.1,7.75-28.1,17.31-28.1Z"/>
  <path class="cls-9" d="m212.89,487.06c5.11,0,9.71,3.31,13,8.66,3.22,5.22,5.21,12.42,5.21,20.34s-1.99,15.12-5.21,20.34c-3.29,5.35-7.89,8.66-13,8.66s-9.71-3.31-13-8.66c-3.22-5.22-5.21-12.42-5.21-20.34s1.99-15.12,5.21-20.34c3.3-5.35,7.89-8.66,13-8.66h0Zm11.47,9.61c-2.97-4.82-7.03-7.8-11.47-7.8s-8.51,2.98-11.47,7.8c-3.05,4.95-4.93,11.8-4.93,19.4s1.89,14.45,4.93,19.4c2.97,4.82,7.03,7.8,11.47,7.8s8.5-2.98,11.47-7.8c3.05-4.95,4.93-11.81,4.93-19.4s-1.89-14.45-4.93-19.4Z"/>
  <path class="cls-7" d="m225.99,495.09c6.06,53.64-26.14,39.47-32.77,53.76-2.72,5.86,5.71,27.3-2.16,31.36,4.73.23,2.7-12.51,7.43-12.28,7.65-2.52,49.6-33.5,27.5-72.85Z"/>
  <path class="cls-9" d="m227.34,499.73c2.54,33.1-10.86,37.94-21.89,41.91-5,1.8-9.47,3.41-11.41,7.59-.96,2.06-.32,6.65.37,11.63.38,2.72.77,5.55.93,8.22.65-1.22,1.56-2.04,3.01-2.03.57-.21,1.35-.57,2.28-1.1,5.23-2.94,14.96-10.5,22.11-21.24,7.11-10.68,11.64-24.52,6.53-40.04-.53-1.62-1.17-3.27-1.93-4.93h0Zm-22.49,40.22c10.93-3.94,24.32-8.77,20.25-44.76l1.68-.54c1.8,3.21,3.18,6.36,4.2,9.45,5.32,16.16.63,30.52-6.74,41.59-7.33,11.02-17.34,18.79-22.73,21.81-1.11.63-2.04,1.06-2.73,1.28l-.32.04c-1.6-.08-2.19,2.68-2.79,5.43-.76,3.5-1.51,7-4.63,6.85l-.37-1.7c4.21-2.17,3.03-10.71,1.97-18.31-.73-5.25-1.4-10.09-.22-12.63,2.25-4.85,7.07-6.59,12.44-8.52Z"/>
  <path class="cls-7" d="m183.26,491.89c16.67,20.84,39.65,46.52,22.1,72.05-3.71,5.4-1.79,25.07,6.08,29.13-4.72.23-15.85-16.41-20.58-16.18-.17-4.43-.34-8.87-.51-13.31-.84-3.36-2.67-5.97-4.82-8.22-14.49-15.25-20.89-34.1-2.28-63.47Z"/>
  <path class="cls-9" d="m183.96,491.33c.62.78,1.74,2.16,2.87,3.56,16.45,20.4,36.22,44.91,19.27,69.56-.11.16-.22.34-.32.54-1.45,2.81-1.73,8.4-.83,13.89.9,5.45,2.96,10.74,6.19,12.96h0c.23.16.47.3.71.43l-.37,1.7c-2.77.13-6.87-4.12-10.98-8.37-3.82-3.96-7.64-7.91-9.6-7.82l-.91.04-.04-.91-.5-13.2c-.4-1.55-1.02-2.93-1.8-4.19h0c-.79-1.3-1.75-2.46-2.78-3.55-7.38-7.75-12.69-16.45-13.8-26.97-1.11-10.48,1.99-22.73,11.41-37.6l.67-1.06.79.98h0Zm1.46,4.69c-.62-.77-1.25-1.54-2.07-2.57-8.66,14.01-11.51,25.54-10.48,35.38,1.06,10.06,6.19,18.42,13.31,25.91,1.11,1.17,2.15,2.44,3.02,3.85h0c.88,1.42,1.58,3,2.02,4.78l.03.18.48,12.54c2.71.66,6.39,4.46,10.07,8.27,1.56,1.61,3.12,3.23,4.56,4.57-1.55-2.77-2.61-6.24-3.19-9.76-.96-5.84-.61-11.87,1-15,.13-.26.28-.51.44-.74,16.18-23.54-3.13-47.48-19.19-67.41Z"/>
  <path class="cls-5" d="m188.92,560.71c9.56,0,17.31,11.62,17.31,25.96s-7.75,25.96-17.31,25.96-17.3-11.63-17.3-25.96,7.75-25.96,17.3-25.96Z"/>
  <path class="cls-9" d="m188.92,559.81c5.1,0,9.69,3.06,12.99,8.01h0c3.23,4.84,5.22,11.51,5.22,18.85s-2,14.02-5.22,18.86c-3.3,4.95-7.89,8.01-12.99,8.01s-9.68-3.06-12.98-8.01h0c-3.23-4.84-5.22-11.51-5.22-18.86s2-14.01,5.22-18.85h0c3.3-4.95,7.88-8.01,12.98-8.01h0Zm11.49,9.01h0c-2.97-4.45-7.03-7.2-11.49-7.2s-8.52,2.75-11.48,7.2h0c-3.04,4.56-4.92,10.87-4.92,17.85s1.88,13.3,4.92,17.86h0c2.97,4.45,7.03,7.2,11.49,7.2s8.52-2.75,11.49-7.2c3.04-4.56,4.92-10.87,4.92-17.86s-1.88-13.3-4.92-17.85Z"/>
  <path class="cls-7" d="m231.33,560.59c-23.45,15.71-42.73,31.89-32.77,53.76,1.97,4.32,4.13,17.05,2.01,25.11h-.42c.66-3.09,1.35-6.13,3.69-6.02,7.65-2.52,37.28-36.51,27.5-72.85Z"/>
  <path class="cls-9" d="m230.77,562.05c-11.24,7.58-21.4,15.27-27.64,23.65-6.31,8.48-8.58,17.7-3.76,28.28,1.14,2.51,2.35,7.72,2.79,13.24.15,1.86.21,3.77.16,5.62.4-.2.84-.3,1.35-.31,4.68-1.71,17.26-14.91,24.13-33.13,4.19-11.11,6.22-24.06,2.96-37.36h0Zm-29.08,22.57c6.58-8.84,17.34-16.88,29.14-24.78l1.05-.7.33,1.21c3.81,14.14,1.73,27.93-2.7,39.68-7.14,18.91-20.53,32.66-25.39,34.26l-.32.04c-.72-.04-1.22.49-1.61,1.3l-.03.07c-.15,1.4-.37,2.74-.7,3.98l-.18.67h-2.24l.24-1.1c.31-1.43.62-2.86,1.12-4.02.24-2.51.21-5.23,0-7.88-.42-5.32-1.56-10.29-2.62-12.63-5.14-11.3-2.75-21.1,3.95-30.1Z"/>
  <path class="cls-7" d="m172.86,575.05c11.23,24.03,42.72,32.41,31.49,57.04-.76,1.67-1.45,4.33-1.86,7.37h-8.89l-.24-6.36c-.84-3.35-2.68-5.96-4.82-8.22-14.5-15.25-21.46-28.37-15.68-49.83Z"/>
  <path class="cls-9" d="m173.68,574.67c4.2,8.98,11.34,15.8,17.94,22.11,11.11,10.61,20.78,19.84,13.55,35.68-.36.79-.71,1.84-1.01,3.06-.31,1.22-.57,2.6-.77,4.06l-.11.78h-10.54l-.03-.87-.24-6.26c-.4-1.55-1.02-2.93-1.79-4.19h0c-.79-1.29-1.75-2.46-2.79-3.55-7.33-7.71-12.75-14.89-15.64-22.9-2.89-8.04-3.2-16.86-.26-27.78l1.68-.15h0Zm16.71,23.41c-6.19-5.91-12.83-12.25-17.23-20.46-2.2,9.47-1.76,17.25.8,24.37,2.78,7.73,8.08,14.73,15.25,22.27,1.11,1.17,2.15,2.44,3.02,3.85h0c.88,1.42,1.58,3,2.02,4.77l.03.19.19,6.39h7.25c.19-1.25.45-3.33.71-4.38.33-1.32.72-2.47,1.13-3.37,6.69-14.68-2.54-23.49-13.16-33.63Z"/>
</svg>