<svg width="125" height="125" viewBox="0 0 125 125" fill="none" xmlns="http://www.w3.org/2000/svg">
<path fill-rule="evenodd" clip-rule="evenodd" d="M110.062 92.5605L62.1762 123.093L61.867 123.289L61.5618 123.091L14.9723 92.8053L14.7104 92.6355V92.3184V2.375V1.79474H15.2828H109.758H110.332V2.375V92.0711V92.3895L110.062 92.5605Z" fill="black"/>
<path fill-rule="evenodd" clip-rule="evenodd" d="M61.8751 121.918L109.183 91.7539V2.95526H15.854V92.0026L61.8751 121.918Z" fill="white"/>
<path d="M90.2065 19.075H35.0012V85.3079H90.2065V19.075Z" fill="url(#paint0_linear_463_2378)"/>
<path fill-rule="evenodd" clip-rule="evenodd" d="M35.0012 65.1079H54.0328L62.6052 64.8618L69.917 65.1079H90.2078V74.1342H35.0012V65.1079Z" fill="#009844"/>
<path fill-rule="evenodd" clip-rule="evenodd" d="M35.0013 66.2777C35.3263 66.5066 35.7711 66.7369 36.65 66.7369C37.9776 66.1619 38.7579 65.7013 40.1789 65.7013C40.9474 65.7013 41.4474 66.3119 41.8737 66.7369C42.9711 66.3342 43.7671 65.9369 44.8842 65.9369C45.3 65.9369 45.4329 66.1079 45.825 66.2658C46.4566 66.5211 47.2671 66.5487 47.9421 66.5487C48.6763 66.2329 49.2066 65.8829 49.9658 65.9369C50.4526 65.9724 50.5303 66.4198 50.8592 66.5013C51.8776 66.1513 52.8434 65.5777 53.9171 65.7013C54.2197 65.7356 55.0342 66.1119 55.2816 66.3132C55.5868 66.5619 56.0237 66.5013 56.4579 66.5013C56.821 66.2763 57.5158 65.7013 58.0105 65.7013C58.4026 65.7013 58.7895 66.1737 59.2579 66.3224C59.2197 66.3698 59.1842 66.4132 59.1513 66.454C59.3368 66.454 59.5184 66.4198 59.6987 66.3803C60.0737 66.3869 60.4474 66.3158 60.7395 66.2198C61.3447 66.0658 61.9763 65.8829 62.6039 65.7934C63.2316 65.8829 63.8632 66.0658 64.4684 66.2198C64.7605 66.3171 65.1329 66.3882 65.5079 66.3803C65.6882 66.4198 65.8697 66.454 66.0566 66.454C66.0224 66.4132 65.9882 66.3698 65.95 66.3224C66.4184 66.1737 66.8053 65.7013 67.1974 65.7013C67.6921 65.7013 68.3868 66.2763 68.75 66.5013C69.1842 66.5013 69.6211 66.5606 69.9263 66.3132C70.1737 66.1119 70.9882 65.7369 71.2908 65.7013C72.3645 65.5777 73.3303 66.15 74.3487 66.5013C74.6776 66.4184 74.7566 65.9711 75.2421 65.9369C76.0013 65.8829 76.5316 66.2329 77.2658 66.5487C77.9408 66.5487 78.7513 66.5224 79.3829 66.2658C79.775 66.1066 79.9079 65.9369 80.3237 65.9369C81.4421 65.9369 82.2368 66.3342 83.3342 66.7369C83.7592 66.3119 84.2605 65.7013 85.0289 65.7013C86.4487 65.7013 87.2303 66.1606 88.5579 66.7369C89.4368 66.7369 89.8803 66.5066 90.2053 66.2777V63.0079C87.3105 61.9053 84.7684 59.9553 82.2053 58.079C82.0671 57.6658 80.2092 56.6579 79.6645 56.8079C79.475 56.8605 79.0434 57.1105 78.9118 56.9487C78.5053 56.4487 77.9908 57.0342 77.5947 57.325C77.5645 57.2356 77.2803 57.2619 77.171 57.2303C76.925 57.1619 76.825 57.0421 76.5592 57.0421C76.171 57.0421 76.3697 57.0198 75.8539 57.4184C75.7921 57.2316 75.096 57.1079 74.8184 57.1369C74.55 57.1645 73.6974 57.7934 73.4539 57.9829C72.7368 58.5434 71.9303 59.1132 71.1487 59.6303C70.425 59.6303 69 61.2579 67.6671 61.3711C66.7105 61.4527 65.55 62.5921 64.6553 63.0184C63.9961 63.3316 63.3013 63.3948 62.6026 63.5474C61.9039 63.3948 61.2092 63.3316 60.55 63.0184C59.6553 62.5921 58.4961 61.454 57.5382 61.3711C56.2053 61.2566 54.7803 59.6303 54.0566 59.6303C53.275 59.1132 52.4684 58.5434 51.7513 57.9829C51.5079 57.7921 50.6539 57.1632 50.3868 57.1369C50.1105 57.1079 49.4145 57.2329 49.3513 57.4184C48.8355 57.0184 49.0342 57.0421 48.6461 57.0421C48.3803 57.0421 48.2803 57.1619 48.0342 57.2303C47.925 57.2606 47.6408 57.2356 47.6105 57.325C47.2145 57.0342 46.6987 56.4487 46.2934 56.9487C46.1618 57.1105 45.7303 56.8605 45.5408 56.8079C44.996 56.6566 43.1382 57.6658 43 58.079C40.4368 59.9553 37.8947 61.9066 35 63.0092V66.2777H35.0013Z" fill="#00A0E8"/>
<path fill-rule="evenodd" clip-rule="evenodd" d="M35.0013 66.0579C35.3131 66.2895 35.7197 66.5513 36.6144 66.5579C36.7855 66.4829 36.9631 66.404 37.1328 66.3276C38.1684 65.8632 38.9302 65.5224 40.1776 65.5224C40.9368 65.5224 41.4381 66.0369 41.8578 66.4684L41.9171 66.529C42.0907 66.4645 42.2289 66.4119 42.3618 66.3605C43.2131 66.0329 43.9302 65.7579 44.8815 65.7579C45.2078 65.7579 45.3776 65.8474 45.5934 65.9592C45.6776 66.0026 45.771 66.0526 45.8894 66.1C46.1881 66.2211 46.5328 66.2882 46.8828 66.325C47.2249 66.3605 47.5789 66.3684 47.9039 66.3684C48.0355 66.3105 48.1631 66.2513 48.2868 66.1934C48.8434 65.9342 49.3236 65.7105 49.9763 65.7566C50.3249 65.7816 50.4947 65.9632 50.6526 66.1329C50.721 66.2066 50.7855 66.2763 50.8578 66.3105C51.0907 66.229 51.3184 66.1369 51.5434 66.0461C52.3184 65.7342 53.0855 65.425 53.9368 65.5224C54.1013 65.5408 54.3894 65.6448 54.6684 65.7698C54.9618 65.9013 55.2539 66.0605 55.3934 66.1724C55.5973 66.3382 55.9144 66.3316 56.2407 66.3237C56.2999 66.3237 56.3605 66.3211 56.4052 66.3211C56.4697 66.279 56.5473 66.225 56.6315 66.1671C57.0289 65.8921 57.5671 65.5198 58.0092 65.5198C58.2815 65.5198 58.521 65.6816 58.7736 65.8526L59.1986 66.1079L60.4197 66.0855C60.6315 66.0855 60.8289 65.9526 61.0131 65.829C61.1999 65.7026 61.3749 65.5842 61.5842 65.5684C61.921 65.5421 62.2618 65.5632 62.6026 65.6105C62.9434 65.5632 63.2842 65.5421 63.621 65.5684C63.8302 65.5842 64.0052 65.7026 64.192 65.829C64.3749 65.9526 64.5723 66.0855 64.7842 66.0855C65.3236 66.0855 65.8684 66.2342 66.4302 65.854C66.6828 65.6829 66.9223 65.5211 67.1947 65.5211C67.6381 65.5211 68.1763 65.8934 68.5723 66.1684C68.6565 66.2263 68.7342 66.2803 68.7986 66.3224C68.8434 66.3224 68.9039 66.325 68.9631 66.325C69.2907 66.3329 69.6065 66.3395 69.8118 66.1737C69.9513 66.0619 70.2434 65.9026 70.5368 65.7711C70.8157 65.6461 71.1039 65.5421 71.2684 65.5237C72.1197 65.4263 72.8868 65.7355 73.6618 66.0474C73.8868 66.1382 74.1131 66.2303 74.3473 66.3119C74.4197 66.2776 74.4842 66.2079 74.5526 66.1342C74.7105 65.9645 74.8802 65.7829 75.2289 65.7579C75.8815 65.7119 76.3618 65.9355 76.9184 66.1948C77.0421 66.2526 77.171 66.3119 77.3013 66.3698C77.6263 66.3698 77.9802 66.3619 78.321 66.3263C78.6723 66.2895 79.017 66.2224 79.3157 66.1013C79.4342 66.054 79.5276 66.0053 79.6118 65.9605C79.8263 65.8474 79.996 65.7592 80.3236 65.7592C81.2763 65.7592 81.9934 66.0342 82.8434 66.3619C82.9763 66.4132 83.1144 66.4658 83.2881 66.5303L83.3473 66.4698C83.7671 66.0382 84.2684 65.5237 85.0276 65.5237C86.2749 65.5237 87.0355 65.8645 88.0723 66.329C88.242 66.4053 88.4197 66.4842 88.5907 66.5592C89.4855 66.5526 89.8921 66.2908 90.2039 66.0592V66.4934C89.8671 66.7132 89.4013 66.9145 88.5565 66.9145L88.4868 66.8987C88.2763 66.8079 88.0986 66.7276 87.9276 66.6513C86.9328 66.2066 86.2013 65.879 85.0276 65.879C84.4171 65.879 83.9736 66.3342 83.6013 66.7158C83.5394 66.779 83.4776 66.8421 83.4592 66.8619L83.3789 66.9421L83.2723 66.9026C83.1131 66.8448 82.9118 66.7671 82.7157 66.6921C81.8999 66.3776 81.2131 66.1145 80.3223 66.1145C80.0802 66.1145 79.946 66.1842 79.7749 66.2737C79.6815 66.3224 79.5776 66.3776 79.4473 66.4303C79.1144 66.5645 78.7381 66.6395 78.3565 66.679C77.9789 66.7184 77.6039 66.7263 77.2631 66.7263L77.1934 66.7119C77.0407 66.6461 76.9013 66.5816 76.7671 66.5184C76.2552 66.2803 75.8131 66.0737 75.2526 66.1132C75.0434 66.1276 74.9236 66.2566 74.8118 66.3763C74.6934 66.504 74.5802 66.625 74.3894 66.6724L74.2881 66.6684C74.0368 66.5816 73.7815 66.479 73.5289 66.3776C72.7973 66.0816 72.071 65.7895 71.3078 65.8777C71.1789 65.8921 70.9302 65.9842 70.6802 66.0961C70.4131 66.2158 70.1513 66.3566 70.0355 66.45C69.7289 66.6987 69.3499 66.6895 68.9552 66.6816C68.8999 66.6816 68.846 66.679 68.746 66.679L68.6526 66.6513C68.5684 66.5987 68.4736 66.5342 68.3697 66.4619C68.0118 66.2145 67.5263 65.879 67.1934 65.879C67.0289 65.879 66.8342 66.0105 66.6276 66.15C65.8289 66.6908 65.4789 66.7369 64.421 66.3895C64.3394 66.3684 64.1986 66.3316 64.0552 66.2948C63.5763 66.1698 63.0855 66.0421 62.5999 65.9711C62.1144 66.0421 61.6236 66.1711 61.1447 66.2948C61.0026 66.3316 60.8605 66.3684 60.7789 66.3895C60.5749 66.4566 60.3355 66.5119 60.0842 66.5382C59.9631 66.5513 59.8381 66.5579 59.7131 66.5566C58.6697 66.7829 58.8052 65.8777 58.0078 65.8777C57.6749 65.8777 57.1894 66.2132 56.8315 66.4605C56.7276 66.5329 56.6328 66.5974 56.5486 66.65L56.4552 66.6776C56.3552 66.6776 56.3013 66.679 56.246 66.6803C55.8526 66.6895 55.4736 66.6974 55.167 66.4487C55.0513 66.3553 54.7894 66.2145 54.5223 66.0948C54.2723 65.9829 54.0236 65.8908 53.8947 65.8763C53.1315 65.7895 52.4065 66.0816 51.6736 66.3763C51.4197 66.4776 51.1657 66.5816 50.9144 66.6671L50.8131 66.6711C50.621 66.6237 50.5092 66.5027 50.3894 66.375C50.2776 66.2553 50.1578 66.1263 49.9499 66.1119C49.3894 66.0724 48.9486 66.2776 48.4355 66.5171C48.3013 66.5803 48.1618 66.6448 48.0092 66.7105L47.9394 66.725C47.5986 66.725 47.2236 66.7184 46.846 66.6776C46.4644 66.6369 46.0881 66.5632 45.7552 66.429C45.6249 66.3763 45.521 66.3224 45.4276 66.2724C45.2578 66.1829 45.1223 66.1132 44.8802 66.1132C43.9894 66.1132 43.3026 66.3776 42.4868 66.6908C42.2907 66.7658 42.0894 66.8434 41.9302 66.9013L41.8236 66.9408L41.7434 66.8605C41.7249 66.8421 41.6631 66.779 41.6013 66.7145C41.2289 66.3329 40.7855 65.8777 40.1749 65.8777C39.0013 65.8777 38.2697 66.2053 37.2749 66.65C37.1039 66.7263 36.9263 66.8066 36.7157 66.8974L36.646 66.9132C35.8013 66.9132 35.3355 66.7119 34.9973 66.4921V66.0579H35.0013ZM90.2065 63.2C87.4842 62.1763 85.0789 60.4092 82.6789 58.6461C82.4868 58.5053 82.2934 58.3632 82.1013 58.2224L82.0381 58.1342C81.9802 57.9619 81.471 57.6211 80.925 57.3474C80.4328 57.1013 79.9263 56.9197 79.7131 56.9803C79.6749 56.9908 79.6157 57.0145 79.5513 57.0408C79.2907 57.1474 78.9565 57.2842 78.7763 57.0619C78.5499 56.7829 78.2065 57.0619 77.9118 57.3026C77.8381 57.3619 77.7684 57.4197 77.7013 57.4697L77.5052 57.6132L77.4289 57.3816C77.4105 57.3263 77.3776 57.4316 77.3157 57.4276C77.246 57.4224 77.1815 57.4184 77.1249 57.4026C77.0197 57.3737 76.9407 57.3369 76.8657 57.3026C76.7723 57.2592 76.6881 57.2211 76.5605 57.2211H76.5013C76.4065 57.2211 76.3697 57.2211 76.3605 57.225C76.3499 57.2303 76.3249 57.2526 76.2855 57.2895C76.2223 57.3461 76.1302 57.4316 75.9631 57.5605L75.7657 57.7132L75.6868 57.475C75.6815 57.4579 75.5776 57.4237 75.4447 57.3869C75.2315 57.329 74.9749 57.3 74.8381 57.3132C74.7657 57.3197 74.6026 57.4092 74.4157 57.525C74.0868 57.729 73.7118 58.0079 73.5644 58.1224C73.2157 58.3948 72.846 58.6698 72.471 58.9369C72.0657 59.2263 71.6526 59.5092 71.2473 59.7763L71.1486 59.8053C70.8842 59.8053 70.4513 60.1066 69.9526 60.4526C69.2697 60.9263 68.4736 61.479 67.6815 61.5461C67.1223 61.5934 66.4552 62.0553 65.8236 62.4934C65.4421 62.7579 65.0723 63.0145 64.7315 63.1763C63.8526 63.4342 63.421 63.604 62.6026 63.7263C61.8499 63.6132 61.2302 63.5355 60.4736 63.1763C60.1328 63.0145 59.7631 62.7579 59.3815 62.4934C58.7499 62.0566 58.0828 61.5934 57.5236 61.5461C56.7302 61.4776 55.9342 60.925 55.2526 60.4526C54.7539 60.1066 54.321 59.8053 54.0565 59.8053L53.9578 59.7763C53.5526 59.5092 53.1394 59.2263 52.7342 58.9369C52.3592 58.6684 51.9907 58.3948 51.6407 58.1224C51.4934 58.0066 51.1197 57.729 50.7907 57.525C50.6039 57.4092 50.4407 57.3197 50.3684 57.3132C50.2315 57.2987 49.9749 57.329 49.7618 57.3869C49.6289 57.4224 49.5249 57.4566 49.5197 57.475L49.4407 57.7132L49.2434 57.5605C49.0776 57.4316 48.9842 57.3461 48.921 57.2895C48.8802 57.2526 48.8552 57.2303 48.846 57.225C48.8381 57.2211 48.7999 57.2211 48.7052 57.2211H48.646C48.5184 57.2211 48.4342 57.2605 48.3407 57.304C48.2671 57.3382 48.1881 57.3737 48.0815 57.404C48.0263 57.4197 47.9605 57.4237 47.8907 57.429C47.8289 57.4329 47.796 57.329 47.7789 57.3829L47.7013 57.6145L47.5052 57.4711C47.4381 57.4224 47.3671 57.3645 47.2947 57.304C46.9999 57.0632 46.6578 56.7842 46.4315 57.0632C46.2513 57.2869 45.917 57.15 45.6565 57.0421C45.5907 57.0158 45.5328 56.9921 45.4934 56.9816C45.2815 56.9224 44.7749 57.104 44.2815 57.3487C43.7342 57.6224 43.2263 57.9632 43.1684 58.1355L43.1052 58.2237C42.9131 58.3645 42.7197 58.5066 42.5276 58.6474C40.1276 60.4105 37.7223 62.1776 34.9999 63.2013V62.8198C37.6328 61.804 39.9776 60.0803 42.3184 58.3619C42.4986 58.229 42.6789 58.0961 42.8605 57.9632C43.0078 57.7013 43.5526 57.3184 44.1236 57.0329C44.6828 56.7526 45.2842 56.5553 45.5881 56.6395C45.646 56.6553 45.7144 56.6842 45.7907 56.7145C45.9447 56.7776 46.1407 56.8579 46.1552 56.8395C46.6065 56.2842 47.096 56.6842 47.5184 57.029C47.5526 57.0579 47.5855 57.0842 47.6184 57.1105C47.6947 57.0869 47.7828 57.0803 47.8671 57.075C47.9184 57.0724 47.9684 57.0684 47.9868 57.0632C48.0657 57.0421 48.1302 57.0119 48.1921 56.9829C48.3236 56.9224 48.442 56.8671 48.646 56.8671H48.7052C48.8631 56.8671 48.9249 56.8671 49.0118 56.9119C49.0644 56.9395 49.0999 56.9724 49.1592 57.0276C49.2013 57.0658 49.2578 57.1171 49.3394 57.1842C49.4276 57.1263 49.5434 57.0803 49.6684 57.0461C49.9197 56.9776 50.2328 56.9434 50.4052 56.9619C50.5381 56.9763 50.7526 57.0842 50.9789 57.225C51.3171 57.4355 51.7065 57.725 51.8605 57.8448C52.2026 58.1119 52.567 58.3829 52.942 58.65C53.3276 58.925 53.7223 59.1961 54.1144 59.4553C54.4789 59.4855 54.9355 59.8026 55.4552 60.1632C56.1026 60.6119 56.8552 61.1342 57.5552 61.1948C58.2078 61.25 58.9171 61.7408 59.5855 62.204C59.9552 62.4605 60.3118 62.7079 60.6276 62.8579C61.096 63.0803 61.5934 63.1737 62.0947 63.2671C62.2644 63.2987 62.4342 63.3303 62.6039 63.3671C62.7736 63.3303 62.9434 63.2987 63.1131 63.2671C63.6157 63.1737 64.1118 63.0803 64.5802 62.8579C64.8947 62.7079 65.2526 62.4605 65.6223 62.204C66.2907 61.7408 66.9999 61.25 67.6526 61.1948C68.3513 61.1355 69.1052 60.6119 69.7513 60.1632C70.271 59.8026 70.7276 59.4855 71.092 59.4553C71.4828 59.1961 71.8789 58.925 72.2644 58.65C72.6381 58.3829 73.0039 58.1119 73.346 57.8448C73.4999 57.725 73.8894 57.4342 74.2276 57.225C74.4539 57.0842 74.6684 56.975 74.8013 56.9619C74.9736 56.9448 75.2855 56.9776 75.5381 57.0461C75.6631 57.0803 75.7789 57.1263 75.8671 57.1842C75.9486 57.1171 76.0052 57.0658 76.0473 57.0276C76.1065 56.9737 76.1434 56.9395 76.1947 56.9119C76.2815 56.8658 76.3447 56.8658 76.5013 56.8671H76.5605C76.7644 56.8671 76.8828 56.9211 77.0144 56.9816C77.0763 57.0092 77.1407 57.0395 77.2197 57.0619C77.2381 57.0671 77.2868 57.0711 77.3394 57.0737C77.4236 57.079 77.5118 57.0855 77.5881 57.1092C77.621 57.0829 77.6552 57.0553 77.6881 57.0276C78.1105 56.6829 78.5999 56.2829 79.0513 56.8382C79.0657 56.8566 79.2631 56.7763 79.4157 56.7132C79.4921 56.6816 79.5618 56.654 79.6197 56.6382C79.9223 56.554 80.5249 56.7513 81.0842 57.0316C81.6552 57.3171 82.1999 57.7 82.3473 57.9619C82.5276 58.0948 82.7092 58.2276 82.8894 58.3605C85.2289 60.079 87.5736 61.8026 90.2065 62.8184V63.2Z" fill="#231916"/>
<path fill-rule="evenodd" clip-rule="evenodd" d="M52.0435 58.2092C51.9448 58.1342 51.8487 58.0605 51.754 57.9855C51.5106 57.7948 50.6566 57.1658 50.3895 57.1395C50.1132 57.1105 49.4172 56.604 49.354 56.7908C48.8382 56.3921 48.9316 56.5198 48.5435 56.5198C48.2777 56.5198 48.2474 56.7803 48.0014 56.8487C47.3185 57.0382 46.6487 55.8527 46.1553 56.4619C46.0237 56.6237 45.3843 56.8737 45.1935 56.8211C44.6882 56.6803 43.3987 57.5303 43.0566 57.9855C43.2316 58.7079 43.2895 58.8237 43.354 59.3171C43.3698 59.4369 43.9553 58.9763 44.0553 58.9316C44.2343 58.8513 44.3566 58.8803 44.4053 59.0724C44.4316 59.175 44.7053 59.4487 44.7909 59.5632C44.8948 59.4829 45.6001 58.7092 45.8777 59.0369C45.9856 59.1645 46.1014 59.2421 46.158 59.3869C46.1803 59.4434 46.2395 59.5079 46.2987 59.5277C46.3566 59.4895 47.7224 58.5961 47.9119 58.7566C48.133 58.9421 48.2027 59.3882 48.5435 59.3882C48.9395 59.1053 49.3303 58.8461 49.7014 58.5461C49.8948 58.3895 49.8987 58.6119 50.0869 58.6869C50.279 58.7619 50.508 58.8974 50.7185 58.8974C50.8895 58.804 51.2106 58.6342 51.3501 58.5474C51.4106 58.5092 51.5303 58.5395 51.6303 58.4777C51.7461 58.4053 51.8987 58.3184 52.0422 58.2145L52.0435 58.2092Z" fill="white"/>
<path fill-rule="evenodd" clip-rule="evenodd" d="M52.0052 57.9553L52.1513 58.0671L52.342 58.2132L52.1473 58.3526C52.0263 58.4395 51.9065 58.5119 51.8039 58.575L51.7249 58.6237C51.6341 58.6803 51.5486 58.6882 51.4762 58.6947C51.4565 58.6961 51.4552 58.6869 51.446 58.6921C51.3262 58.7671 51.0841 58.8974 50.9052 58.9947L50.8052 59.0487L50.721 59.0697C50.5276 59.0697 50.3407 58.9855 50.1697 58.9092C50.1223 58.8882 50.0749 58.8671 50.0249 58.8474C49.917 58.8053 49.8578 58.7421 49.8078 58.6868C49.5381 58.904 49.2539 59.1026 48.9644 59.3053C48.8539 59.3829 48.742 59.4619 48.6486 59.5276L48.546 59.5605C48.2276 59.5605 48.0947 59.3355 47.9618 59.1119C47.9091 59.0224 47.8565 58.9342 47.7999 58.8855C47.7999 58.8855 47.667 58.9513 47.4868 59.0368C47.0355 59.2526 46.4368 59.6447 46.3999 59.6697L46.3276 59.7171L46.246 59.6895C46.1894 59.6711 46.1381 59.6355 46.096 59.5934C46.0539 59.5513 46.0184 59.4974 45.9973 59.4461C45.971 59.379 45.9157 59.3237 45.8565 59.2619C45.821 59.225 45.7841 59.1882 45.7473 59.1447C45.671 59.0553 45.4223 59.2395 45.2262 59.404C45.1381 59.479 45.0591 59.5526 45.0026 59.6066C44.9591 59.6487 44.9263 59.679 44.9026 59.6974L44.7605 59.8066L44.6526 59.6632C44.6289 59.6316 44.5828 59.579 44.5315 59.5224C44.4105 59.3842 44.2657 59.2211 44.2368 59.1105C44.2276 59.0776 44.2236 59.0619 44.2223 59.0619C44.2091 59.0579 44.1776 59.0671 44.1302 59.0882C44.1157 59.0947 44.046 59.1421 43.9644 59.1987C43.7828 59.325 43.542 59.4895 43.4144 59.5066C43.2828 59.5237 43.1986 59.4737 43.1802 59.3342C43.1368 59.0013 43.096 58.8447 43.017 58.5421C42.9815 58.4079 42.9394 58.2447 42.8855 58.0211L42.8657 57.9395L42.9157 57.8724C43.117 57.6053 43.6197 57.2132 44.1144 56.9421C44.5355 56.7132 44.9657 56.5671 45.242 56.6447C45.2973 56.6605 45.4552 56.6184 45.6223 56.5553C45.8013 56.4882 45.971 56.4026 46.0184 56.3447C46.3881 55.8882 46.7776 56.1355 47.196 56.4026C47.4512 56.5658 47.7223 56.7382 47.9552 56.6737C48.0184 56.6566 48.0684 56.604 48.1157 56.554C48.221 56.4434 48.321 56.3382 48.5434 56.3382C48.6276 56.3382 48.6855 56.3316 48.7302 56.3263C48.9407 56.304 49.0012 56.2974 49.3618 56.5697C49.4262 56.5592 49.5039 56.5711 49.5907 56.6013C49.7065 56.6395 49.8434 56.7079 49.9802 56.7776C50.1513 56.8632 50.3249 56.9513 50.4078 56.9605C50.5407 56.975 50.7552 57.0829 50.9815 57.2237C51.3197 57.4342 51.7091 57.7237 51.8631 57.8434C51.9039 57.875 51.9526 57.9119 52.0065 57.954L52.0052 57.9553ZM51.7381 58.1974L51.6434 58.1237C51.496 58.0079 51.1223 57.7303 50.7934 57.5263C50.6065 57.4105 50.442 57.3211 50.371 57.3145C50.2223 57.2987 50.0197 57.1961 49.8197 57.0961C49.6973 57.0342 49.5749 56.9724 49.4894 56.9421L49.4434 57.0829L49.2447 56.9303C48.9065 56.6671 48.8802 56.6711 48.7684 56.6829C48.7105 56.6895 48.6394 56.6974 48.5434 56.6974C48.4736 56.6974 48.4236 56.7487 48.3723 56.8026C48.2907 56.8882 48.2065 56.9763 48.0486 57.0197C47.6657 57.1263 47.3249 56.9092 47.0052 56.7053C46.7249 56.5263 46.4644 56.3619 46.2934 56.5724C46.2065 56.679 45.9749 56.8053 45.7447 56.8921C45.5184 56.9763 45.2762 57.0263 45.146 56.9908C44.9697 56.9421 44.6328 57.0684 44.2828 57.2579C43.867 57.4842 43.4526 57.7974 43.2499 58.0276C43.2934 58.2026 43.3289 58.3408 43.3591 58.4566C43.4236 58.7053 43.4631 58.8592 43.4999 59.0855C43.5776 59.0355 43.6763 58.9671 43.7591 58.9092C43.8552 58.8421 43.9368 58.7869 43.9815 58.7658C44.1131 58.7079 44.2315 58.6908 44.3368 58.729C44.4539 58.7711 44.5355 58.8658 44.5762 59.0237C44.5828 59.0513 44.6973 59.1816 44.7934 59.2895L44.8052 59.304C44.8578 59.254 44.9223 59.1961 44.9907 59.1369C45.3078 58.8671 45.7407 58.5987 46.0131 58.9197C46.0434 58.9553 46.0749 58.9869 46.1039 59.0184C46.1868 59.1026 46.2631 59.179 46.3157 59.3026C46.5236 59.1697 46.967 58.8947 47.3302 58.7211C47.6289 58.579 47.896 58.5079 48.0262 58.6184C48.1289 58.7053 48.1973 58.8197 48.2644 58.9342C48.3341 59.0513 48.4039 59.1697 48.496 59.2C48.5907 59.1329 48.6736 59.075 48.7552 59.0171C49.0381 58.8184 49.317 58.6237 49.5868 58.4053C49.8368 58.204 49.9315 58.3053 50.0618 58.4461C50.0868 58.4737 50.117 58.5066 50.1486 58.5184C50.196 58.5368 50.2512 58.5619 50.3078 58.5869C50.4302 58.6421 50.5618 58.7013 50.6749 58.7132L50.7315 58.6829C50.9052 58.5895 51.142 58.4619 51.2526 58.3921C51.3144 58.354 51.3723 58.3487 51.4368 58.3421C51.4723 58.3382 51.5118 58.3342 51.5328 58.3211L51.6118 58.2724C51.6499 58.2487 51.6907 58.225 51.7315 58.1987L51.7381 58.1974Z" fill="#231916"/>
<path fill-rule="evenodd" clip-rule="evenodd" d="M73.1658 58.2092C73.2645 58.1342 73.3605 58.0605 73.4552 57.9855C73.6987 57.7948 74.5526 57.1658 74.8197 57.1395C75.096 57.1105 75.7921 56.604 75.8552 56.7908C76.371 56.3921 76.2776 56.5198 76.6658 56.5198C76.9316 56.5198 76.9618 56.7803 77.2079 56.8487C77.8908 57.0382 78.5605 55.8527 79.0539 56.4619C79.1855 56.6237 79.825 56.8737 80.0158 56.8211C80.521 56.6803 81.8105 57.5303 82.1526 57.9855C81.9763 58.7079 81.9197 58.8237 81.8552 59.3171C81.8395 59.4369 81.2539 58.9763 81.1539 58.9316C80.975 58.8513 80.8526 58.8803 80.8026 59.0724C80.7763 59.175 80.5026 59.4487 80.4171 59.5632C80.3131 59.4829 79.6079 58.7092 79.3302 59.0369C79.2223 59.1645 79.1066 59.2421 79.05 59.3869C79.0276 59.4434 78.9684 59.5079 78.9092 59.5277C78.8513 59.4895 77.4855 58.5961 77.296 58.7566C77.0763 58.9421 77.0052 59.3882 76.6645 59.3882C76.2684 59.1053 75.8776 58.8461 75.5066 58.5461C75.3131 58.3895 75.3092 58.6119 75.121 58.6869C74.9289 58.7619 74.7 58.8974 74.4895 58.8974C74.3184 58.804 73.9974 58.6342 73.8579 58.5474C73.7974 58.5092 73.6776 58.5395 73.5776 58.4777C73.4618 58.4053 73.3092 58.3184 73.1658 58.2145V58.2092Z" fill="white"/>
<path fill-rule="evenodd" clip-rule="evenodd" d="M73.204 57.9553L73.058 58.0671L72.8672 58.2132L73.0619 58.3526C73.183 58.4395 73.3027 58.5119 73.4053 58.575L73.4843 58.6237C73.5751 58.6803 73.6606 58.6882 73.733 58.6947C73.7527 58.6961 73.754 58.6869 73.7632 58.6921C73.883 58.7671 74.1251 58.8974 74.304 58.9947L74.404 59.0487L74.4882 59.0697C74.6817 59.0697 74.8685 58.9855 75.0409 58.9092C75.0882 58.8882 75.1356 58.8671 75.1843 58.8474C75.2922 58.8053 75.3514 58.7421 75.4014 58.6868C75.6711 58.904 75.9553 59.1026 76.2435 59.3053C76.354 59.3829 76.4659 59.4619 76.5593 59.5276L76.6619 59.5605C76.9803 59.5605 77.1132 59.3355 77.2461 59.1119C77.2988 59.0224 77.3514 58.9342 77.408 58.8855C77.408 58.8855 77.5409 58.9513 77.7211 59.0368C78.1711 59.2526 78.7711 59.6447 78.808 59.6697L78.8803 59.7171L78.9619 59.6895C79.0185 59.6711 79.0698 59.6355 79.1119 59.5934C79.154 59.5513 79.1896 59.4974 79.2106 59.4461C79.2369 59.379 79.2922 59.3237 79.3514 59.2619C79.3869 59.225 79.4238 59.1882 79.4606 59.1447C79.5369 59.0553 79.7856 59.2395 79.9817 59.404C80.0698 59.479 80.1488 59.5526 80.2053 59.6066C80.2488 59.6487 80.2817 59.679 80.3053 59.6974L80.4475 59.8066L80.5553 59.6632C80.579 59.6316 80.6251 59.579 80.6764 59.5224C80.7975 59.3842 80.9422 59.2211 80.9711 59.1105C80.9803 59.0776 80.9843 59.0619 80.9856 59.0619C80.9988 59.0579 81.0303 59.0671 81.0777 59.0882C81.0922 59.0947 81.1619 59.1421 81.2435 59.1987C81.4251 59.325 81.6659 59.4895 81.7935 59.5066C81.9251 59.5237 82.0093 59.4737 82.0277 59.3342C82.0711 59.0013 82.1119 58.8447 82.1896 58.5421C82.2251 58.4079 82.2672 58.2447 82.3211 58.0211L82.3409 57.9395L82.2909 57.8724C82.0895 57.6053 81.5869 57.2132 81.0922 56.9421C80.6711 56.7132 80.2409 56.5671 79.9659 56.6447C79.9106 56.6605 79.7514 56.6184 79.5856 56.5553C79.4067 56.4882 79.2369 56.4026 79.1896 56.3447C78.8185 55.8882 78.4303 56.1355 78.0119 56.4026C77.7567 56.5658 77.4856 56.7382 77.2527 56.6737C77.1896 56.6566 77.1396 56.604 77.0922 56.554C76.9869 56.4434 76.8869 56.3382 76.6646 56.3382C76.5803 56.3382 76.5224 56.3316 76.4777 56.3263C76.2672 56.304 76.2067 56.2974 75.8461 56.5697C75.7817 56.5592 75.704 56.5711 75.6172 56.6013C75.5014 56.6395 75.3646 56.7079 75.2277 56.7776C75.0567 56.8632 74.883 56.9513 74.8001 56.9605C74.6672 56.975 74.4527 57.0829 74.2264 57.2237C73.8882 57.4342 73.4988 57.7237 73.3448 57.8434C73.304 57.875 73.2554 57.9119 73.2014 57.954L73.204 57.9553ZM73.4711 58.1974L73.5646 58.1237C73.7119 58.0079 74.0869 57.7303 74.4159 57.5263C74.6027 57.4105 74.7659 57.3211 74.8382 57.3145C74.9869 57.2987 75.1896 57.1961 75.3882 57.0961C75.5119 57.0342 75.633 56.9724 75.7185 56.9421L75.7646 57.0829L75.9632 56.9303C76.3014 56.6671 76.3264 56.6711 76.4396 56.6829C76.4975 56.6895 76.5685 56.6974 76.6646 56.6974C76.7343 56.6974 76.7843 56.7487 76.8356 56.8026C76.9172 56.8882 77.0014 56.9763 77.1593 57.0197C77.5422 57.1263 77.883 56.9092 78.2027 56.7053C78.483 56.5263 78.7435 56.3619 78.9146 56.5724C79.0014 56.679 79.233 56.8053 79.4632 56.8921C79.6896 56.9763 79.9317 57.0263 80.0619 56.9908C80.2382 56.9421 80.5751 57.0684 80.9251 57.2579C81.3409 57.4842 81.7553 57.7974 81.958 58.0276C81.9146 58.2026 81.879 58.3408 81.8488 58.4566C81.7843 58.7053 81.7448 58.8592 81.708 59.0855C81.6303 59.0355 81.5317 58.9671 81.4488 58.9092C81.3527 58.8421 81.2711 58.7869 81.2264 58.7658C81.0948 58.7079 80.9764 58.6908 80.8711 58.729C80.754 58.7711 80.6724 58.8658 80.6317 59.0237C80.6238 59.0513 80.5106 59.1816 80.4146 59.2895L80.4027 59.304C80.3501 59.254 80.2856 59.1961 80.2172 59.1369C79.9001 58.8671 79.4672 58.5987 79.1948 58.9197C79.1646 58.9553 79.133 58.9869 79.104 59.0184C79.0211 59.1026 78.9448 59.179 78.8922 59.3026C78.6843 59.1697 78.2409 58.8947 77.8777 58.7211C77.579 58.579 77.3119 58.5079 77.1817 58.6184C77.079 58.7053 77.0106 58.8197 76.9435 58.9342C76.8738 59.0513 76.804 59.1697 76.7119 59.2C76.6172 59.1329 76.5343 59.075 76.4527 59.0171C76.1698 58.8184 75.8909 58.6237 75.6211 58.4053C75.3711 58.204 75.2764 58.3053 75.1461 58.4461C75.1211 58.4737 75.0909 58.5066 75.0593 58.5184C75.0119 58.5368 74.9567 58.5619 74.9001 58.5869C74.7777 58.6421 74.6461 58.7013 74.533 58.7132L74.4764 58.6829C74.3027 58.5895 74.0659 58.4619 73.9553 58.3921C73.8935 58.354 73.8356 58.3487 73.7711 58.3421C73.7356 58.3382 73.6961 58.3342 73.6751 58.3211L73.5961 58.2724C73.558 58.2487 73.5172 58.225 73.4764 58.1987L73.4711 58.1974Z" fill="#231916"/>
<path fill-rule="evenodd" clip-rule="evenodd" d="M17.8789 84.7184L26.7368 84.7368L61.6381 100.526L98.1921 84.7368L107.16 84.7184V91.0079L61.8894 119.488L17.8789 91.0079V84.7184Z" fill="url(#paint1_linear_463_2378)"/>
<path fill-rule="evenodd" clip-rule="evenodd" d="M26.4368 84.7224L61.6381 100.526L98.6289 84.8973L26.4368 84.7224Z" fill="#FFF000" stroke="black" stroke-width="0.14" stroke-miterlimit="2.61"/>
<path d="M90.2065 72.9631H35.0012V84.1645H90.2065V72.9631Z" fill="#9ED8F5"/>
<path d="M107.162 18.8671H90.0381V84.8908H107.162V18.8671Z" fill="#E50013"/>
<path d="M35.0013 18.8671H17.8789V84.8908H35.0013V18.8671Z" fill="#E50013"/>
<path fill-rule="evenodd" clip-rule="evenodd" d="M106.587 19.4461H90.6131V84.1395H106.587V19.4461ZM99.5736 85.4684H18.4525V90.6908L61.8933 118.803L106.587 90.6868V85.4697H99.5736V85.4684ZM18.4525 84.1382H34.4262V19.4461H18.4525V84.1395V84.1382ZM35.5749 84.1382H89.4631V19.4461H35.5749V84.1395V84.1382ZM107.734 85.4684V91.3276L107.463 91.4987L62.192 119.979L61.8854 120.171L61.5802 119.974L17.5696 91.4934L17.3052 91.3224V4.41711H107.734V85.4697V85.4684Z" fill="black"/>
<path fill-rule="evenodd" clip-rule="evenodd" d="M24.2185 15.9316H22.4606L21.558 13.2368L21.0172 14.2868V15.9316H19.5054V8.80395H21.0172V11.7487L22.4593 8.80395H23.8988L22.5777 11.4092L24.2159 15.9303L24.2185 15.9316ZM27.5304 15.9316L27.2356 14.5276H25.8356L25.5225 15.9316H24.2212L25.8356 8.80395H27.5317L29.1659 15.9316H27.5317H27.5304ZM26.1067 12.9711H26.9554L26.5317 10.9039L26.1067 12.9711ZM29.6475 15.9316V8.80395H32.2988C32.8501 8.80395 33.2514 8.99342 33.5054 9.37237C33.7567 9.75263 33.8843 10.1855 33.8843 10.6737C33.8843 11.0289 33.8106 11.3487 33.6633 11.6368C33.5172 11.9237 33.2988 12.1224 33.008 12.2303C33.683 12.4526 34.0225 13.0053 34.0225 13.8895C34.0225 14.4184 33.9027 14.8908 33.6646 15.3079C33.4264 15.7237 32.9172 15.9316 32.1356 15.9316H29.6488H29.6475ZM31.1251 11.5342H31.8672C32.0527 11.5342 32.1843 11.4697 32.262 11.3408C32.3383 11.2132 32.3764 11.0737 32.3764 10.9276C32.3764 10.5316 32.1975 10.3329 31.8396 10.3329H31.1251V11.5342ZM31.1251 14.3434H31.9041C32.0988 14.3434 32.2396 14.2789 32.3317 14.1487C32.4212 14.0171 32.4672 13.8711 32.4672 13.7066C32.4672 13.5421 32.4225 13.3921 32.3356 13.2553C32.2462 13.1171 32.0856 13.0487 31.8501 13.0487H31.1238V14.3421L31.1251 14.3434ZM38.9212 8.80395V13.5237C38.9212 14.4184 38.7264 15.0618 38.3369 15.4539C37.9475 15.8461 37.4409 16.0421 36.8146 16.0421C36.158 16.0421 35.6291 15.8526 35.2291 15.4776C34.8291 15.1013 34.6304 14.4882 34.6304 13.6395V8.80395H36.2606V13.3829C36.2606 13.725 36.3133 13.9724 36.4185 14.1289C36.5238 14.2855 36.6935 14.3645 36.9251 14.3645C37.1198 14.3645 37.2777 14.3079 37.4014 14.1947C37.5251 14.0803 37.6001 13.9539 37.6238 13.8118C37.6488 13.6671 37.6606 13.3895 37.6606 12.9763V8.80395H38.9198H38.9212ZM41.4041 13.3421V15.9316H39.7777V8.80395H42.0093C42.5646 8.80395 42.9883 8.89079 43.2777 9.06447C43.5685 9.23947 43.7962 9.50658 43.9659 9.86447C44.1356 10.2224 44.2212 10.6237 44.2212 11.0684C44.2212 11.7474 44.0475 12.2961 43.7014 12.7145C43.3541 13.1329 42.8896 13.3421 42.3106 13.3421H41.4041ZM41.3804 11.8105H41.9159C42.3883 11.8105 42.6238 11.575 42.6238 11.1013C42.6238 10.6566 42.4054 10.4329 41.9685 10.4329H41.3791V11.8105H41.3804ZM47.3633 15.9316H48.9975L47.3633 8.80395H45.6672L44.0527 15.9316H45.3541L45.6672 14.5276H47.0672L47.3633 15.9316ZM45.9396 12.9711L46.3633 10.9039L46.7883 12.9711H45.9396ZM51.3277 10.5118V15.9316H49.808V10.5118H48.7251V8.80395H52.4106V10.5118H51.3277ZM56.7975 14.2303V15.9316H52.8672V8.80395H56.7975V10.45H54.4409V11.4842H56.3475V13.0671H54.4409V14.2303H56.7975ZM61.9014 15.9316H60.5962L59.1646 12.7816C58.9804 12.3789 58.7962 11.8868 58.6093 11.3092C58.6948 11.7697 58.7356 12.1592 58.7356 12.4776V15.9303H57.4343V8.80263H58.9501L60.1659 11.4132C60.4093 11.9316 60.5935 12.3882 60.7172 12.7803C60.637 12.1724 60.5962 11.5487 60.5962 10.9118V8.80132H61.9014V15.9289V15.9316ZM64.2317 13.8697L65.7198 13.5039C65.8448 14.0776 66.1672 14.3645 66.6843 14.3645C67.0883 14.3645 67.2896 14.2184 67.2896 13.9263C67.2896 13.7724 67.2448 13.6526 67.1501 13.5684C67.0567 13.4829 66.8909 13.4079 66.6514 13.3421C65.7356 13.1013 65.1475 12.7882 64.887 12.4026C64.6251 12.0158 64.4962 11.5618 64.4962 11.0395C64.4962 10.3684 64.683 9.80789 65.0567 9.36316C65.4304 8.91711 65.9685 8.69474 66.6712 8.69474C67.7343 8.69474 68.437 9.27895 68.7804 10.4461L67.4514 10.9947C67.3146 10.5171 67.0343 10.2776 66.6146 10.2776C66.2646 10.2776 66.0896 10.4263 66.0896 10.7211C66.0896 10.8526 66.1304 10.9566 66.208 11.0303C66.287 11.1026 66.4409 11.1724 66.6672 11.2382C67.2922 11.4211 67.737 11.5803 67.9988 11.7197C68.2633 11.8592 68.483 12.0961 68.658 12.4329C68.8343 12.7684 68.9212 13.1632 68.9212 13.6197C68.9212 14.3395 68.7067 14.9237 68.2777 15.3711C67.8488 15.8184 67.2856 16.0434 66.5896 16.0434C65.3172 16.0434 64.5304 15.3184 64.233 13.8711L64.2317 13.8697ZM73.4646 14.2303V15.9316H69.5343V8.80395H73.4646V10.45H71.108V11.4842H73.0146V13.0671H71.108V14.2303H73.4646ZM79.7804 8.80526V15.9329H78.2922V10.8368L77.3225 15.9329H76.3041L75.3014 10.8368V15.9329H74.0988V8.80526H76.1922L76.9501 12.5908L77.6738 8.80526H79.7791H79.7804ZM83.5738 15.9329L83.2791 14.5289H81.8791L81.5659 15.9329H80.2646L81.8791 8.80526H83.5751L85.2093 15.9329H83.5751H83.5738ZM82.1501 12.9724H82.9988L82.5751 10.9053L82.1501 12.9724ZM90.3409 15.9329H88.562L87.8001 13.2079H87.2948V15.9329H85.6922V8.80526H88.4225C89.0238 8.80526 89.4909 8.99737 89.8238 9.38289C90.1567 9.76842 90.3238 10.2737 90.3238 10.9053C90.3238 11.3158 90.2633 11.6789 90.1396 11.9947C90.0172 12.3079 89.7698 12.5855 89.3975 12.8276L90.3422 15.9342L90.3409 15.9329ZM87.2935 11.6816H87.9791C88.1804 11.6816 88.3422 11.625 88.4646 11.5105C88.5856 11.3947 88.6475 11.225 88.6475 11.0026C88.6475 10.5474 88.4422 10.3197 88.033 10.3197H87.2935V11.6816ZM93.9817 15.9329L93.687 14.5289H92.287L91.9738 15.9329H90.6725L92.287 8.80526H93.983L95.6185 15.9329H93.983H93.9817ZM92.558 12.9724H93.4067L92.983 10.9053L92.558 12.9724ZM100.566 15.9329H99.2606L97.8291 12.7829C97.6448 12.3803 97.4606 11.8882 97.2738 11.3105C97.3593 11.7711 97.4001 12.1605 97.4001 12.4789V15.9316H96.0988V8.80395H97.6146L98.8304 11.4145C99.0738 11.9329 99.258 12.3895 99.3817 12.7816C99.3001 12.1737 99.2606 11.55 99.2606 10.9132V8.80263H100.566V15.9303V15.9329ZM105.99 11.9382V15.9329H105.204C105.14 15.6368 105.071 15.3882 104.994 15.1868C104.67 15.7566 104.191 16.0434 103.554 16.0434C102.882 16.0434 102.328 15.7211 101.894 15.0789C101.459 14.4382 101.242 13.5684 101.242 12.4711C101.242 11.3737 101.453 10.5105 101.872 9.78289C102.292 9.05789 102.917 8.69342 103.746 8.69342C104.37 8.69342 104.87 8.91053 105.25 9.3421C105.63 9.77368 105.878 10.3868 105.99 11.1789L104.434 11.3882C104.359 10.6461 104.12 10.275 103.719 10.275C103.194 10.275 102.93 10.9579 102.93 12.3237C102.93 13.1474 103.015 13.6921 103.183 13.9539C103.351 14.2171 103.555 14.3474 103.796 14.3474C103.99 14.3474 104.155 14.2671 104.291 14.1092C104.428 13.9487 104.497 13.7303 104.5 13.45H103.636V11.9368H105.99V11.9382Z" fill="white"/>
<path fill-rule="evenodd" clip-rule="evenodd" d="M35.0013 69.7592C35.2053 69.5697 35.4342 69.2434 35.8855 68.7566C36.2224 68.3947 37.2145 70.7842 38.2368 69.8868C39.8947 68.4342 40.9789 71.0171 43.3947 69.8197C44.2132 69.4145 45.0684 70.1592 45.5184 69.8868C48.4197 68.1329 46.4776 67.5671 49.3882 71.35C50.6947 73.0487 52.9579 73 54.5855 71.8803C56.0211 70.8934 56.7645 69.2592 57.9605 69.2224L62.5882 69.0776L67.2158 69.2224C68.4118 69.2592 69.1553 70.8934 70.5908 71.8803C72.2184 73 74.4816 73.0474 75.7882 71.35C78.6987 67.5684 76.7553 68.1342 79.6566 69.8868C80.1079 70.1592 80.9618 69.4145 81.7803 69.8197C84.1961 71.0171 85.2816 68.4329 86.9395 69.8868C87.9632 70.7842 88.9553 68.3934 89.2908 68.7566C89.7658 69.2684 89.9947 69.604 90.2053 69.7868V72.9618H35V69.7592H35.0013Z" fill="black"/>
<path fill-rule="evenodd" clip-rule="evenodd" d="M36.7474 74.1671H37.8198C38.0356 74.1671 38.2132 74.3605 38.2132 74.5961C38.2132 74.8329 38.0356 75.0263 37.8198 75.0263H36.7474C36.5303 75.0263 36.354 74.8329 36.354 74.5961C36.354 74.3592 36.5316 74.1671 36.7474 74.1671Z" fill="black" stroke="#231916" stroke-width="0.03" stroke-miterlimit="2.61"/>
<path fill-rule="evenodd" clip-rule="evenodd" d="M39.2789 74.1671H40.3526C40.5684 74.1671 40.746 74.3605 40.746 74.5961C40.746 74.8329 40.5684 75.0263 40.3526 75.0263H39.2789C39.0631 75.0263 38.8855 74.8329 38.8855 74.5961C38.8855 74.3592 39.0631 74.1671 39.2789 74.1671Z" fill="black" stroke="#231916" stroke-width="0.03" stroke-miterlimit="2.61"/>
<path fill-rule="evenodd" clip-rule="evenodd" d="M41.8119 74.1671H42.8842C43.1014 74.1671 43.2777 74.3605 43.2777 74.5961C43.2777 74.8329 43.1 75.0263 42.8842 75.0263H41.8119C41.5961 75.0263 41.4185 74.8329 41.4185 74.5961C41.4185 74.3592 41.5961 74.1671 41.8119 74.1671Z" fill="black" stroke="#231916" stroke-width="0.03" stroke-miterlimit="2.61"/>
<path fill-rule="evenodd" clip-rule="evenodd" d="M44.3434 74.1671H45.4157C45.6315 74.1671 45.8092 74.3605 45.8092 74.5961C45.8092 74.8329 45.6315 75.0263 45.4157 75.0263H44.3434C44.1276 75.0263 43.95 74.8329 43.95 74.5961C43.95 74.3592 44.1276 74.1671 44.3434 74.1671Z" fill="black" stroke="#231916" stroke-width="0.03" stroke-miterlimit="2.61"/>
<path fill-rule="evenodd" clip-rule="evenodd" d="M57.004 74.1671H58.0764C58.2922 74.1671 58.4698 74.3605 58.4698 74.5961C58.4698 74.8329 58.2922 75.0263 58.0764 75.0263H57.004C56.7882 75.0263 56.6106 74.8329 56.6106 74.5961C56.6106 74.3592 56.7882 74.1671 57.004 74.1671Z" fill="black" stroke="#231916" stroke-width="0.03" stroke-miterlimit="2.61"/>
<path fill-rule="evenodd" clip-rule="evenodd" d="M59.5367 74.1671H60.6091C60.8249 74.1671 61.0025 74.3605 61.0025 74.5961C61.0025 74.8329 60.8249 75.0263 60.6091 75.0263H59.5367C59.3209 75.0263 59.1433 74.8329 59.1433 74.5961C59.1433 74.3592 59.3209 74.1671 59.5367 74.1671Z" fill="black" stroke="#231916" stroke-width="0.03" stroke-miterlimit="2.61"/>
<path fill-rule="evenodd" clip-rule="evenodd" d="M62.0685 74.1671H63.1422C63.3579 74.1671 63.5356 74.3605 63.5356 74.5961C63.5356 74.8329 63.3579 75.0263 63.1422 75.0263H62.0685C61.8514 75.0263 61.675 74.8329 61.675 74.5961C61.675 74.3592 61.8514 74.1671 62.0685 74.1671Z" fill="black" stroke="#231916" stroke-width="0.03" stroke-miterlimit="2.61"/>
<path fill-rule="evenodd" clip-rule="evenodd" d="M64.6 74.1671H65.6723C65.8894 74.1671 66.0658 74.3605 66.0658 74.5961C66.0658 74.8329 65.8881 75.0263 65.6723 75.0263H64.6C64.3842 75.0263 64.2065 74.8329 64.2065 74.5961C64.2065 74.3592 64.3842 74.1671 64.6 74.1671Z" fill="black" stroke="#231916" stroke-width="0.03" stroke-miterlimit="2.61"/>
<path fill-rule="evenodd" clip-rule="evenodd" d="M67.1329 74.1671H68.2053C68.4211 74.1671 68.5987 74.3605 68.5987 74.5961C68.5987 74.8329 68.4211 75.0263 68.2053 75.0263H67.1329C66.9158 75.0263 66.7395 74.8329 66.7395 74.5961C66.7395 74.3592 66.9171 74.1671 67.1329 74.1671Z" fill="black" stroke="#231916" stroke-width="0.03" stroke-miterlimit="2.61"/>
<path fill-rule="evenodd" clip-rule="evenodd" d="M79.7933 74.1671H80.8657C81.0828 74.1671 81.2591 74.3605 81.2591 74.5961C81.2591 74.8329 81.0815 75.0263 80.8657 75.0263H79.7933C79.5775 75.0263 79.3999 74.8329 79.3999 74.5961C79.3999 74.3592 79.5775 74.1671 79.7933 74.1671Z" fill="black" stroke="#231916" stroke-width="0.03" stroke-miterlimit="2.61"/>
<path fill-rule="evenodd" clip-rule="evenodd" d="M82.3251 74.1671H83.3974C83.6132 74.1671 83.7908 74.3605 83.7908 74.5961C83.7908 74.8329 83.6132 75.0263 83.3974 75.0263H82.3251C82.108 75.0263 81.9316 74.8329 81.9316 74.5961C81.9316 74.3592 82.1093 74.1671 82.3251 74.1671Z" fill="black" stroke="#231916" stroke-width="0.03" stroke-miterlimit="2.61"/>
<path fill-rule="evenodd" clip-rule="evenodd" d="M84.8566 74.1671H85.9289C86.146 74.1671 86.3223 74.3605 86.3223 74.5961C86.3223 74.8329 86.1447 75.0263 85.9289 75.0263H84.8566C84.6408 75.0263 84.4631 74.8329 84.4631 74.5961C84.4631 74.3592 84.6394 74.1671 84.8566 74.1671Z" fill="black" stroke="#231916" stroke-width="0.03" stroke-miterlimit="2.61"/>
<path fill-rule="evenodd" clip-rule="evenodd" d="M87.3895 74.1671H88.4619C88.6777 74.1671 88.8553 74.3605 88.8553 74.5961C88.8553 74.8329 88.679 75.0263 88.4619 75.0263H87.3895C87.1737 75.0263 86.9961 74.8329 86.9961 74.5961C86.9961 74.3592 87.1737 74.1671 87.3895 74.1671Z" fill="black" stroke="#231916" stroke-width="0.03" stroke-miterlimit="2.61"/>
<path fill-rule="evenodd" clip-rule="evenodd" d="M36.7474 76.2079H37.8198C38.0356 76.2079 38.2132 76.4013 38.2132 76.6368C38.2132 76.8737 38.0356 77.0658 37.8198 77.0658H36.7474C36.5303 77.0658 36.354 76.8724 36.354 76.6368C36.354 76.4 36.5316 76.2079 36.7474 76.2079Z" fill="black" stroke="#231916" stroke-width="0.03" stroke-miterlimit="2.61"/>
<path fill-rule="evenodd" clip-rule="evenodd" d="M39.2789 76.2526H40.3526C40.5684 76.2526 40.746 76.446 40.746 76.6829C40.746 76.9197 40.5684 77.1118 40.3526 77.1118H39.2789C39.0631 77.1118 38.8855 76.9184 38.8855 76.6829C38.8855 76.446 39.0631 76.2526 39.2789 76.2526Z" fill="black" stroke="#231916" stroke-width="0.03" stroke-miterlimit="2.61"/>
<path fill-rule="evenodd" clip-rule="evenodd" d="M84.8566 76.2131H85.9289C86.146 76.2131 86.3223 76.4066 86.3223 76.6421C86.3223 76.8789 86.1447 77.0723 85.9289 77.0723H84.8566C84.6408 77.0723 84.4631 76.8789 84.4631 76.6421C84.4631 76.4066 84.6394 76.2131 84.8566 76.2131Z" fill="black" stroke="#231916" stroke-width="0.03" stroke-miterlimit="2.61"/>
<path fill-rule="evenodd" clip-rule="evenodd" d="M87.3895 76.2566H88.4619C88.6777 76.2566 88.8553 76.45 88.8553 76.6855C88.8553 76.9211 88.679 77.1145 88.4619 77.1145H87.3895C87.1737 77.1145 86.9961 76.9211 86.9961 76.6855C86.9961 76.4487 87.1737 76.2566 87.3895 76.2566Z" fill="black" stroke="#231916" stroke-width="0.03" stroke-miterlimit="2.61"/>
<path fill-rule="evenodd" clip-rule="evenodd" d="M36.7474 78.1895H39.6093C39.8251 78.1895 40.0027 78.3829 40.0027 78.6184C40.0027 78.8552 39.8251 79.0487 39.6093 79.0487H36.7474C36.5316 79.0487 36.354 78.8552 36.354 78.6184C36.354 78.3829 36.5316 78.1895 36.7474 78.1895Z" fill="black" stroke="#231916" stroke-width="0.03" stroke-miterlimit="2.61"/>
<path fill-rule="evenodd" clip-rule="evenodd" d="M85.6 78.25H88.4618C88.6776 78.25 88.8552 78.4434 88.8552 78.6803C88.8552 78.9171 88.6776 79.1092 88.4618 79.1092H85.6C85.3842 79.1092 85.2065 78.9158 85.2065 78.6803C85.2065 78.4434 85.3842 78.25 85.6 78.25Z" fill="black" stroke="#231916" stroke-width="0.03" stroke-miterlimit="2.61"/>
<path fill-rule="evenodd" clip-rule="evenodd" d="M51.8276 53.4105H52.7197L52.2763 53.1618L51.8263 53.4105H51.8276ZM73.3815 53.4105H72.4894L72.9328 53.1618L73.3828 53.4105H73.3815ZM71.5894 49.4053C70.8276 58.3579 70.0513 67.4987 69.3486 75.7539L69.3236 76.0526H77.3592L77.3223 75.7421C76.1986 66.4224 75.2078 58.2158 74.1447 49.3934L74.1157 49.1579H71.6105L71.5894 49.4053ZM69.8592 75.3395L70.0973 72.5276L72.7236 73.8618L69.8592 75.3395ZM70.1697 71.6816L70.5302 67.4368L75.5263 68.8526L70.1697 71.6816ZM70.5907 66.7263L70.8434 63.7474L75.0039 65.2855L70.5907 66.7263ZM70.9118 62.9566L71.2039 59.5197L74.6934 61.1158L70.9118 62.9566ZM71.2763 58.675L71.5197 55.8039L74.2289 57.0092L71.2749 58.6737L71.2763 58.675ZM71.592 54.9632L71.6776 53.9579H73.3921L71.592 54.9632ZM71.7394 53.225L71.7973 52.5382L72.3855 52.8618L71.7394 53.225ZM71.8565 51.8513L72.0394 49.7039H73.7026L73.9618 51.8513H71.8565ZM74.0434 52.5382L74.1263 53.2197L73.4723 52.8592L74.0434 52.5382ZM74.2302 54.0934L74.5276 56.5605L71.9052 55.3934L74.2289 54.0934H74.2302ZM74.6289 57.3908L75.0263 60.6829L71.5828 59.1079L74.6302 57.3908H74.6289ZM75.1249 61.4974L75.5368 64.9118L71.3171 63.3513L75.1249 61.4974ZM75.6249 65.65L75.9578 68.4145L71.246 67.0789L75.6249 65.6487V65.65ZM76.0499 69.1763L76.3723 71.854H70.9763L76.0486 69.1763H76.0499ZM76.4552 72.5342L76.7921 75.3329L73.8881 73.8579L76.4552 72.5342ZM75.9618 75.5066H70.6907L73.3052 74.1579L75.9605 75.5066H75.9618ZM73.2131 52.3974L72.9263 52.5592L72.6355 52.3974H73.2131ZM73.3065 73.5618L71.0184 72.4H75.5592L73.3065 73.5618ZM53.6184 49.4053C54.3789 58.3579 55.1565 67.4987 55.8592 75.7539L55.8842 76.0526H47.8486L47.8855 75.7421C49.0092 66.4224 49.9999 58.2158 51.0631 49.3934L51.0921 49.1579H53.5973L53.6184 49.4053ZM55.3486 75.3395L55.1105 72.5276L52.4842 73.8618L55.3486 75.3395ZM55.0381 71.6816L54.6776 67.4368L49.6815 68.8526L55.0381 71.6816ZM54.6171 66.7263L54.3644 63.7474L50.2039 65.2855L54.6171 66.7263ZM54.296 62.9566L54.0039 59.5197L50.5144 61.1158L54.296 62.9566ZM53.9315 58.675L53.6881 55.8039L50.9789 57.0092L53.9328 58.6737L53.9315 58.675ZM53.6157 54.9632L53.5302 53.9579H51.8157L53.6157 54.9632ZM53.4684 53.225L53.4105 52.5382L52.8223 52.8618L53.4684 53.225ZM53.3513 51.8513L53.1684 49.7039H51.5052L51.246 51.8513H53.3513ZM51.1644 52.5382L51.0815 53.2197L51.7355 52.8592L51.1644 52.5382ZM50.9763 54.0934L50.6789 56.5605L53.3013 55.3934L50.9763 54.0934ZM50.5789 57.3908L50.1815 60.6829L53.6249 59.1079L50.5776 57.3908H50.5789ZM50.0828 61.4974L49.671 64.9118L53.8907 63.3513L50.0828 61.4974ZM49.5815 65.65L49.2486 68.4145L53.9605 67.0789L49.5815 65.6487V65.65ZM49.1565 69.1763L48.8342 71.854H54.2302L49.1578 69.1763H49.1565ZM48.7513 72.5342L48.4131 75.3329L51.3171 73.8579L48.7499 72.5342H48.7513ZM49.2447 75.5066H54.5157L51.9013 74.1579L49.246 75.5066H49.2447ZM51.9934 52.3974L52.2802 52.5592L52.571 52.3974H51.9934ZM51.8999 73.5618L54.1881 72.4H49.6473L51.8999 73.5618Z" fill="black"/>
<path fill-rule="evenodd" clip-rule="evenodd" d="M72.1039 49.1579L72.0789 49.4184L71.8512 52.1145L71.8302 52.3605H71.6144C65.4947 52.3553 59.5644 52.3487 53.4591 52.3434L53.4341 52.1026L53.1697 49.5026L53.1394 49.1579C59.4605 49.1303 65.7657 49.1842 72.1039 49.1579ZM53.8078 49.7421L55.0986 51.7013L56.0631 49.7316L53.8078 49.7408V49.7421ZM56.7223 49.7303L57.5828 51.6592L58.6118 49.7224L56.7223 49.7303ZM59.3118 49.7197L60.3105 51.6421L61.0802 49.7132L59.3118 49.7211V49.7197ZM61.717 49.7092L62.6447 51.6566L63.5762 49.7013L61.717 49.7092ZM64.2039 49.6987L64.9789 51.6421L65.992 49.6921L64.2039 49.7V49.6987ZM66.6591 49.6882L67.7065 51.6592L68.5894 49.6789L66.6578 49.6868L66.6591 49.6882ZM69.1986 49.6776L70.1907 51.7026L71.5315 49.6671L69.1986 49.6776ZM71.5262 50.3526L70.5618 51.8171H71.4026L71.5262 50.3526ZM69.8381 51.8158L68.8947 49.8908L68.0368 51.8145H69.8381V51.8158ZM67.3723 51.8158L66.3262 49.8474L65.3039 51.8145H67.3723V51.8158ZM64.6565 51.8158L63.8907 49.8947L62.9776 51.8132L64.6565 51.8158ZM62.3131 51.8132L61.3999 49.8947L60.6355 51.8118H62.3131V51.8132ZM59.9841 51.8132L58.9644 49.8513L57.9236 51.8118H59.9855L59.9841 51.8132ZM57.2499 51.8132L56.396 49.9L55.4591 51.8118H57.2499V51.8132ZM54.7197 51.8132L53.7315 50.3132L53.8841 51.8118H54.7197V51.8132Z" fill="black"/>
<path fill-rule="evenodd" clip-rule="evenodd" d="M61.5369 76.2276H63.5L63.2277 28.5474H61.9948L61.5369 76.2276Z" fill="#FFF000"/>
<path fill-rule="evenodd" clip-rule="evenodd" d="M61.7159 76.0382H63.3225L63.0514 28.7369H62.1712L61.7159 76.0382ZM63.5001 76.4171H61.3567L61.3593 76.2263L61.8185 28.5461L61.8212 28.3579H63.4054V28.5474L63.6791 76.2276V76.4184H63.5014L63.5001 76.4171Z" fill="black"/>
<path fill-rule="evenodd" clip-rule="evenodd" d="M61.5762 72.004H63.4762L63.4788 72.5092H61.5723L61.5775 72.004H61.5762ZM63.4617 69.5421L63.4591 69.0355H61.6052L61.5999 69.5421H63.4617ZM63.4446 66.5737L63.442 66.0684H61.6328L61.6275 66.5737H63.4433H63.4446ZM63.4275 63.6053L63.4249 63.1H61.6617L61.6565 63.6053H63.4262H63.4275ZM63.4104 60.6369L63.4078 60.1316H61.6907L61.6854 60.6369H63.4104ZM63.3933 57.6684L63.3907 57.1632H61.7183L61.7131 57.6684H63.392H63.3933ZM63.3762 54.7013L63.3736 54.1947H61.7473L61.742 54.7013H63.3762ZM63.3591 51.7329L63.3565 51.2276H61.7762L61.7709 51.7329H63.3591ZM63.342 48.7645L63.3394 48.2592H61.8038L61.7986 48.7645H63.342ZM63.3249 45.7961L63.3223 45.2908H61.8328L61.8275 45.7961H63.3249ZM63.3078 42.8276L63.3052 42.3224H61.8617L61.8565 42.8276H63.3078ZM63.2907 39.8605L63.2881 39.354H61.8894L61.8841 39.8605H63.2907ZM63.2736 36.8921L63.2709 36.3869H61.9183L61.9131 36.8921H63.2736ZM63.2565 33.9237L63.2538 33.4184H61.9459L61.9407 33.9237H63.2552H63.2565ZM63.2394 30.9553L63.2367 30.45H61.9749L61.9696 30.9553H63.2394Z" fill="#231916"/>
<path d="M46.7881 79.8053H35.5723V84.1632H46.7881V79.8053Z" fill="white"/>
<path d="M46.2408 80.4105H36.1184V83.5566H46.2408V80.4105Z" fill="black"/>
<path d="M57.4565 79.8053H46.2407V84.1632H57.4565V79.8053Z" fill="white"/>
<path d="M56.9105 80.4105H46.7881V83.5566H56.9105V80.4105Z" fill="black"/>
<path d="M68.1264 79.8053H56.9106V84.1632H68.1264V79.8053Z" fill="white"/>
<path d="M67.5789 80.4105H57.4565V83.5566H67.5789V80.4105Z" fill="black"/>
<path d="M78.7947 79.8053H67.5789V84.1632H78.7947V79.8053Z" fill="white"/>
<path d="M78.2486 80.4105H68.1262V83.5566H78.2486V80.4105Z" fill="black"/>
<path d="M89.4646 79.8053H78.2488V84.1632H89.4646V79.8053Z" fill="white"/>
<path d="M88.917 80.4105H78.7947V83.5566H88.917V80.4105Z" fill="black"/>
<path d="M52.1223 76.0487H40.9065V80.4066H52.1223V76.0487Z" fill="white"/>
<path d="M51.5762 76.6539H41.4539V79.8H51.5762V76.6539Z" fill="black"/>
<path d="M62.7922 76.0487H51.5764V80.4066H62.7922V76.0487Z" fill="white"/>
<path d="M62.2447 76.6539H52.1223V79.8H62.2447V76.6539Z" fill="black"/>
<path d="M73.4604 76.0487H62.2446V80.4066H73.4604V76.0487Z" fill="white"/>
<path d="M72.9144 76.6539H62.792V79.8H72.9144V76.6539Z" fill="black"/>
<path d="M84.1289 76.0487H72.9131V80.4066H84.1289V76.0487Z" fill="white"/>
<path d="M83.5828 76.6539H73.4604V79.8H83.5828V76.6539Z" fill="black"/>
<path fill-rule="evenodd" clip-rule="evenodd" d="M64.8434 83.6158H66.4487V84.7658H68.1342V86.6671H70.0605V88.7894H73.0289V91.8539H72.3737V92.1131L71.8723 92.5723V98.1381L72.3737 98.5973V98.9197H73.0289V101.204H51.7842V98.9197H52.4394V98.5973L52.9394 98.1381V92.5723L52.4394 92.1131V91.8539H51.7842V88.7894H54.7539V86.6671H56.6802V84.7658H58.3658V83.6158H59.971V82.5105H64.8447V83.6158H64.8434ZM55.7579 98.2144L55.8381 98.1408V92.575L55.7579 92.5013L55.6776 92.575V98.1408L55.7579 98.2144ZM58.6566 98.2144L58.7368 98.1408V92.575L58.6566 92.5013L58.5763 92.575V98.1408L58.6566 98.2144ZM61.975 98.921H62.8381V98.5986L63.3394 98.1394V92.5737L62.8381 92.1144V91.8552H61.975V92.1144L61.475 92.5737V98.1394L61.975 98.5986V98.921ZM66.1566 98.2144L66.2381 98.1408V92.575L66.1566 92.5013L66.0763 92.575V98.1408L66.1566 98.2144ZM69.0552 98.2144L69.1355 98.1408V92.575L69.0552 92.5013L68.975 92.575V98.1408L69.0552 98.2144Z" fill="white"/>
<path fill-rule="evenodd" clip-rule="evenodd" d="M64.3725 84.0868V82.9816H60.4409V84.0868H58.8356V85.2368H57.1501V87.1381H55.2238V89.2605H52.2554V91.3829H52.9106V91.9066L53.2422 92.2118H53.4106V98.5013H53.2422L52.9106 98.8066V99.3303L52.9172 99.3921H52.2554V100.733H72.558V99.3921H71.8962L71.9027 99.3303V98.8066L71.5698 98.5013H71.4014V92.2118H71.5698L71.9027 91.9066V91.3829H72.558V89.2605H69.5896V87.1381H67.6633V85.2368H65.9777V84.0868H64.3725ZM55.7001 99.3921L55.7067 99.3303V98.8066L55.3751 98.5013H55.2067V92.2118H55.3751L55.7067 91.9066V91.3829H55.8093V91.9066L56.1409 92.2118H56.3093V98.5013H56.1409L55.8093 98.8066V99.3303L55.8159 99.3921H55.6988H55.7001ZM58.5988 99.3921L58.6054 99.3303V98.8066L58.2738 98.5013H58.1054V92.2118H58.2738L58.6054 91.9066V91.3829H58.708V91.9066L59.0396 92.2118H59.208V98.5013H59.0396L58.708 98.8066V99.3303L58.7146 99.3921H58.5975H58.5988ZM61.4975 99.3921L61.5041 99.3303V98.8066L61.1725 98.5013H61.0041V92.2118H61.1725L61.5041 91.9066V91.3829H63.3093V91.9066L63.6422 92.2118H63.8106V98.5013H63.6422L63.3093 98.8066V99.3303L63.3159 99.3921H61.4962H61.4975ZM66.0988 99.3921L66.1054 99.3303V98.8066L65.7725 98.5013H65.6041V92.2118H65.7725L66.1054 91.9066V91.3829H66.208V91.9066L66.5409 92.2118H66.7093V98.5013H66.5409L66.208 98.8066V99.3303L66.2146 99.3921H66.0975H66.0988ZM68.9975 99.3921L69.0041 99.3303V98.8066L68.6712 98.5013H68.5027V92.2118H68.6712L69.0041 91.9066V91.3829H69.1067V91.9066L69.4396 92.2118H69.608V98.5013H69.4396L69.1067 98.8066V99.3303L69.1133 99.3921H68.9962H68.9975Z" fill="black"/>
<path fill-rule="evenodd" clip-rule="evenodd" d="M99.4696 81L99.4946 84.4079H97.7631L97.7828 81.0368C97.1657 79.9197 96.0315 79.5289 95.2578 78.5645C93.5249 76.4052 94.4065 74.3987 94.2946 71.9605L94.2499 70.9868L94.7881 71.7987C95.1341 72.321 95.5104 72.7987 95.9157 73.275C96.2328 73.646 96.5631 74.0145 96.8381 74.4184C97.1223 74.8355 97.3236 75.2631 97.4644 75.7487C97.6236 76.3013 97.717 76.8921 97.8052 77.4671L97.8249 74.0987C97.1407 73.0842 96.0775 72.3789 95.2683 71.4684C94.6394 70.7605 94.2881 69.9947 94.196 69.0513C94.0802 67.8776 94.3578 66.675 94.2973 65.4829L94.2512 64.5855L94.7828 65.3105C95.1407 65.7987 95.5275 66.2381 95.9433 66.6776C96.2696 67.0223 96.6078 67.3644 96.8867 67.7487C97.1433 68.1026 97.3302 68.4723 97.4644 68.8881C97.6486 69.4618 97.7446 70.0868 97.846 70.6802L97.867 66.9171C97.1802 65.9447 96.0973 65.2908 95.2762 64.4368C94.642 63.7776 94.2802 63.0539 94.192 62.1408C94.0881 61.0671 94.3578 59.9723 94.2973 58.8816L94.2499 58.0368L94.7762 58.7C95.1446 59.1644 95.5407 59.5789 95.9644 59.9921C96.2973 60.3171 96.6433 60.6421 96.9249 61.0144C97.1591 61.3237 97.3341 61.65 97.4617 62.0171C97.646 62.5473 97.7433 63.1302 97.8446 63.6816C97.8578 63.7513 97.871 63.8237 97.8841 63.8973L97.9065 59.9802C97.2223 58.9776 96.1117 58.3118 95.2749 57.4421C94.6407 56.7829 94.2788 56.0592 94.1907 55.146C94.0867 54.0723 94.3565 52.9776 94.296 51.8868L94.2486 51.0421L94.7749 51.7052C95.1433 52.1697 95.5394 52.5829 95.9631 52.9973C96.296 53.3223 96.642 53.6473 96.9236 54.0197C97.1578 54.3289 97.3328 54.6552 97.4604 55.0223C97.6446 55.5526 97.742 56.1355 97.8433 56.6868C97.8683 56.8184 97.8933 56.9618 97.9223 57.1105L97.942 53.5921C97.2617 52.5592 96.1236 51.8842 95.2736 50.9987C94.6394 50.3394 94.2775 49.6158 94.1894 48.7026C94.0854 47.6289 94.3552 46.5355 94.2946 45.4434L94.2473 44.5987L94.7736 45.2618C95.142 45.7263 95.5381 46.1408 95.9617 46.5539C96.2946 46.8789 96.6407 47.2039 96.9223 47.5763C97.1565 47.8855 97.3315 48.2118 97.4591 48.5789C97.6433 49.1092 97.7407 49.6921 97.842 50.2434C97.8762 50.4263 97.9131 50.6342 97.9565 50.85L97.9775 47.2447C97.3025 46.1802 96.1381 45.4947 95.2736 44.5947C94.6394 43.9355 94.2775 43.2118 94.1894 42.2987C94.0854 41.2237 94.3552 40.1302 94.2946 39.0394L94.2473 38.1934L94.7736 38.8566C95.142 39.321 95.5381 39.7342 95.9617 40.1473C96.2946 40.4723 96.6407 40.7973 96.9223 41.1697C97.1565 41.4789 97.3315 41.8052 97.4591 42.1723C97.6433 42.7026 97.7407 43.2855 97.842 43.8368C97.8841 44.0631 97.9315 44.3342 97.9933 44.6118L98.0144 41.0908C97.3446 39.9934 96.1539 39.3 95.2736 38.3842C94.6394 37.725 94.2775 37.0013 94.1894 36.0881C94.0854 35.0144 94.3552 33.9197 94.2946 32.8289L94.2473 31.9829L94.7736 32.646C95.142 33.1105 95.5381 33.5237 95.9617 33.9381C96.2946 34.2631 96.6407 34.5868 96.9223 34.9605C97.1565 35.2697 97.3315 35.596 97.4591 35.9631C97.6433 36.4934 97.7407 37.0763 97.842 37.6276C97.8907 37.8908 97.9486 38.221 98.0275 38.5539L98.0499 34.6829C97.8986 34.4237 97.717 34.1855 97.517 33.9618C96.8407 33.2105 95.9762 32.646 95.2736 31.9144C94.6394 31.2539 94.2775 30.5316 94.1894 29.6184C94.0854 28.5447 94.3552 27.4513 94.2946 26.3592L94.2473 25.5131L94.7736 26.1763C95.142 26.6408 95.5381 27.0539 95.9617 27.4671C96.2946 27.7921 96.6407 28.1171 96.9223 28.4894C97.1565 28.7987 97.3315 29.125 97.4591 29.4921C97.6433 30.0223 97.7407 30.6052 97.842 31.1566C97.8973 31.4526 97.9644 31.8447 98.0644 32.2276L98.0815 29.2263C97.6486 28.175 96.7683 26.9487 96.7157 25.8171C96.7104 25.7131 96.7117 25.6092 96.7183 25.5066C96.7631 24.7737 97.0789 24.0684 97.3881 23.4131C97.7499 22.646 98.1157 21.9118 98.3591 21.0947L98.7025 19.9421L98.8828 21.1329C99.0249 22.0684 99.3565 22.9302 99.7104 23.8013C99.9552 24.4052 100.338 25.2618 100.316 25.9171C100.291 26.6631 100.088 27.1789 99.7407 27.8223C99.3723 28.5052 99.1381 28.9644 99.0999 29.7644L99.1038 30.2881L99.1183 32.3013C99.2288 31.896 99.3012 31.4723 99.3578 31.1605C99.4591 30.6092 99.5578 30.0263 99.7407 29.496C99.8683 29.1302 100.043 28.8026 100.278 28.4934C100.559 28.121 100.905 27.796 101.238 27.4723C101.662 27.0592 102.058 26.6447 102.426 26.1802L102.953 25.5171L102.905 26.3631C102.845 27.4539 103.114 28.5487 103.01 29.6223C102.922 30.5355 102.559 31.2592 101.926 31.9184C101.024 32.8579 99.7933 33.5631 99.1341 34.7118L99.1617 38.596C99.246 38.25 99.3065 37.9026 99.3565 37.6302C99.4578 37.0789 99.5565 36.496 99.7394 35.9658C99.867 35.6 100.042 35.2723 100.276 34.9631C100.558 34.5908 100.904 34.2671 101.237 33.9408C101.66 33.5276 102.056 33.1144 102.425 32.6487L102.951 31.9855L102.904 32.8316C102.843 33.9223 103.113 35.0171 103.009 36.0908C102.921 37.0039 102.558 37.7276 101.925 38.3868C101.042 39.3052 99.8473 40 99.1788 41.1026L99.2038 44.6158C99.2657 44.3368 99.3131 44.0644 99.3552 43.8381C99.4565 43.2868 99.5552 42.7039 99.7381 42.1737C99.8644 41.8066 100.041 41.4802 100.275 41.171C100.556 40.7987 100.903 40.475 101.235 40.1487C101.659 39.7355 102.055 39.3223 102.424 38.8579L102.95 38.1947L102.903 39.0408C102.842 40.1316 103.112 41.2263 103.008 42.3C102.92 43.2118 102.556 43.9355 101.924 44.596C101.06 45.4947 99.8973 46.1802 99.2223 47.2408L99.2486 50.8118C99.2894 50.6105 99.3236 50.4171 99.3552 50.2447C99.4565 49.6934 99.5552 49.1105 99.7381 48.5802C99.8644 48.2144 100.041 47.8868 100.275 47.5776C100.556 47.2052 100.903 46.8802 101.235 46.5552C101.659 46.1421 102.055 45.7289 102.424 45.2631L102.95 44.6L102.903 45.4447C102.842 46.5368 103.112 47.6302 103.008 48.7039C102.92 49.6171 102.556 50.3394 101.924 51C101.079 51.8802 99.9486 52.5513 99.2683 53.5737L99.2933 57.0223C99.3157 56.9052 99.3354 56.7921 99.3552 56.6868C99.4565 56.1355 99.5552 55.5526 99.7381 55.0223C99.8657 54.6566 100.041 54.3289 100.275 54.0197C100.556 53.6473 100.903 53.3237 101.235 52.9973C101.659 52.5842 102.055 52.171 102.424 51.7052L102.95 51.0421L102.903 51.8868C102.842 52.9776 103.112 54.0723 103.008 55.146C102.92 56.0592 102.556 56.7829 101.924 57.4421C101.096 58.3039 99.9999 58.9631 99.3144 59.9487L99.342 63.7539C99.3473 63.7289 99.3512 63.7052 99.3552 63.6816C99.4565 63.1302 99.5552 62.5473 99.7381 62.0171C99.8644 61.6513 100.041 61.3237 100.275 61.0144C100.556 60.6421 100.903 60.3171 101.235 59.9921C101.659 59.5789 102.055 59.1658 102.424 58.7L102.95 58.0368L102.903 58.8816C102.842 59.9737 103.112 61.0671 103.008 62.1408C102.92 63.0539 102.556 63.7763 101.924 64.4368C101.114 65.2802 100.053 65.925 99.3644 66.8737L99.3907 70.4697C99.4802 69.9408 99.5749 69.3947 99.7367 68.8881C99.8696 68.4723 100.058 68.1026 100.314 67.7487C100.593 67.3644 100.931 67.0223 101.256 66.6776C101.672 66.2381 102.059 65.7987 102.417 65.3105L102.949 64.5855L102.903 65.4829C102.842 66.675 103.12 67.8776 103.004 69.0513C102.91 69.9934 102.56 70.7605 101.931 71.4684C101.138 72.3618 100.101 73.0552 99.417 74.0381L99.4394 77.1763C99.5157 76.6947 99.6012 76.2092 99.7354 75.75C99.8762 75.2658 100.078 74.8368 100.362 74.4197C100.637 74.0158 100.967 73.6473 101.284 73.2763C101.689 72.8 102.066 72.3223 102.412 71.8L102.95 70.9881L102.905 71.9618C102.793 74.4 103.675 76.4052 101.942 78.5658C101.167 79.5316 100.106 79.8723 99.4683 81.0013L99.4696 81Z" fill="black"/>
<path fill-rule="evenodd" clip-rule="evenodd" d="M102.638 71.9487C102.528 74.3552 103.391 76.3289 101.734 78.396C100.937 79.3908 99.8946 79.6421 99.2012 80.9316L99.2236 84.1395H98.0341L98.0525 80.971C97.3907 79.7079 96.2644 79.3908 95.467 78.3974C93.8091 76.3316 94.6736 74.3566 94.5631 71.95C95.7959 73.8105 96.7525 74.2645 97.2038 75.8263C97.5578 77.05 97.6288 78.8513 98.0578 79.9737L98.092 74.0197C97.3854 72.9302 96.3078 72.2368 95.467 71.2908C93.8091 69.425 94.6736 67.6421 94.5631 65.4697C95.7959 67.1487 96.7525 67.5605 97.2038 68.9697C97.5683 70.1092 97.6328 71.8026 98.0986 72.8092L98.1328 66.8342C97.4262 65.7921 96.3236 65.1434 95.4657 64.25C93.8078 62.525 94.6723 60.8763 94.5617 58.8671C95.7946 60.4197 96.7512 60.8 97.2025 62.1039C97.5775 63.1868 97.6354 64.8131 98.1394 65.7316L98.1723 59.896C97.4683 58.8184 96.3394 58.1618 95.4657 57.2526C93.8078 55.5276 94.6723 53.8789 94.5617 51.8697C95.7946 53.4224 96.7512 53.8026 97.2025 55.1066C97.5881 56.2171 97.638 57.9 98.1788 58.8039L98.2091 53.5092C97.5078 52.3974 96.3552 51.7329 95.4657 50.8079C93.8078 49.0829 94.6723 47.4342 94.5617 45.425C95.7946 46.9776 96.7512 47.3579 97.2025 48.6618C97.5959 49.7973 97.6407 51.5302 98.2157 52.4184L98.2459 47.1618C97.5499 46.0145 96.3709 45.3434 95.4657 44.4013C93.8078 42.6763 94.6723 41.0276 94.5617 39.0184C95.7946 40.571 96.7512 40.9513 97.2025 42.2552C97.6038 43.4145 97.642 45.196 98.2525 46.0658L98.2815 41.0118C97.5907 39.8276 96.3867 39.15 95.4657 38.1921C93.8078 36.4671 94.6723 34.8171 94.5617 32.8092C95.7946 34.3618 96.7512 34.7421 97.2025 36.046C97.6117 37.2276 97.6433 39.0552 98.2881 39.9052L98.3183 34.6066C98.1473 34.3 97.942 34.0276 97.7157 33.7763C97.0367 33.021 96.1683 32.4539 95.4657 31.7224C93.8078 29.9974 94.6723 28.3473 94.5617 26.3395C95.7946 27.8921 96.7512 28.2724 97.2025 29.5763C97.6196 30.7802 97.6446 32.6539 98.3249 33.4829L98.3499 29.1697C97.9552 28.1842 97.0328 26.8487 96.9841 25.7987C96.9183 24.3842 98.0433 23.0842 98.6157 21.1658C98.9236 23.1974 100.081 24.8342 100.046 25.9C99.988 27.5934 98.9131 27.9631 98.8302 29.7513L98.8341 30.2868L98.8578 33.5026C99.5552 32.6842 99.5762 30.7895 99.9973 29.575C100.449 28.271 101.406 27.8921 102.638 26.3381C102.528 28.346 103.391 29.996 101.734 31.721C100.791 32.7026 99.5486 33.3908 98.867 34.6316L98.9052 39.9131C99.5565 39.0671 99.5867 37.2302 99.9973 36.0434C100.449 34.7395 101.406 34.3605 102.638 32.8066C102.528 34.8145 103.391 36.4645 101.734 38.1895C100.812 39.15 99.6025 39.8289 98.9131 41.0197L98.9499 46.0618C99.5591 45.1908 99.5973 43.4105 99.9986 42.2526C100.45 40.9487 101.408 40.5697 102.639 39.0158C102.529 41.025 103.392 42.6737 101.735 44.3987C100.831 45.3395 99.6552 46.0092 98.9578 47.1539L98.9959 52.3987C99.5617 51.5052 99.6065 49.7868 99.9986 48.6579C100.45 47.3539 101.408 46.975 102.639 45.421C102.529 47.4302 103.392 49.0789 101.735 50.8039C100.851 51.7237 99.7052 52.3855 99.0038 53.4855L99.042 58.7658C99.5644 57.8539 99.6183 56.1987 99.9986 55.1013C100.45 53.7973 101.408 53.4184 102.639 51.8645C102.529 53.8737 103.392 55.5223 101.735 57.2473C100.871 58.1473 99.7552 58.8 99.0499 59.8592L99.092 65.671C99.5683 64.7434 99.6315 63.1605 99.9986 62.0987C100.45 60.7947 101.408 60.4145 102.639 58.8618C102.529 60.871 103.392 62.5197 101.735 64.2447C100.891 65.125 99.8065 65.7671 99.0999 66.7829L99.1433 72.7145C99.5736 71.7 99.6446 70.071 99.9986 68.9645C100.45 67.5552 101.408 67.1447 102.639 65.4645C102.529 67.6368 103.392 69.4197 101.735 71.2855C100.912 72.2131 99.8591 72.8987 99.1525 73.9513L99.1946 79.8303C99.5802 78.7013 99.6591 76.9947 99.9986 75.8197C100.45 74.2579 101.408 73.8039 102.639 71.9434L102.638 71.9487Z" fill="#FFF000"/>
<path fill-rule="evenodd" clip-rule="evenodd" d="M64.3908 27.3079L65.6631 31.0237L62.5947 28.7L59.3658 31.1527L60.696 27.2869L57.9329 25.2329H61.3986L62.5644 21.8527L63.7026 25.2329H67.1026L64.3908 27.3079Z" fill="black"/>
<path fill-rule="evenodd" clip-rule="evenodd" d="M66.2961 25.5066H63.5066L62.5606 22.7013L61.5935 25.5066H58.7593L61.0198 27.1868L59.9172 30.3908L62.5948 28.3566L65.1145 30.2645L64.0685 27.2105L66.2961 25.5066Z" fill="#FFF000"/>
<path fill-rule="evenodd" clip-rule="evenodd" d="M26.5869 25.1566C28.0093 25.1566 29.1645 24.2855 29.1645 23.2118C29.1645 22.1381 28.0106 21.2671 26.5869 21.2671C25.1632 21.2671 24.0093 22.1381 24.0093 23.2118C24.0093 24.2855 25.1632 25.1566 26.5869 25.1566Z" fill="white"/>
<path fill-rule="evenodd" clip-rule="evenodd" d="M26.5868 25.0368C27.2723 25.0368 27.8907 24.8276 28.3381 24.4921C28.7749 24.1618 29.046 23.7092 29.046 23.2118C29.046 22.7144 28.7762 22.2618 28.3381 21.9315C27.892 21.5947 27.2723 21.3855 26.5868 21.3855C25.9012 21.3855 25.2828 21.5947 24.8355 21.9315C24.3986 22.2605 24.1276 22.7144 24.1276 23.2118C24.1276 23.7092 24.3986 24.1618 24.8355 24.4921C25.2815 24.8289 25.9012 25.0368 26.5868 25.0368ZM28.4802 24.6802C27.9947 25.0473 27.3249 25.275 26.5868 25.275C25.8486 25.275 25.1789 25.0473 24.692 24.6802C24.196 24.3065 23.8894 23.7868 23.8894 23.2105C23.8894 22.6342 24.196 22.1158 24.692 21.7408C25.1776 21.3737 25.8486 21.1473 26.5868 21.1473C27.3249 21.1473 27.9947 21.3737 28.4802 21.7408C28.9762 22.1144 29.2828 22.6342 29.2828 23.2105C29.2828 23.7868 28.9762 24.3065 28.4802 24.6802Z" fill="black"/>
<path fill-rule="evenodd" clip-rule="evenodd" d="M27.0224 23.0158C27.4356 23.5618 27.529 23.6763 28.0356 24.3381C28.9014 23.4342 29.1777 23.121 29.7672 22.5302C29.2659 24.0658 29.5619 26.5723 27.6224 27.1013C26.5237 28.0684 26.0659 29.0697 24.9685 30.0368C24.6369 29.1039 25.0948 28.0329 24.7632 27.1013C23.5593 25.4868 23.5974 24.0763 23.408 22.496C24.3606 22.7237 25.0882 23.7013 25.929 24.1671C26.0922 23.5868 26.7474 23.425 27.0238 23.0158H27.0224Z" fill="#009844"/>
<path fill-rule="evenodd" clip-rule="evenodd" d="M27.1159 22.9447C27.354 23.2605 27.4948 23.4421 27.6869 23.6921C27.7896 23.8263 27.9093 23.9803 28.0435 24.1566C28.3238 23.8632 28.5435 23.6316 28.7317 23.4303C29.0685 23.0737 29.3119 22.8145 29.6803 22.446L29.8764 22.5658C29.7422 22.9763 29.6659 23.4592 29.5869 23.9566C29.3698 25.3289 29.1382 26.7921 27.6764 27.2079C27.1448 27.6803 26.7632 28.1605 26.383 28.6421C25.9896 29.1395 25.5961 29.6368 25.0422 30.1263L24.9106 30.2421L24.8514 30.0763C24.6777 29.5868 24.7093 29.0737 24.7422 28.5618C24.7724 28.0789 24.8027 27.5974 24.6514 27.1579C23.6146 25.7592 23.4896 24.5171 23.358 23.1908C23.3356 22.9737 23.3146 22.7526 23.2856 22.5105L23.2659 22.3421L23.4303 22.3816C24.0369 22.5263 24.5435 22.9513 25.0435 23.3697C25.3159 23.5974 25.5856 23.8237 25.8619 23.9947C25.9948 23.6974 26.2461 23.5145 26.4896 23.3395C26.658 23.2184 26.8211 23.1 26.9211 22.9513L27.0146 22.8145L27.1146 22.946L27.1159 22.9447ZM27.5001 23.8368C27.3461 23.6382 27.2303 23.4868 27.0185 23.2079C26.9067 23.3289 26.7698 23.4276 26.629 23.5289C26.383 23.7066 26.1264 23.8921 26.0409 24.1987L26.0001 24.3421L25.8685 24.2697C25.5277 24.0816 25.2119 23.8158 24.8922 23.5487C24.4632 23.1895 24.0264 22.8237 23.5422 22.6592C23.5606 22.825 23.5777 22.996 23.5948 23.1658C23.7238 24.4618 23.8448 25.6763 24.854 27.0289L24.8711 27.0605C25.0448 27.55 25.0132 28.0632 24.9803 28.575C24.954 29 24.9264 29.4263 25.0238 29.821C25.4948 29.3829 25.8474 28.9382 26.1988 28.4934C26.5922 27.996 26.9856 27.4987 27.5409 27.0092L27.5882 26.9842C28.9264 26.6197 29.1474 25.225 29.354 23.9184C29.408 23.5789 29.4606 23.2434 29.5317 22.9329C29.3211 23.1487 29.1343 23.3474 28.904 23.5908C28.6961 23.8105 28.4527 24.0684 28.1185 24.4184L28.0238 24.5184L27.9396 24.4079C27.7224 24.125 27.6027 23.9684 27.5001 23.8342V23.8368Z" fill="black"/>
<path fill-rule="evenodd" clip-rule="evenodd" d="M27.2987 25.7026C27.9276 25.7026 28.4381 26.3408 28.4381 27.129C28.4381 27.9171 27.9276 28.5553 27.2987 28.5553C26.6697 28.5553 26.1592 27.9158 26.1592 27.129C26.1592 26.3421 26.6697 25.7026 27.2987 25.7026Z" fill="white"/>
<path fill-rule="evenodd" clip-rule="evenodd" d="M27.2987 25.5829C27.6513 25.5829 27.9684 25.7605 28.1974 26.046C28.4197 26.325 28.5566 26.7079 28.5566 27.1289C28.5566 27.55 28.4197 27.9329 28.1974 28.2118C27.9697 28.4974 27.6513 28.675 27.2987 28.675C26.946 28.675 26.6289 28.4974 26.4 28.2118C26.1776 27.9342 26.0408 27.5513 26.0408 27.1289C26.0408 26.7066 26.1789 26.325 26.4 26.046C26.6289 25.7605 26.946 25.5829 27.2987 25.5829ZM28.0118 26.1934C27.8276 25.9632 27.575 25.8197 27.2987 25.8197C27.0224 25.8197 26.7697 25.9618 26.5855 26.1934C26.396 26.4316 26.2776 26.7618 26.2776 27.1289C26.2776 27.496 26.3947 27.8263 26.5855 28.0645C26.7697 28.2947 27.0224 28.4381 27.2987 28.4381C27.575 28.4381 27.8276 28.296 28.0118 28.0645C28.2026 27.8263 28.3197 27.496 28.3197 27.1289C28.3197 26.7618 28.2026 26.4316 28.0118 26.1934Z" fill="black"/>
<path fill-rule="evenodd" clip-rule="evenodd" d="M28.1633 25.754C28.562 29.2855 26.4422 28.3527 26.0054 29.2948C25.8264 29.6803 26.3817 31.0921 25.8633 31.3592C26.1738 31.375 26.0409 30.5355 26.3528 30.5513C26.8567 30.3855 29.6199 28.3461 28.1646 25.7553L28.1633 25.754Z" fill="#009844"/>
<path fill-rule="evenodd" clip-rule="evenodd" d="M28.3291 26.425C28.3751 28.3158 27.5317 28.6211 26.8291 28.8737C26.512 28.9882 26.2291 29.0908 26.112 29.3421C26.0567 29.4632 26.0975 29.7566 26.1409 30.075C26.1593 30.2066 26.1777 30.3408 26.1909 30.4724C26.2291 30.4461 26.2751 30.4316 26.3317 30.4303C26.3646 30.4184 26.4093 30.3961 26.4633 30.3658C26.8027 30.175 27.4343 29.6842 27.8988 28.9856C28.3541 28.3 28.6462 27.4158 28.3291 26.4237V26.425ZM26.7501 28.6513C27.4501 28.4 28.308 28.0895 28.0449 25.7658L28.2659 25.6948C28.3856 25.9092 28.4791 26.1198 28.5462 26.3263C28.9041 27.4119 28.5896 28.375 28.0962 29.1171C27.6067 29.8527 26.9383 30.3711 26.5791 30.5737C26.5027 30.6158 26.4383 30.6461 26.3883 30.6632L26.3462 30.6684C26.2909 30.6658 26.2567 30.8224 26.2238 30.979C26.1685 31.2329 26.1133 31.4882 25.858 31.4763L25.8093 31.2527C26.0488 31.129 25.9738 30.5882 25.908 30.1079C25.8593 29.754 25.8133 29.4263 25.8988 29.2434C26.058 28.9013 26.3856 28.7829 26.7514 28.6513H26.7501Z" fill="black"/>
<path fill-rule="evenodd" clip-rule="evenodd" d="M25.3488 25.5434C26.4461 26.9158 27.9593 28.6066 26.804 30.2869C26.5593 30.6421 26.6869 31.9369 27.2053 32.2053C26.8935 32.2211 26.1606 31.125 25.8501 31.1395C25.8382 30.8474 25.8277 30.5553 25.8172 30.2632C25.7619 30.0421 25.6409 29.8711 25.5001 29.7211C24.5448 28.7171 24.1238 27.4763 25.3501 25.5421L25.3488 25.5434Z" fill="#009844"/>
<path fill-rule="evenodd" clip-rule="evenodd" d="M25.4407 25.4697L25.6289 25.7039C26.7249 27.0632 28.042 28.696 26.9012 30.3553C26.896 30.3632 26.8894 30.3737 26.8841 30.3842C26.7946 30.5579 26.7775 30.9118 26.8354 31.2618C26.892 31.6066 27.0196 31.9395 27.2183 32.0763C27.2315 32.0855 27.246 32.0934 27.2591 32.1L27.2104 32.3237C27.0012 32.3342 26.721 32.0447 26.442 31.7553C26.1999 31.5039 25.9578 31.2539 25.8552 31.2579L25.7367 31.2645L25.7315 31.1447L25.6986 30.2829C25.6736 30.1895 25.6354 30.1053 25.5894 30.0289C25.5394 29.9474 25.4789 29.8737 25.4131 29.8053C24.9196 29.2855 24.5631 28.7026 24.4894 27.9947C24.4157 27.2921 24.621 26.4724 25.2499 25.4816L25.3381 25.3421L25.442 25.4724L25.4407 25.4697ZM25.4446 25.8513L25.3617 25.7474C24.8328 26.6263 24.6591 27.35 24.7236 27.9684C24.792 28.6158 25.1236 29.1553 25.5841 29.6395C25.6604 29.7197 25.7315 29.8066 25.7907 29.9026C25.8512 30.0013 25.8999 30.1105 25.9302 30.2329L25.9341 30.2579L25.9644 31.0421C26.1539 31.1145 26.3828 31.3513 26.6117 31.5882L26.6933 31.6724C26.6525 31.5526 26.6223 31.425 26.6012 31.2974C26.5367 30.9013 26.5617 30.4895 26.6736 30.2724C26.6828 30.2539 26.6946 30.2342 26.7065 30.2171C27.7473 28.7039 26.4907 27.1447 25.4446 25.8487V25.8513Z" fill="black"/>
<path fill-rule="evenodd" clip-rule="evenodd" d="M25.1975 26.9368C26.208 26.9368 27.0264 28.1658 27.0264 29.6816C27.0264 31.1974 26.2067 32.4263 25.1975 32.4263C24.1882 32.4263 23.3672 31.1974 23.3672 29.6816C23.3672 28.1658 24.1869 26.9368 25.1975 26.9368Z" fill="white"/>
<path fill-rule="evenodd" clip-rule="evenodd" d="M25.1975 26.8184C25.7448 26.8184 26.2369 27.146 26.5896 27.675C26.933 28.1908 27.1448 28.9 27.1448 29.6816C27.1448 30.4631 26.933 31.1723 26.5896 31.6868C26.2369 32.2171 25.7448 32.5434 25.1975 32.5434C24.6501 32.5434 24.158 32.2158 23.8054 31.6868C23.4619 31.171 23.2488 30.4618 23.2488 29.6802C23.2488 28.8987 23.4606 28.1894 23.8054 27.6737C24.158 27.1447 24.6501 26.8171 25.1975 26.8171V26.8184ZM26.3922 27.8066C26.083 27.3421 25.6606 27.0552 25.1975 27.0552C24.7343 27.0552 24.3119 27.3434 24.0027 27.8066C23.6843 28.2842 23.4869 28.9473 23.4869 29.6816C23.4869 30.4158 23.6843 31.0789 24.0027 31.5566C24.3119 32.0197 24.7343 32.3079 25.1975 32.3079C25.6606 32.3079 26.083 32.021 26.3922 31.5566C26.7106 31.0789 26.908 30.4158 26.908 29.6816C26.908 28.9473 26.7106 28.2855 26.3922 27.8066Z" fill="black"/>
<path fill-rule="evenodd" clip-rule="evenodd" d="M29.6816 26.9237C27.2013 28.5842 25.1645 30.2948 26.2171 32.6079C26.5 33.229 26.8211 35.4934 25.9895 35.9237C26.4882 35.9474 26.275 34.6013 26.775 34.625C27.5842 34.3592 30.7158 30.7645 29.6829 26.9237H29.6816Z" fill="#009844"/>
<path fill-rule="evenodd" clip-rule="evenodd" d="M29.6065 27.1158C28.4315 27.9092 27.371 28.7158 26.7183 29.5921C26.0565 30.4829 25.8183 31.45 26.3236 32.5592C26.4828 32.9079 26.6539 33.7566 26.6381 34.525C26.6723 34.5132 26.7105 34.5079 26.7526 34.5066C27.246 34.3224 28.5631 32.9355 29.2868 31.0198C29.7249 29.8579 29.9381 28.5066 29.6065 27.1171V27.1158ZM26.5276 29.45C27.2262 28.5119 28.3644 27.6619 29.6144 26.825L29.7512 26.7329L29.7947 26.8921C30.1986 28.3921 29.9789 29.8553 29.5078 31.1013C28.7512 33.1066 27.3262 34.5658 26.8091 34.7369L26.767 34.7421C26.7026 34.7395 26.6552 34.7882 26.617 34.8684C26.5868 35.1553 26.5236 35.4198 26.4144 35.629C26.3407 35.8684 26.2262 36.0513 25.9815 36.0395L25.9328 35.8158C26.0394 35.7605 26.1236 35.6684 26.1907 35.5487C26.2183 35.4579 26.2407 35.3526 26.2644 35.2474C26.2986 35.0895 26.3328 34.9329 26.3855 34.804C26.3881 34.775 26.3907 34.7461 26.392 34.7171C26.446 33.9355 26.271 33.0119 26.1078 32.654C25.5605 31.4513 25.8144 30.4066 26.5276 29.4487V29.45Z" fill="black"/>
<path fill-rule="evenodd" clip-rule="evenodd" d="M23.4999 28.4526C24.6868 30.9934 28.0157 31.879 26.8289 34.4829C26.546 35.104 26.3604 37.0224 27.192 37.4526C26.6933 37.4776 26.2197 35.9724 25.7197 35.9974C25.7026 35.529 25.6841 35.0592 25.6657 34.5908C25.5762 34.2355 25.3841 33.9605 25.1552 33.7211C23.6223 32.1092 22.8868 30.7224 23.4973 28.4526H23.4999Z" fill="#009844"/>
<path fill-rule="evenodd" clip-rule="evenodd" d="M23.6067 28.4026C24.0488 29.3474 24.8014 30.0671 25.4988 30.7329C26.6804 31.8605 27.7067 32.8421 26.9356 34.5316C26.7778 34.8803 26.6514 35.6579 26.733 36.3303C26.7896 36.7882 26.9409 37.1895 27.2462 37.3474L27.1975 37.5711C26.8804 37.5869 26.6185 37.1882 26.3567 36.7895C26.133 36.4487 25.908 36.1066 25.7251 36.1158L25.6054 36.1224L25.6014 36.0027L25.5488 34.6092C25.508 34.4487 25.4422 34.3053 25.362 34.175C25.2791 34.0395 25.1791 33.9171 25.0712 33.8026C24.2949 32.9855 23.7185 32.2237 23.4133 31.3737C23.1054 30.5184 23.0725 29.5829 23.3856 28.4224L23.6067 28.404V28.4026ZM25.3356 30.904C24.6949 30.2908 24.0067 29.6342 23.5396 28.7895C23.3238 29.7592 23.3725 30.5592 23.637 31.2921C23.9304 32.1053 24.4883 32.8421 25.2449 33.6382C25.3633 33.7632 25.4738 33.8987 25.5672 34.0487C25.6606 34.2013 25.737 34.3698 25.7843 34.5605L25.7883 34.5855L25.837 35.8921C26.0988 35.9645 26.3251 36.3053 26.5501 36.6487C26.5291 36.5553 26.512 36.4579 26.5001 36.3592C26.4133 35.6461 26.5501 34.8119 26.7225 34.4329C27.4238 32.8961 26.4528 31.9698 25.337 30.904H25.3356Z" fill="black"/>
<path fill-rule="evenodd" clip-rule="evenodd" d="M27.8145 33.5079C28.8974 33.5079 29.7763 34.9342 29.7763 36.6947C29.7763 38.4552 28.8974 39.8816 27.8145 39.8816C26.7316 39.8816 25.8513 38.4552 25.8513 36.6947C25.8513 34.9342 26.7303 33.5079 27.8145 33.5079Z" fill="white"/>
<path fill-rule="evenodd" clip-rule="evenodd" d="M27.8145 33.3882C28.4 33.3882 28.9263 33.7671 29.3026 34.379C29.6684 34.9737 29.8961 35.7921 29.8961 36.6948C29.8961 37.5974 29.6698 38.4158 29.3026 39.0106C28.9263 39.6211 28.4 40 27.8145 40C27.229 40 26.7026 39.6211 26.3263 39.0106C25.9592 38.4158 25.7329 37.5961 25.7329 36.6948C25.7329 35.7934 25.9592 34.9737 26.3263 34.379C26.7026 33.7671 27.229 33.3882 27.8145 33.3882ZM29.1013 34.5027C28.7684 33.9606 28.3132 33.6263 27.8145 33.6263C27.3158 33.6263 26.8605 33.9619 26.5276 34.5027C26.1842 35.0619 25.9711 35.8369 25.9711 36.6948C25.9711 37.5527 26.1842 38.3277 26.5276 38.8856C26.8605 39.4263 27.3171 39.7619 27.8145 39.7619C28.3119 39.7619 28.7671 39.4263 29.1013 38.8856C29.4448 38.3263 29.6579 37.5527 29.6579 36.6948C29.6579 35.8369 29.4448 35.0619 29.1013 34.5027Z" fill="black"/>
<path fill-rule="evenodd" clip-rule="evenodd" d="M29.2999 34.3145C29.9867 40.3973 26.3354 38.7908 25.5841 40.4105C25.2749 41.075 26.2315 43.5066 25.3394 43.9671C25.8749 43.9934 25.6459 42.5487 26.1815 42.575C27.0486 42.2895 31.8065 38.7763 29.2999 34.3145Z" fill="#009844"/>
<path fill-rule="evenodd" clip-rule="evenodd" d="M29.4763 34.9342C29.7329 38.6158 28.2223 39.1605 26.9763 39.6092C26.4131 39.8119 25.9079 39.9948 25.6921 40.4619C25.5855 40.6921 25.6579 41.2092 25.7355 41.7711C25.7763 42.0605 25.8171 42.3619 25.8368 42.65C25.9105 42.5342 26.0118 42.4592 26.1618 42.4579C26.2263 42.4355 26.3118 42.3934 26.4158 42.3355C27.0065 42.0026 28.1079 41.1474 28.9171 39.9329C29.721 38.725 30.2329 37.1605 29.6565 35.4066C29.6052 35.2513 29.546 35.0934 29.4763 34.9355V34.9342ZM26.8973 39.3869C28.1315 38.9421 29.6434 38.3974 29.1829 34.3276L29.4039 34.2566C29.6092 34.6211 29.7658 34.9803 29.8815 35.3303C30.4868 37.1684 29.9539 38.8013 29.1144 40.0619C28.2815 41.3145 27.1434 42.1974 26.5315 42.5421C26.4052 42.6132 26.2973 42.6632 26.2184 42.6882L26.1763 42.6934C26.0092 42.6855 25.9434 42.9908 25.8763 43.2961C25.7881 43.7 25.7013 44.1026 25.3329 44.0855L25.2842 43.8619C25.7513 43.6198 25.6171 42.6579 25.4987 41.8013C25.4158 41.204 25.3394 40.6526 25.475 40.3605C25.7329 39.804 26.2815 39.6066 26.8947 39.3855L26.8973 39.3869Z" fill="black"/>
<path fill-rule="evenodd" clip-rule="evenodd" d="M24.4553 33.9526C26.3448 36.3158 28.9514 39.2276 26.9619 42.1224C26.5409 42.7342 26.7593 44.9658 27.6514 45.4263C27.1158 45.4526 25.854 43.5658 25.3172 43.5908C25.2987 43.0882 25.279 42.5855 25.2593 42.0816C25.1645 41.7013 24.9566 41.4053 24.7119 41.15C23.0685 39.4197 22.3435 37.2829 24.454 33.9526H24.4553Z" fill="#009844"/>
<path fill-rule="evenodd" clip-rule="evenodd" d="M24.5475 33.8789C24.6133 33.9605 24.7422 34.121 24.8725 34.2829C26.7409 36.6 28.987 39.3855 27.0593 42.1908C27.0475 42.2079 27.0356 42.2289 27.0238 42.25C26.8606 42.5658 26.8304 43.1947 26.9317 43.8144C27.033 44.4289 27.2646 45.0237 27.6278 45.2737C27.6514 45.2908 27.6778 45.3066 27.7067 45.321L27.658 45.5447C27.337 45.5605 26.8685 45.075 26.4001 44.5908C25.9699 44.1447 25.5383 43.6987 25.3238 43.7092L25.2041 43.7145L25.1988 43.5947L25.1422 42.1C25.0975 41.9263 25.0278 41.7723 24.9409 41.6316C24.8514 41.4855 24.7435 41.3539 24.6264 41.2316C23.7883 40.35 23.1843 39.3605 23.058 38.1631C22.933 36.971 23.2843 35.5789 24.3554 33.8894L24.4449 33.7487L24.5488 33.8776L24.5475 33.8789ZM24.6883 34.4302C24.6212 34.3487 24.5567 34.2671 24.4672 34.1566C23.4962 35.7329 23.1778 37.0316 23.2935 38.1394C23.4133 39.2763 23.9935 40.221 24.7988 41.0684C24.9264 41.2026 25.0449 41.3473 25.1435 41.5079C25.2435 41.671 25.3251 41.8513 25.3751 42.0539L25.3791 42.0789L25.433 43.4881C25.7449 43.5723 26.158 44 26.5699 44.4276C26.7212 44.5842 26.8725 44.7408 27.0133 44.8776C26.862 44.5776 26.7567 44.2184 26.6975 43.8539C26.5883 43.1895 26.6278 42.5 26.8133 42.1434C26.8291 42.1131 26.8462 42.0842 26.8646 42.0579C28.6935 39.3987 26.5067 36.6881 24.6883 34.4329V34.4302Z" fill="black"/>
<path fill-rule="evenodd" clip-rule="evenodd" d="M24.9157 40.3263C26.1315 40.3263 27.117 41.8052 27.117 43.6276C27.117 45.45 26.1315 46.9289 24.9157 46.9289C23.6999 46.9289 22.7144 45.45 22.7144 43.6276C22.7144 41.8052 23.6999 40.3263 24.9157 40.3263Z" fill="white"/>
<path fill-rule="evenodd" clip-rule="evenodd" d="M24.9158 40.2079C25.5658 40.2079 26.1514 40.5974 26.5711 41.2276C26.9816 41.8434 27.2356 42.6921 27.2356 43.6276C27.2356 44.5632 26.9816 45.4118 26.5711 46.0276C26.1514 46.6579 25.5658 47.0474 24.9158 47.0474C24.2658 47.0474 23.6816 46.6579 23.2619 46.0276C22.8514 45.4118 22.5974 44.5632 22.5974 43.6276C22.5974 42.6921 22.8514 41.8447 23.2619 41.2276C23.6829 40.5974 24.2671 40.2079 24.9171 40.2079H24.9158ZM26.3737 41.3592C25.9974 40.7947 25.4816 40.446 24.9158 40.446C24.35 40.446 23.8356 40.796 23.4593 41.3605C23.0737 41.9395 22.8343 42.7408 22.8343 43.6289C22.8343 44.5171 23.0737 45.3184 23.4593 45.8974C23.8356 46.4618 24.3514 46.8118 24.9158 46.8118C25.4803 46.8118 25.9974 46.4631 26.3737 45.8987C26.7593 45.3197 26.9987 44.5184 26.9987 43.6303C26.9987 42.7421 26.7606 41.9408 26.3737 41.3618V41.3592Z" fill="black"/>
<path fill-rule="evenodd" clip-rule="evenodd" d="M30.3093 40.3105C27.3264 42.3079 24.8751 44.3658 26.1422 47.1474C26.483 47.8948 26.8685 50.6184 25.8672 51.1355C26.4685 51.1645 26.2106 49.5448 26.8119 49.5737C27.7856 49.2527 31.5527 44.9303 30.3093 40.3105Z" fill="#009844"/>
<path fill-rule="evenodd" clip-rule="evenodd" d="M30.2354 40.5026C28.8091 41.4645 27.517 42.4421 26.7262 43.5066C25.9249 44.5842 25.6367 45.7553 26.2486 47.0987C26.4407 47.5224 26.6486 48.5592 26.6236 49.4908C26.6723 49.4684 26.7275 49.4566 26.7907 49.4553C27.3867 49.2382 28.9828 47.5605 29.8578 45.2447C30.3907 43.8342 30.6473 42.1908 30.2354 40.5013V40.5026ZM26.5367 43.3645C27.3736 42.2395 28.7433 41.2171 30.2433 40.2119L30.3815 40.1198L30.4236 40.279C30.9078 42.0776 30.6446 43.8316 30.0802 45.3276C29.1723 47.7329 27.467 49.4829 26.8499 49.6855L26.8065 49.6908C26.717 49.6869 26.6525 49.754 26.6012 49.8619C26.5644 50.2066 26.4894 50.5237 26.3578 50.775C26.271 51.0553 26.1394 51.2658 25.8617 51.2513L25.8131 51.0276C25.9459 50.9592 26.0512 50.8434 26.1341 50.6948C26.1683 50.5842 26.196 50.4566 26.2236 50.3276C26.2644 50.1382 26.3052 49.9487 26.3696 49.7948C26.3723 49.7592 26.3762 49.7224 26.3788 49.6855C26.4433 48.7408 26.2315 47.625 26.0354 47.1934C25.3802 45.7566 25.6854 44.5079 26.5381 43.3619L26.5367 43.3645Z" fill="black"/>
<path fill-rule="evenodd" clip-rule="evenodd" d="M22.8736 42.1487C24.3013 45.2039 28.3065 46.2697 26.8789 49.4013C26.5381 50.1487 26.3144 52.4565 27.3157 52.9723C26.7144 53.0013 26.146 51.1921 25.546 51.2223C25.5249 50.6579 25.5026 50.0934 25.4815 49.5302C25.3749 49.1026 25.1407 48.7723 24.8684 48.4842C23.0249 46.5447 22.1394 44.8763 22.8736 42.1473V42.1487Z" fill="#009844"/>
<path fill-rule="evenodd" clip-rule="evenodd" d="M22.9815 42.0987C23.5144 43.2395 24.4223 44.1066 25.2617 44.9092C26.6762 46.2592 27.9065 47.4342 26.9867 49.4513C26.7946 49.8737 26.642 50.8145 26.7407 51.6276C26.8091 52.1842 26.996 52.675 27.371 52.8684L27.3223 53.0921C26.9552 53.1105 26.6433 52.6368 26.3328 52.1632C26.0591 51.7461 25.7854 51.3303 25.5525 51.3421L25.4341 51.3474L25.4288 51.2276L25.3657 49.5487C25.3157 49.3526 25.2367 49.1763 25.1381 49.0171C25.0367 48.8526 24.9157 48.704 24.7841 48.5658C23.8525 47.5855 23.1617 46.6711 22.7946 45.6526C22.4262 44.629 22.3881 43.5066 22.7617 42.1184L22.9841 42.0987H22.9815ZM25.0986 45.0803C24.3131 44.3316 23.4723 43.5263 22.9117 42.4868C22.6354 43.6855 22.6907 44.6711 23.0157 45.5724C23.3683 46.554 24.042 47.4434 24.9538 48.4026C25.096 48.5526 25.2275 48.7132 25.3381 48.8934C25.4499 49.0763 25.5394 49.2763 25.596 49.5013L25.5999 49.525L25.6604 51.1145C25.9775 51.1895 26.2539 51.6105 26.5302 52.0316L26.5999 52.1382C26.5578 51.9855 26.5262 51.8224 26.5052 51.654C26.3999 50.8 26.5657 49.8013 26.771 49.35C27.621 47.4855 26.4473 46.3658 25.0986 45.0776V45.0803Z" fill="black"/>
<path fill-rule="evenodd" clip-rule="evenodd" d="M27.9842 47.6158C29.2184 47.6158 30.2184 49.2408 30.2184 51.2447C30.2184 53.2487 29.2171 54.8737 27.9842 54.8737C26.7513 54.8737 25.75 53.2487 25.75 51.2447C25.75 49.2408 26.75 47.6158 27.9842 47.6158Z" fill="white"/>
<path fill-rule="evenodd" clip-rule="evenodd" d="M27.9842 47.4974C28.6447 47.4974 29.2395 47.925 29.6645 48.6171C30.0803 49.2921 30.3369 50.2224 30.3369 51.2461C30.3369 52.2697 30.079 53.1987 29.6645 53.875C29.2382 54.5671 28.6447 54.9947 27.9842 54.9947C27.3237 54.9947 26.7303 54.5671 26.304 53.875C25.8895 53.2 25.6316 52.2697 25.6316 51.2461C25.6316 50.2224 25.8895 49.2921 26.304 48.6171C26.7303 47.925 27.3237 47.4974 27.9842 47.4974ZM29.4632 48.7421C29.0803 48.1197 28.5566 47.7355 27.9842 47.7355C27.4119 47.7355 26.8869 48.1197 26.5053 48.7421C26.1119 49.3803 25.8684 50.2658 25.8684 51.2461C25.8684 52.2263 26.1119 53.1118 26.5053 53.75C26.8882 54.3724 27.4119 54.7566 27.9842 54.7566C28.5566 54.7566 29.0816 54.3724 29.4632 53.75C29.8566 53.1118 30.1 52.2263 30.1 51.2461C30.1 50.2658 29.8566 49.3803 29.4632 48.7421Z" fill="black"/>
<path fill-rule="evenodd" clip-rule="evenodd" d="M29.6775 48.5355C30.4604 55.4618 26.3025 53.6329 25.4459 55.4776C25.0946 56.2342 26.1841 59.0039 25.167 59.5276C25.7775 59.5566 25.5157 57.9132 26.1262 57.9421C27.1144 57.6171 32.5315 53.6171 29.6775 48.5355Z" fill="#009844"/>
<path fill-rule="evenodd" clip-rule="evenodd" d="M29.8541 49.1474C30.1778 53.4132 28.4488 54.0369 27.0251 54.5487C26.3804 54.7816 25.8028 54.9895 25.5528 55.5277C25.4291 55.7935 25.5106 56.3856 25.6001 57.0277C25.6488 57.3763 25.6988 57.7395 25.7199 58.0803C25.8028 57.925 25.9212 57.8237 26.1054 57.8237C26.1791 57.7974 26.2791 57.75 26.3988 57.6816C27.0738 57.3027 28.3304 56.3263 29.2528 54.9395C30.1712 53.5606 30.7554 51.775 30.0962 49.7724C30.0278 49.5658 29.9475 49.3579 29.8528 49.1461L29.8541 49.1474ZM26.9449 54.3263C28.3554 53.8185 30.083 53.1948 29.5593 48.5487L29.7804 48.4777C30.0133 48.8921 30.1922 49.3 30.3238 49.6987C31.0107 51.7856 30.4054 53.6408 29.4528 55.0711C28.5054 56.4948 27.212 57.4987 26.5172 57.8895C26.3738 57.9698 26.2528 58.0263 26.1633 58.0553L26.1212 58.0606C25.9172 58.05 25.8396 58.4053 25.7633 58.7592C25.6659 59.2119 25.5672 59.6658 25.162 59.6448L25.1133 59.4211C25.6554 59.1408 25.5028 58.0395 25.3672 57.0579C25.2725 56.379 25.187 55.7553 25.3396 55.4263C25.6304 54.7987 26.2528 54.5737 26.9475 54.3237L26.9449 54.3263Z" fill="black"/>
<path fill-rule="evenodd" clip-rule="evenodd" d="M24.1592 48.1237C26.3118 50.8144 29.2789 54.1316 27.0131 57.4276C26.5342 58.125 26.7829 60.6644 27.7987 61.1894C27.1894 61.2197 25.7513 59.071 25.1408 59.1C25.1197 58.5263 25.0973 57.9539 25.0763 57.3816C24.9671 56.9487 24.7302 56.6118 24.4539 56.3197C22.5816 54.3513 21.7566 51.9158 24.1592 48.1237Z" fill="#009844"/>
<path fill-rule="evenodd" clip-rule="evenodd" d="M24.2514 48.05C24.3343 48.1539 24.4764 48.3302 24.6211 48.5092C26.7461 51.1434 29.2988 54.3105 27.1106 57.4947C27.0961 57.5158 27.083 57.5381 27.0685 57.5644C26.8817 57.9263 26.8448 58.6473 26.9619 59.3566C27.0777 60.0605 27.3435 60.7434 27.7606 61.0302C27.7896 61.05 27.8198 61.0684 27.8527 61.0842L27.804 61.3079C27.4448 61.325 26.9146 60.7763 26.3843 60.2263C25.8909 59.7158 25.3974 59.2052 25.1461 59.2171L25.0264 59.2223L25.0224 59.1026L24.958 57.3987C24.9067 57.1987 24.8264 57.021 24.7264 56.8579C24.6238 56.6908 24.5001 56.5394 24.3672 56.3987C23.4146 55.396 22.7277 54.2737 22.5843 52.9144C22.4422 51.5605 22.8409 49.9776 24.058 48.0579L24.1461 47.9184L24.2501 48.0473L24.2514 48.05ZM24.4369 48.6579C24.3567 48.5579 24.2751 48.4579 24.1711 48.3276C23.054 50.1355 22.6869 51.6223 22.8198 52.8921C22.9567 54.1908 23.6185 55.2697 24.5382 56.2368C24.683 56.3881 24.8159 56.5513 24.9277 56.7342C25.0409 56.9184 25.133 57.1223 25.1896 57.3513L25.1935 57.375L25.2553 58.9921C25.6067 59.0776 26.0803 59.5684 26.5553 60.0592C26.7527 60.2644 26.9514 60.4697 27.133 60.6394C26.9369 60.2842 26.8027 59.8408 26.7277 59.3908C26.604 58.6368 26.6488 57.8566 26.858 57.4526C26.8751 57.4184 26.8948 57.3868 26.9146 57.3566C29.004 54.3184 26.5106 51.2263 24.4356 48.6539L24.4369 48.6579Z" fill="black"/>
<path fill-rule="evenodd" clip-rule="evenodd" d="M24.8579 55.8605C26.1158 55.8605 27.1355 57.3895 27.1355 59.2763C27.1355 61.1632 26.1158 62.6921 24.8579 62.6921C23.6 62.6921 22.5815 61.1618 22.5815 59.2763C22.5815 57.3908 23.6013 55.8605 24.8579 55.8605Z" fill="white"/>
<path fill-rule="evenodd" clip-rule="evenodd" d="M24.8579 55.7421C25.5289 55.7421 26.1329 56.1448 26.5671 56.7961C26.9921 57.4329 27.2539 58.3105 27.2539 59.2763C27.2539 60.2421 26.9908 61.1211 26.5671 61.7579C26.1329 62.4092 25.5289 62.8105 24.8579 62.8105C24.1868 62.8105 23.5842 62.4079 23.15 61.7579C22.725 61.1211 22.4631 60.2434 22.4631 59.2763C22.4631 58.3092 22.7263 57.4329 23.15 56.7961C23.5842 56.1448 24.1868 55.7421 24.8579 55.7421ZM26.3697 56.9277C25.9789 56.3421 25.4447 55.9803 24.8579 55.9803C24.271 55.9803 23.7368 56.3421 23.3473 56.9277C22.9473 57.5277 22.7 58.3566 22.7 59.2763C22.7 60.1961 22.9473 61.0263 23.3473 61.6263C23.7381 62.2119 24.2723 62.5737 24.8592 62.5737C25.446 62.5737 25.9802 62.2119 26.371 61.6263C26.771 61.0263 27.0184 60.1961 27.0184 59.2763C27.0184 58.3566 26.771 57.5263 26.371 56.9277H26.3697Z" fill="black"/>
<path fill-rule="evenodd" clip-rule="evenodd" d="M30.4382 55.8447C27.3527 57.9118 24.8159 60.0408 26.1264 62.9184C26.479 63.6921 26.8777 66.5105 25.8422 67.046C26.4646 67.0763 26.1974 65.4 26.8198 65.4303C27.8264 65.1 31.7251 60.625 30.4382 55.8447Z" fill="#009844"/>
<path fill-rule="evenodd" clip-rule="evenodd" d="M30.3646 56.0368C28.8856 57.0342 27.5488 58.046 26.7277 59.1487C25.8975 60.2645 25.5988 61.4776 26.233 62.8697C26.433 63.3092 26.6475 64.3855 26.6198 65.35C26.6712 65.325 26.7304 65.3118 26.7975 65.3118C27.4133 65.0881 29.0685 63.35 29.9725 60.9526C30.5238 59.4908 30.7909 57.7868 30.362 56.0368H30.3646ZM26.5383 59.0066C27.4041 57.8434 28.8199 56.7855 30.3725 55.746L30.5106 55.6539L30.5541 55.8131C31.0554 57.6737 30.7817 59.4881 30.1988 61.0342C29.2593 63.5223 27.4975 65.3316 26.858 65.5421L26.8159 65.5474C26.7212 65.5421 26.6527 65.6145 26.5988 65.7276C26.562 66.0842 26.483 66.4118 26.3475 66.6723C26.258 66.9605 26.1225 67.1763 25.8383 67.1631L25.7896 66.9395C25.9277 66.8684 26.0383 66.7474 26.1238 66.5921C26.1593 66.4776 26.1883 66.3447 26.2172 66.2118C26.2593 66.0158 26.3014 65.821 26.3685 65.6618C26.3725 65.6237 26.3751 65.5855 26.3777 65.5474C26.4449 64.5697 26.2251 63.4145 26.0225 62.9671C25.3462 61.4816 25.6606 60.1908 26.5422 59.0066H26.5383Z" fill="black"/>
<path fill-rule="evenodd" clip-rule="evenodd" d="M22.7447 57.7474C24.2223 60.9092 28.3657 62.0119 26.8881 65.2526C26.5355 66.025 26.3052 68.4132 27.3407 68.9487C26.7184 68.979 26.1302 67.1066 25.5091 67.1368C25.4868 66.5526 25.4644 65.9697 25.442 65.3855C25.3315 64.9447 25.0894 64.6013 24.8078 64.304C22.8999 62.2974 21.9841 60.5711 22.7447 57.7474Z" fill="#009844"/>
<path fill-rule="evenodd" clip-rule="evenodd" d="M22.8527 57.6974C23.4054 58.879 24.3448 59.775 25.2133 60.6066C26.6751 62.0027 27.9475 63.2171 26.9962 65.3013C26.7975 65.7382 26.6383 66.7145 26.7409 67.5553C26.812 68.1329 27.0054 68.6421 27.3948 68.8421L27.3462 69.0658C26.9672 69.0842 26.6462 68.5948 26.3264 68.1066C26.0422 67.675 25.7593 67.2434 25.5159 67.2553L25.3962 67.2605L25.3922 67.1408L25.3251 65.404C25.2725 65.2 25.1909 65.0184 25.0896 64.8527C24.9843 64.6816 24.858 64.5277 24.7225 64.3855C23.758 63.3711 23.0448 62.4263 22.6646 61.3724C22.2843 60.3145 22.2435 59.154 22.6304 57.7171L22.8514 57.6974H22.8527ZM25.0514 60.7777C24.237 60 23.3633 59.1658 22.7843 58.0855C22.4948 59.3316 22.5527 60.3553 22.8896 61.2921C23.2554 62.3092 23.9527 63.2303 24.8962 64.2224C25.0435 64.3777 25.1804 64.5434 25.2935 64.729C25.4093 64.9171 25.5014 65.1237 25.5593 65.3579L25.5633 65.3829L25.6264 67.0303C25.9541 67.1053 26.2396 67.5421 26.5264 67.9777L26.6133 68.1092C26.5646 67.9434 26.5304 67.7671 26.508 67.5842C26.4001 66.7013 26.5698 65.6698 26.783 65.2027C27.6633 63.2711 26.4488 62.1119 25.0514 60.7777Z" fill="black"/>
<path fill-rule="evenodd" clip-rule="evenodd" d="M28.0118 64.2065C29.2683 64.2065 30.2881 65.8618 30.2881 67.9039C30.2881 69.946 29.2683 71.6013 28.0118 71.6013C26.7552 71.6013 25.7341 69.9447 25.7341 67.9039C25.7341 65.8631 26.7539 64.2065 28.0118 64.2065Z" fill="white"/>
<path fill-rule="evenodd" clip-rule="evenodd" d="M28.0118 64.0869C28.6841 64.0869 29.2894 64.5224 29.7223 65.2263C30.146 65.9132 30.4078 66.8605 30.4078 67.9026C30.4078 68.9447 30.146 69.8921 29.7223 70.579C29.2894 71.2829 28.6841 71.7184 28.0118 71.7184C27.3394 71.7184 26.7341 71.2829 26.3012 70.579C25.8776 69.8921 25.6157 68.9447 25.6157 67.9026C25.6157 66.8605 25.8776 65.9132 26.3012 65.2263C26.7355 64.5224 27.3394 64.0869 28.0118 64.0869ZM29.521 65.3513C29.1302 64.7171 28.596 64.325 28.0118 64.325C27.4276 64.325 26.892 64.7171 26.5026 65.3513C26.1012 66.0026 25.8539 66.904 25.8539 67.904C25.8539 68.904 26.1026 69.8053 26.5026 70.4566C26.8934 71.0908 27.4276 71.4829 28.0118 71.4829C28.596 71.4829 29.1302 71.0908 29.521 70.4566C29.9223 69.8053 30.1697 68.9026 30.1697 67.904C30.1697 66.9053 29.921 66.0026 29.521 65.3513Z" fill="black"/>
<path fill-rule="evenodd" clip-rule="evenodd" d="M29.7355 65.1434C30.5328 72.2013 26.296 70.3368 25.4236 72.2171C25.0657 72.9881 26.1749 75.8092 25.1394 76.3434C25.7618 76.3737 25.4947 74.6974 26.117 74.7276C27.1236 74.396 32.6434 70.3197 29.7355 65.1421V65.1434Z" fill="#009844"/>
<path fill-rule="evenodd" clip-rule="evenodd" d="M29.9131 65.7539C30.2473 70.1092 28.4842 70.746 27.0329 71.2684C26.375 71.5053 25.7868 71.7171 25.5316 72.2671C25.4052 72.5381 25.4895 73.1421 25.5802 73.7974C25.6302 74.1552 25.6816 74.5276 25.7026 74.8789C25.7881 74.7184 25.9079 74.6105 26.0987 74.6118C26.1737 74.5842 26.2763 74.5368 26.3987 74.4671C27.0868 74.0802 28.3671 73.0855 29.3079 71.6724C30.2434 70.2671 30.8395 68.446 30.1671 66.4039C30.0973 66.1908 30.0131 65.9737 29.9131 65.7552V65.7539ZM26.9539 71.046C28.3921 70.5276 30.1539 69.8921 29.6184 65.1566L29.8395 65.0855C30.0763 65.5079 30.2579 65.9224 30.3921 66.3289C31.0921 68.4552 30.475 70.3447 29.5052 71.8013C28.5408 73.2513 27.2237 74.2737 26.5145 74.671C26.3684 74.7539 26.246 74.8105 26.1552 74.8395L26.1131 74.8447C25.9026 74.8342 25.825 75.1974 25.746 75.5592C25.646 76.0197 25.5473 76.4802 25.1368 76.4605L25.0881 76.2368C25.6421 75.9513 25.4868 74.8276 25.3473 73.8276C25.2513 73.1368 25.1631 72.5 25.3184 72.1658C25.6145 71.5276 26.2487 71.2987 26.9552 71.0447L26.9539 71.046Z" fill="black"/>
<path fill-rule="evenodd" clip-rule="evenodd" d="M24.1131 64.7224C26.3065 67.4645 29.3302 70.8434 27.021 74.2026C26.5328 74.9131 26.7855 77.5013 27.821 78.0355C27.1999 78.0658 25.7355 75.8763 25.1131 75.9066C25.0907 75.3237 25.0684 74.7395 25.046 74.1552C24.9355 73.7131 24.6947 73.3697 24.4118 73.0737C22.5052 71.0671 21.6631 68.5868 24.1118 64.7224H24.1131Z" fill="#009844"/>
<path fill-rule="evenodd" clip-rule="evenodd" d="M24.2053 64.6487C24.2869 64.7513 24.4342 64.9329 24.5829 65.1171C26.7474 67.8013 29.3487 71.0263 27.1184 74.2697C27.104 74.2908 27.0895 74.3145 27.0763 74.3408C26.8855 74.7105 26.8487 75.4461 26.9671 76.1684C27.0855 76.8855 27.3566 77.5816 27.7816 77.8737C27.8119 77.8947 27.8434 77.9132 27.875 77.9303L27.8263 78.154C27.4619 78.1711 26.9224 77.6118 26.3816 77.0526C25.879 76.5316 25.3763 76.0119 25.1184 76.0237L24.9987 76.029L24.9934 75.9092L24.9277 74.1724C24.875 73.9684 24.7934 73.7869 24.6908 73.6211C24.5869 73.45 24.4605 73.2974 24.325 73.154C23.354 72.1342 22.6553 70.9895 22.5092 69.6053C22.3632 68.2263 22.7711 66.6145 24.0105 64.6579L24.0987 64.5184L24.2027 64.6474L24.2053 64.6487ZM24.3974 65.2658C24.3158 65.1645 24.2329 65.0632 24.125 64.9276C22.9855 66.7711 22.6105 68.2882 22.7461 69.5829C22.8855 70.9066 23.5605 72.0066 24.4974 72.9921C24.6434 73.1461 24.7803 73.3132 24.8948 73.4987C25.0105 73.6855 25.1027 73.8934 25.1605 74.1276L25.1645 74.1513L25.2277 75.8013C25.5842 75.8882 26.0684 76.3882 26.5527 76.8895C26.7579 77.1013 26.9632 77.3145 27.1527 77.4908C26.9487 77.1263 26.8092 76.6697 26.7329 76.2066C26.6066 75.4382 26.6527 74.6447 26.8645 74.2329C26.8816 74.1987 26.9013 74.1658 26.9224 74.1355C29.0513 71.0382 26.5105 67.8882 24.3974 65.2658Z" fill="black"/>
<path fill-rule="evenodd" clip-rule="evenodd" d="M24.8579 73.7776C26.1158 73.7776 27.1355 75.3066 27.1355 77.1934C27.1355 79.0803 26.1158 80.6092 24.8579 80.6092C23.6 80.6092 22.5815 79.079 22.5815 77.1934C22.5815 75.3079 23.6013 73.7776 24.8579 73.7776Z" fill="white"/>
<path fill-rule="evenodd" clip-rule="evenodd" d="M24.8579 73.6592C25.5289 73.6592 26.1329 74.0618 26.5671 74.7131C26.9921 75.35 27.2539 76.2276 27.2539 77.1934C27.2539 78.1592 26.9908 79.0381 26.5671 79.675C26.1329 80.3263 25.5289 80.7289 24.8579 80.7289C24.1868 80.7289 23.5842 80.3263 23.15 79.675C22.725 79.0381 22.4631 78.1605 22.4631 77.1934C22.4631 76.2263 22.7263 75.35 23.15 74.7131C23.5842 74.0618 24.1868 73.6592 24.8579 73.6592ZM26.3697 74.8447C25.9789 74.2592 25.4447 73.8973 24.8579 73.8973C24.271 73.8973 23.7368 74.2592 23.3473 74.8447C22.9473 75.4447 22.7 76.275 22.7 77.1934C22.7 78.1118 22.9473 78.9434 23.3473 79.5434C23.7381 80.1289 24.2723 80.4908 24.8592 80.4908C25.446 80.4908 25.9802 80.1289 26.371 79.5434C26.771 78.9434 27.0184 78.1131 27.0184 77.1934C27.0184 76.2737 26.771 75.4434 26.371 74.8447H26.3697Z" fill="black"/>
<path fill-rule="evenodd" clip-rule="evenodd" d="M30.4382 73.7618C27.3527 75.8289 24.8159 77.9579 26.1264 80.8355C26.3856 81.4039 26.6698 83.0789 26.3909 84.1395H26.3356C26.4224 83.7329 26.5132 83.3329 26.8211 83.3474C27.8277 83.0158 31.7264 78.5434 30.4396 73.7618H30.4382Z" fill="#009844"/>
<path fill-rule="evenodd" clip-rule="evenodd" d="M30.3645 73.9539C28.8855 74.9513 27.5487 75.9632 26.7277 77.0658C25.8974 78.1816 25.5987 79.3947 26.2329 80.7868C26.3829 81.1171 26.5421 81.8026 26.6 82.5289C26.6198 82.7737 26.6277 83.025 26.6211 83.2684C26.6737 83.2421 26.7316 83.2289 26.7987 83.2276C27.4145 83.0026 29.0698 81.2658 29.9737 78.8684C30.525 77.4066 30.7921 75.7026 30.3632 73.9526L30.3645 73.9539ZM26.5382 76.9237C27.404 75.7605 28.8198 74.7026 30.3724 73.6632L30.5105 73.571L30.554 73.7303C31.0553 75.5908 30.7816 77.4053 30.1987 78.9513C29.2592 81.4395 27.4974 83.2487 26.8579 83.4592L26.8158 83.4645C26.7211 83.4592 26.6553 83.5289 26.604 83.6355L26.6 83.6447C26.5803 83.8289 26.5513 84.0053 26.5079 84.1684L26.4842 84.2566H26.1895L26.2211 84.1118C26.2619 83.9237 26.3026 83.7355 26.3684 83.5829C26.4 83.2526 26.3961 82.8947 26.3684 82.546C26.3132 81.846 26.1632 81.1921 26.0237 80.8842C25.3474 79.3974 25.6619 78.1079 26.5434 76.9237H26.5382Z" fill="black"/>
<path fill-rule="evenodd" clip-rule="evenodd" d="M22.7447 75.6645C24.2223 78.8263 28.3657 79.929 26.8881 83.1698C26.7881 83.3895 26.6973 83.7395 26.6434 84.1395H25.4736L25.442 83.3026C25.3315 82.8619 25.0894 82.5184 24.8078 82.2211C22.8999 80.2145 21.9841 78.4882 22.7447 75.6645Z" fill="#009844"/>
<path fill-rule="evenodd" clip-rule="evenodd" d="M22.8527 75.6145C23.4054 76.7961 24.3448 77.6934 25.2133 78.5237C26.6751 79.9197 27.9475 81.1342 26.9962 83.2184C26.9488 83.3224 26.9027 83.4605 26.8633 83.6211C26.8225 83.7816 26.7883 83.9632 26.762 84.1553L26.7475 84.2579H25.3606L25.3567 84.1434L25.3251 83.3197C25.2725 83.1158 25.1909 82.9342 25.0896 82.7684C24.9856 82.5987 24.8593 82.4447 24.7225 82.3013C23.758 81.2868 23.0448 80.3421 22.6646 79.2882C22.2843 78.2303 22.2435 77.0697 22.6304 75.6329L22.8514 75.6132L22.8527 75.6145ZM25.0514 78.6947C24.237 77.9171 23.3633 77.0829 22.7843 76.0026C22.4948 77.2487 22.5527 78.2724 22.8896 79.2092C23.2554 80.2263 23.9527 81.1474 24.8962 82.1395C25.0422 82.2934 25.1791 82.4605 25.2935 82.6461C25.4093 82.8329 25.5014 83.0408 25.5593 83.2737L25.5633 83.2987L25.5883 84.1395H26.5422C26.5672 83.975 26.6014 83.7013 26.6356 83.5632C26.6791 83.3895 26.7304 83.2382 26.7843 83.1197C27.6646 81.1882 26.4501 80.029 25.0527 78.6947H25.0514Z" fill="black"/>
<defs>
<linearGradient id="paint0_linear_463_2378" x1="62.6052" y1="19.075" x2="62.6052" y2="85.3079" gradientUnits="userSpaceOnUse">
<stop stop-color="#D2ECFA"/>
<stop offset="1" stop-color="white"/>
</linearGradient>
<linearGradient id="paint1_linear_463_2378" x1="62.2907" y1="120.291" x2="62.55" y2="83.6065" gradientUnits="userSpaceOnUse">
<stop stop-color="#009844"/>
<stop offset="1" stop-color="#AACC05"/>
</linearGradient>
</defs>
</svg>
