<svg width="20" height="20" viewBox="0 0 20 20" fill="none" xmlns="http://www.w3.org/2000/svg">
<path d="M2.22503 1.30045C2.01399 1.30045 1.8036 1.38171 1.64235 1.54296L1.62933 1.55435C1.30683 1.87685 1.30683 2.39968 1.62933 2.72134L2.48219 3.57421C1.99552 3.86515 1.66676 4.39148 1.66676 4.99999V15C1.66676 15.9208 2.41259 16.6667 3.33343 16.6667H15.5763L16.7351 17.8255C17.0576 18.148 17.5796 18.148 17.9021 17.8255L17.9135 17.8141C18.236 17.4916 18.236 16.9696 17.9135 16.6471L2.80771 1.54296C2.64646 1.38171 2.43607 1.30045 2.22503 1.30045ZM6.94834 3.33332L18.3334 14.7184V4.99999C18.3334 4.07916 17.5876 3.33332 16.6668 3.33332H6.94834ZM15.0001 6.66666C15.4601 6.66666 15.8334 7.03999 15.8334 7.49999C15.8334 7.95999 15.4601 8.33332 15.0001 8.33332C14.5401 8.33332 14.1668 7.95999 14.1668 7.49999C14.1668 7.03999 14.5401 6.66666 15.0001 6.66666ZM7.08668 10.6657C7.20731 10.6638 7.32883 10.7129 7.41383 10.8154L9.16676 12.9248L10.3321 11.4225L13.0763 14.1667H5.018C4.67133 14.1667 4.47752 13.7678 4.69085 13.4945L6.76442 10.8252C6.84608 10.7202 6.96606 10.6676 7.08668 10.6657Z" fill="#A9C7FF"/>
</svg>
