<svg width="20" height="20" viewBox="0 0 20 20" fill="none" xmlns="http://www.w3.org/2000/svg">
<path d="M18.0892 11.0775C17.9767 10.965 15.3034 8.33331 11.6667 8.33331C9.36175 8.33331 7.70675 9.52915 6.54342 10.95C6.59425 10.3708 6.63592 9.78415 6.65342 9.19665C6.66758 8.72498 6.29175 8.33331 5.81925 8.33331C5.37258 8.33331 5.00091 8.68665 4.98758 9.13331C4.93591 10.8766 4.72341 12.4883 4.48008 13.6141C4.47258 13.6475 4.48091 13.68 4.47841 13.7133C3.94425 13.2383 3.33341 12.3616 3.33341 10.8333C3.33341 8.10248 5.40341 5.69498 6.51008 4.60331C6.83841 5.13748 7.26925 5.91165 7.62925 6.80415C7.80258 7.23498 8.28841 7.43665 8.71591 7.25581C8.72091 7.25331 8.72592 7.25165 8.73092 7.24915C9.14425 7.07498 9.34091 6.59998 9.17425 6.18415C8.41675 4.29831 7.40092 2.92415 7.33342 2.83331C7.04842 2.40998 6.66091 2.33248 6.14591 2.68248C5.96341 2.82915 1.66675 6.31831 1.66675 10.8333C1.66675 13.2433 2.79675 14.5525 3.68675 15.2108C3.23758 15.9425 2.90675 16.6491 2.71008 17.2491C2.53508 17.785 2.93091 18.3333 3.49425 18.3333C3.85841 18.3333 4.17091 18.0958 4.28008 17.7483C4.37925 17.435 4.54341 17.0525 4.76341 16.6358C4.76591 16.6366 4.76425 16.6366 4.76675 16.6375C4.87175 16.4333 4.99425 16.2275 5.11758 16.0225C6.10841 14.4225 7.82675 12.5625 10.0409 11.9125C10.1926 11.87 10.3442 11.8283 10.5001 11.7966C10.5859 11.7783 10.6726 11.7625 10.7601 11.7483C11.2417 11.7033 11.6667 12.085 11.6667 12.5758C11.6667 12.9808 11.3742 13.3241 10.9751 13.3908C8.97925 13.7241 7.40258 15.45 6.47925 17.0833C7.45508 17.295 8.72842 17.5 10.0001 17.5C14.6126 17.5 16.5151 14.6466 18.1934 12.1291C18.5059 11.6816 18.4376 11.3891 18.0892 11.0775Z" fill="#22C55E"/>
</svg>
