<svg width="20" height="20" viewBox="0 0 20 20" fill="none" xmlns="http://www.w3.org/2000/svg">
<path d="M4.16675 2.5C3.94574 2.50002 3.73379 2.58783 3.57752 2.7441C3.42124 2.90038 3.33344 3.11233 3.33341 3.33333V10.8333C3.33185 10.9438 3.35225 11.0534 3.39343 11.1559C3.43461 11.2583 3.49574 11.3516 3.57328 11.4303C3.65082 11.5089 3.74321 11.5713 3.84509 11.614C3.94697 11.6566 4.05631 11.6785 4.16675 11.6785C4.27719 11.6785 4.38652 11.6566 4.4884 11.614C4.59028 11.5713 4.68268 11.5089 4.76021 11.4303C4.83775 11.3516 4.89889 11.2583 4.94006 11.1559C4.98124 11.0534 5.00164 10.9438 5.00008 10.8333V4.16667H15.8334V15C15.8334 15.4709 15.4709 15.8333 15.0001 15.8333C14.5401 15.8333 14.1667 15.4592 14.1667 15V14.1667C14.1667 13.7067 13.7934 13.3333 13.3334 13.3333H2.50008C2.04008 13.3333 1.66675 13.7067 1.66675 14.1667V15C1.66675 16.3808 2.78591 17.5 4.16675 17.5H15.0001C16.3709 17.5 17.5001 16.3708 17.5001 15V3.33333C17.5001 3.11233 17.4123 2.90038 17.256 2.7441C17.0997 2.58783 16.8878 2.50002 16.6667 2.5H4.16675ZM7.08341 6.66667C6.85341 6.66667 6.66675 6.85333 6.66675 7.08333V7.91667C6.66675 8.14667 6.85341 8.33333 7.08341 8.33333H7.91675C8.14675 8.33333 8.33341 8.14667 8.33341 7.91667V7.08333C8.33341 6.85333 8.14675 6.66667 7.91675 6.66667H7.08341ZM10.8334 6.66667C10.3734 6.66667 10.0001 7.04 10.0001 7.5C10.0001 7.96 10.3734 8.33333 10.8334 8.33333H13.3334C13.7934 8.33333 14.1667 7.96 14.1667 7.5C14.1667 7.04 13.7934 6.66667 13.3334 6.66667H10.8334ZM7.08341 10C6.85341 10 6.66675 10.1867 6.66675 10.4167V11.25C6.66675 11.48 6.85341 11.6667 7.08341 11.6667H7.91675C8.14675 11.6667 8.33341 11.48 8.33341 11.25V10.4167C8.33341 10.1867 8.14675 10 7.91675 10H7.08341ZM10.8334 10C10.3734 10 10.0001 10.3733 10.0001 10.8333C10.0001 11.2933 10.3734 11.6667 10.8334 11.6667H13.3334C13.7934 11.6667 14.1667 11.2933 14.1667 10.8333C14.1667 10.3733 13.7934 10 13.3334 10H10.8334Z" fill="#285EA7"/>
</svg>
