<svg width="20" height="20" viewBox="0 0 20 20" fill="none" xmlns="http://www.w3.org/2000/svg">
<path d="M3.83341 10.8404L3.83336 10.8404C3.83274 10.8846 3.8409 10.9284 3.85738 10.9694C3.87385 11.0104 3.89831 11.0477 3.92933 11.0792C3.96034 11.1107 3.99731 11.1356 4.03807 11.1527C4.07883 11.1698 4.12257 11.1785 4.16675 11.1785C4.21093 11.1785 4.25467 11.1698 4.29543 11.1527C4.33619 11.1356 4.37315 11.1107 4.40417 11.0792C4.43519 11.0477 4.45965 11.0104 4.47612 10.9694C4.49259 10.9284 4.50076 10.8846 4.50013 10.8404L4.50003 10.8333H4.50008V4.16667V3.66667H5.00008H15.8334H16.3334V4.16667V15C16.3334 15.747 15.7471 16.3333 15.0001 16.3333C14.2636 16.3333 13.6667 15.735 13.6667 15V14.1667C13.6667 13.9828 13.5173 13.8333 13.3334 13.8333H2.50008C2.31622 13.8333 2.16675 13.9828 2.16675 14.1667V15C2.16675 16.1047 3.06206 17 4.16675 17H15.0001C16.0947 17 17.0001 16.0947 17.0001 15V3.33338C17.0001 3.33337 17.0001 3.33335 17.0001 3.33333C17.0001 3.24494 16.9649 3.16016 16.9024 3.09766C16.8399 3.03515 16.7551 3.00002 16.6667 3L3.83341 10.8404ZM3.83341 10.8404V10.8333M3.83341 10.8404V10.8333M3.83341 10.8333V3.33338C3.83341 3.33337 3.83341 3.33335 3.83341 3.33333C3.83344 3.24494 3.86856 3.16016 3.93107 3.09766C3.99358 3.03515 4.07835 3.00002 4.16675 3M3.83341 10.8333L4.16675 3M4.16675 3C4.16676 3 4.16678 3 4.1668 3M4.16675 3H4.1668M4.1668 3H16.6667H4.1668ZM7.16675 7.83333V7.16667H7.83341V7.83333H7.16675ZM10.5001 7.5C10.5001 7.31614 10.6496 7.16667 10.8334 7.16667H13.3334C13.5173 7.16667 13.6667 7.31614 13.6667 7.5C13.6667 7.68386 13.5173 7.83333 13.3334 7.83333H10.8334C10.6496 7.83333 10.5001 7.68386 10.5001 7.5ZM7.16675 11.1667V10.5H7.83341V11.1667H7.16675ZM10.5001 10.8333C10.5001 10.6495 10.6496 10.5 10.8334 10.5H13.3334C13.5173 10.5 13.6667 10.6495 13.6667 10.8333C13.6667 11.0172 13.5173 11.1667 13.3334 11.1667H10.8334C10.6496 11.1667 10.5001 11.0172 10.5001 10.8333Z" stroke="#285EA7"/>
</svg>
