<svg width="20" height="20" viewBox="0 0 20 20" fill="none" xmlns="http://www.w3.org/2000/svg">
<path d="M4.35267 9.77546L4.37284 9.77071L4.39254 9.76432C4.58896 9.70057 4.79407 9.66763 5.00057 9.66667C5.25615 9.66722 5.50925 9.71675 5.74617 9.81258C5.76879 9.82216 5.79124 9.83216 5.81349 9.84256L5.81342 9.84272L5.82548 9.84798L10.6188 11.9378L10.619 11.9379C11.2132 12.1966 11.4824 12.8925 11.2169 13.485C11.2169 13.4851 11.2169 13.4852 11.2168 13.4852L10.9715 14.0296L10.8489 14.3015L11.03 14.5386L11.3409 14.9455L11.5835 15.263L11.9467 15.0964L16.8718 12.8373L16.8718 12.8373C17.2173 12.6788 17.6261 12.8289 17.7876 13.1741C17.9435 13.508 17.8115 13.9053 17.4872 14.0789C17.4871 14.0789 17.4871 14.079 17.487 14.079L12.3782 16.81C11.9937 17.0155 11.5404 17.05 11.1286 16.906C11.1286 16.906 11.1285 16.906 11.1285 16.906L4.3317 14.528L4.17196 14.4722L4.01112 14.5248L1.33325 15.4008V10.4856L4.35267 9.77546ZM11.3333 5.83333C11.3333 4.26864 12.6019 3 14.1666 3C15.7313 3 16.9999 4.26864 16.9999 5.83333C16.9999 7.39802 15.7313 8.66667 14.1666 8.66667C12.6019 8.66667 11.3333 7.39802 11.3333 5.83333Z" stroke="#285EA7"/>
</svg>
