<svg width="20" height="20" viewBox="0 0 20 20" fill="none" xmlns="http://www.w3.org/2000/svg">
<path d="M14.1666 2.5C12.3258 2.5 10.8333 3.9925 10.8333 5.83333C10.8333 7.67417 12.3258 9.16667 14.1666 9.16667C16.0074 9.16667 17.4999 7.67417 17.4999 5.83333C17.4999 3.9925 16.0074 2.5 14.1666 2.5ZM4.99992 9.16667C4.74123 9.1677 4.48426 9.20888 4.2382 9.28874L0.833252 10.0895V16.0905L4.16659 15L10.9635 17.3779C11.5068 17.5679 12.1055 17.5226 12.6139 17.251L17.7229 14.5199C18.2821 14.2207 18.5088 13.5364 18.2405 12.9622C17.963 12.3689 17.2592 12.1095 16.6633 12.3828L11.7382 14.6419L11.4273 14.235L11.6731 13.6898C12.0523 12.8439 11.6686 11.8495 10.8186 11.4795L6.02531 9.38965C5.99627 9.37606 5.96696 9.36304 5.93742 9.35059C5.63965 9.22958 5.32134 9.16714 4.99992 9.16667Z" fill="#285EA7"/>
</svg>
